<svg width="241" height="63" viewBox="0 0 241 63" fill="none" xmlns="http://www.w3.org/2000/svg">
<path d="M68.6446 62.9923C62.3235 62.9923 14.5099 62.9839 8.18879 63C7.02308 63.003 6.18948 62.2781 5.93697 61.3851C5.88112 61.1878 5.86568 60.9769 5.84845 60.7713C5.72486 59.3198 5.05467 58.2064 3.79686 57.4608C3.18845 57.1001 2.51944 56.9254 1.81835 56.9231C0.993673 56.9207 0.28961 56.3325 0.0763114 55.6421C0.0335328 55.503 0.00976681 55.3527 0.00976682 55.2078C0.00620223 48.561 0.0127357 14.5247 -0.000335247 7.87799C-0.00211765 6.98202 0.879593 6.11219 1.80052 6.10981C3.01615 6.10624 4.02442 5.62617 4.83365 4.73436C5.46761 4.03564 5.79498 3.19552 5.84429 2.25795C5.8936 1.32217 6.31188 0.628208 7.16627 0.249736C7.49899 0.102387 7.88756 0.0150479 8.25058 0.0144538C17.1646 -0.000399536 67.5692 0.00138511 76.4826 0.00079135C80.1925 0.000791513 83.9017 -0.000990767 87.6116 0.000791837C88.7119 0.000791885 89.6228 0.652571 89.9002 1.66797C89.9959 2.01733 89.9858 2.39402 90.0523 2.75229C90.3316 4.25607 91.2169 5.28335 92.6149 5.84482C93.0427 6.01653 93.5358 6.08367 94.0016 6.09318C94.8976 6.1116 95.8298 6.93687 95.8257 7.93384C95.7989 14.4813 95.793 48.4196 95.831 54.9671C95.8376 56.0556 94.9606 56.9118 93.9505 56.9302C92.5484 56.9557 91.4308 57.5938 90.6441 58.7685C90.2336 59.3816 90.0262 60.0685 89.9858 60.804C89.9341 61.7374 89.5039 62.4308 88.643 62.8004C88.337 62.9317 87.9746 62.981 87.6383 62.9822C83.7805 62.9946 79.9221 62.9911 76.0643 62.9911C73.5915 62.9911 71.1181 62.9911 68.6452 62.9911C68.6452 62.9911 68.6452 62.9917 68.6452 62.9923L68.6446 62.9923Z" fill="black"/>
<path d="M142.782 62.9923C136.461 62.9923 88.6476 62.9839 82.3265 63C81.1608 63.003 80.3272 62.2781 80.0747 61.3851C80.0188 61.1878 80.0034 60.9769 79.9861 60.7713C79.8626 59.3198 79.1924 58.2064 77.9346 57.4608C77.3261 57.1001 76.6571 56.9254 75.956 56.9231C75.1314 56.9207 74.4273 56.3325 74.214 55.6421C74.1712 55.503 74.1475 55.3527 74.1475 55.2078C74.1439 48.561 74.1504 14.5247 74.1374 7.87799C74.1356 6.98202 75.0173 6.11219 75.9382 6.10981C77.1538 6.10624 78.1621 5.62617 78.9713 4.73436C79.6053 4.03564 79.9327 3.19552 79.982 2.25795C80.0313 1.32217 80.4496 0.628208 81.304 0.249736C81.6367 0.102387 82.0253 0.0150479 82.3883 0.0144538C91.3023 -0.000399536 141.707 0.00138511 150.62 0.00079135C154.33 0.000791513 158.039 -0.000990767 161.749 0.000791837C162.85 0.000791885 163.76 0.652571 164.038 1.66797C164.134 2.01733 164.123 2.39402 164.19 2.75229C164.469 4.25607 165.355 5.28335 166.753 5.84482C167.18 6.01653 167.674 6.08367 168.139 6.09318C169.035 6.1116 169.968 6.93687 169.963 7.93384C169.937 14.4813 169.931 48.4196 169.969 54.9671C169.975 56.0556 169.098 56.9118 168.088 56.9302C166.686 56.9557 165.568 57.5938 164.782 58.7685C164.371 59.3816 164.164 60.0685 164.123 60.804C164.072 61.7374 163.642 62.4308 162.781 62.8004C162.475 62.9317 162.112 62.981 161.776 62.9822C157.918 62.9946 154.06 62.9911 150.202 62.9911C147.729 62.9911 145.256 62.9911 142.783 62.9911C142.783 62.9911 142.783 62.9917 142.783 62.9923L142.782 62.9923Z" fill="black"/>
<path d="M213.551 62.9923C207.23 62.9923 159.416 62.9839 153.095 63C151.929 63.003 151.096 62.2781 150.843 61.3851C150.787 61.1878 150.772 60.9769 150.755 60.7713C150.631 59.3198 149.961 58.2064 148.703 57.4608C148.095 57.1001 147.426 56.9254 146.725 56.9231C145.9 56.9207 145.196 56.3325 144.983 55.6421C144.94 55.503 144.916 55.3527 144.916 55.2078C144.912 48.561 144.919 14.5247 144.906 7.87799C144.904 6.98202 145.786 6.11219 146.707 6.10981C147.922 6.10624 148.931 5.62617 149.74 4.73436C150.374 4.03564 150.701 3.19552 150.751 2.25795C150.8 1.32217 151.218 0.628208 152.073 0.249736C152.405 0.102387 152.794 0.0150479 153.157 0.0144538C162.071 -0.000399536 212.475 0.00138511 221.389 0.00079135C225.099 0.000791513 228.808 -0.000990767 232.518 0.000791837C233.618 0.000791885 234.529 0.652571 234.806 1.66797C234.902 2.01733 234.892 2.39402 234.959 2.75229C235.238 4.25607 236.123 5.28335 237.521 5.84482C237.949 6.01653 238.442 6.08367 238.908 6.09318C239.804 6.1116 240.736 6.93687 240.732 7.93384C240.705 14.4813 240.699 48.4196 240.737 54.9671C240.744 56.0556 239.867 56.9118 238.857 56.9302C237.455 56.9557 236.337 57.5938 235.55 58.7685C235.14 59.3816 234.932 60.0685 234.892 60.804C234.84 61.7374 234.41 62.4308 233.549 62.8004C233.243 62.9317 232.881 62.981 232.545 62.9822C228.687 62.9946 224.828 62.9911 220.971 62.9911C218.498 62.9911 216.024 62.9911 213.551 62.9911C213.551 62.9911 213.551 62.9917 213.551 62.9923L213.551 62.9923Z" fill="black"/>
</svg>
