<svg width="958" height="221" viewBox="0 0 958 221" fill="none" xmlns="http://www.w3.org/2000/svg">
<path d="M863.087 120.993C867.379 124.888 871.113 130.172 874.289 136.846L915.298 112.532C911.639 104.904 907.073 98.3903 901.59 92.983C896.107 87.5851 889.235 83.766 880.963 81.535L842.1 104.658L828.034 81.2892L784.407 107.276L798.946 121.816V188.329L778.924 214.789H867.133L846.865 188.329V115.151C853.378 115.151 858.786 117.098 863.077 120.993H863.087Z" fill="#CB9C5F"/>
<mask id="mask0_202_2588" style="mask-type:alpha" maskUnits="userSpaceOnUse" x="778" y="81" width="138" height="134">
<path d="M863.087 120.993C867.379 124.888 871.113 130.172 874.289 136.846L915.298 112.532C911.639 104.904 907.073 98.3903 901.59 92.983C896.107 87.5851 889.235 83.766 880.963 81.535L842.1 104.658L828.034 81.2892L784.407 107.276L798.946 121.816V188.329L778.924 214.789H867.133L846.865 188.329V115.151C853.378 115.151 858.786 117.098 863.077 120.993H863.087Z" fill="#CB9C5F"/>
</mask>
<g mask="url(#mask0_202_2588)">
<rect x="778.745" y="96.9417" width="41.3528" height="118.635" fill="url(#paint0_linear_202_2588)"/>
<rect x="819.42" y="81.3497" width="95.5859" height="134.227" fill="url(#paint1_linear_202_2588)"/>
<path d="M819.42 113.212L828.232 80.6718L776.711 105.755L819.42 113.212Z" fill="url(#paint2_linear_202_2588)"/>
<path d="M819.972 191.451L777.389 215.577L868.907 215.577L819.972 191.451Z" fill="url(#paint3_linear_202_2588)"/>
<rect x="862.806" y="80.1754" width="31.862" height="58.3006" transform="rotate(-33.979 862.806 80.1754)" fill="url(#paint4_linear_202_2588)"/>
<path d="M882.466 109.483L874.331 137.956L918.057 112.873L882.466 109.483Z" fill="url(#paint5_linear_202_2588)"/>
</g>
<path d="M340.547 63.5453C335.612 56.2284 329.193 50.0365 321.309 44.9695C313.416 39.9025 305.144 36.6789 296.504 35.2893C287.863 33.8997 279.403 34.136 271.122 35.9983C262.84 37.8606 255.079 41.2827 247.829 46.2646C240.578 51.2371 234.461 57.6086 229.48 65.3698C224.498 73.131 221.265 81.3365 219.762 90.0052C218.258 98.6739 218.391 107.163 220.14 115.463C221.898 123.763 225.207 131.553 230.075 138.832C234.944 146.101 241.325 152.274 249.218 157.341C257.112 162.408 265.412 165.651 274.118 167.088C282.825 168.525 291.323 168.307 299.604 166.445C307.886 164.583 315.647 161.16 322.897 156.179C330.148 151.197 336.264 144.835 341.246 137.073C346.219 129.312 349.461 121.097 350.964 112.438C352.467 103.769 352.335 95.2896 350.586 86.9801C348.828 78.6801 345.481 70.8716 340.556 63.5453H340.547ZM304.237 119.698C302.658 128.036 299.519 135.882 294.793 143.246C292.136 147.396 288.761 151.461 284.687 155.46C279.355 148.455 274.969 140.874 271.528 132.706C268.078 124.548 265.856 116.229 264.873 107.759C263.88 99.2884 264.183 90.8843 265.752 82.5465C267.321 74.2087 270.469 66.3624 275.196 58.9983C277.937 54.7159 281.35 50.5848 285.424 46.586C290.747 53.591 295.105 61.1536 298.489 69.274C301.873 77.3944 304.066 85.7417 305.078 94.3254C306.089 102.909 305.806 111.36 304.237 119.698Z" fill="#CB9C5F"/>
<mask id="mask1_202_2588" style="mask-type:alpha" maskUnits="userSpaceOnUse" x="218" y="34" width="135" height="135">
<path d="M340.547 63.5453C335.612 56.2284 329.193 50.0365 321.309 44.9695C313.416 39.9025 305.144 36.6789 296.504 35.2893C287.863 33.8997 279.403 34.136 271.122 35.9983C262.84 37.8606 255.079 41.2827 247.829 46.2646C240.578 51.2371 234.461 57.6086 229.48 65.3698C224.498 73.131 221.265 81.3365 219.762 90.0052C218.258 98.6739 218.391 107.163 220.14 115.463C221.898 123.763 225.207 131.553 230.075 138.832C234.944 146.101 241.325 152.274 249.218 157.341C257.112 162.408 265.412 165.651 274.118 167.088C282.825 168.525 291.323 168.307 299.604 166.445C307.886 164.583 315.647 161.16 322.897 156.179C330.148 151.197 336.264 144.835 341.246 137.073C346.219 129.312 349.461 121.097 350.964 112.438C352.467 103.769 352.335 95.2896 350.586 86.9801C348.828 78.6801 345.481 70.8716 340.556 63.5453H340.547ZM304.237 119.698C302.658 128.036 299.519 135.882 294.793 143.246C292.136 147.396 288.761 151.461 284.687 155.46C279.355 148.455 274.969 140.874 271.528 132.706C268.078 124.548 265.856 116.229 264.873 107.759C263.88 99.2884 264.183 90.8843 265.752 82.5465C267.321 74.2087 270.469 66.3624 275.196 58.9983C277.937 54.7159 281.35 50.5848 285.424 46.586C290.747 53.591 295.105 61.1536 298.489 69.274C301.873 77.3944 304.066 85.7417 305.078 94.3254C306.089 102.909 305.806 111.36 304.237 119.698Z" fill="#CB9C5F"/>
</mask>
<g mask="url(#mask1_202_2588)">
<rect x="285.402" y="24.4049" width="111.856" height="172.19" fill="url(#paint6_linear_202_2588)"/>
<rect x="285.402" y="196.595" width="111.856" height="172.19" transform="rotate(-180 285.402 196.595)" fill="url(#paint7_linear_202_2588)"/>
</g>
<path d="M261.148 188.518L241.258 214.808H329.467L309.332 188.518H261.148Z" fill="#CB9C5F"/>
<mask id="mask2_202_2588" style="mask-type:alpha" maskUnits="userSpaceOnUse" x="241" y="188" width="89" height="27">
<path d="M261.148 188.518L241.258 214.808H329.467L309.332 188.518H261.148Z" fill="#CB9C5F"/>
</mask>
<g mask="url(#mask2_202_2588)">
<rect x="282.69" y="176.936" width="61.0123" height="48.8098" fill="url(#paint8_linear_202_2588)"/>
<rect x="282.69" y="225.745" width="61.0123" height="48.8098" transform="rotate(-180 282.69 225.745)" fill="url(#paint9_linear_202_2588)"/>
<path d="M283.116 198.629L238.625 215.916L333.872 216.255L283.116 198.629Z" fill="url(#paint10_linear_202_2588)"/>
</g>
<path d="M755.673 110.496C750.738 103.18 744.319 96.9877 736.435 91.9207C728.542 86.8537 720.27 83.6301 711.63 82.2405C702.989 80.8508 694.529 81.0872 686.247 82.9495C677.966 84.8118 670.205 88.2339 662.954 93.2158C655.704 98.1882 649.587 104.56 644.606 112.321C639.624 120.082 636.391 128.288 634.888 136.956C633.384 145.625 633.517 154.114 635.266 162.414C637.024 170.714 640.333 178.504 645.201 185.783C650.07 193.052 656.451 199.225 664.344 204.292C672.238 209.359 680.538 212.602 689.244 214.039C697.951 215.476 706.449 215.258 714.73 213.396C723.011 211.534 730.773 208.112 738.023 203.13C745.274 198.148 751.39 191.786 756.372 184.025C761.345 176.263 764.587 168.048 766.09 159.389C767.593 150.72 767.461 142.241 765.712 133.931C763.954 125.631 760.607 117.823 755.682 110.496H755.673ZM719.362 166.649C717.784 174.987 714.645 182.833 709.919 190.198C707.262 194.348 703.887 198.412 699.813 202.411C694.481 195.406 690.095 187.825 686.654 179.657C683.204 171.499 680.982 163.18 679.999 154.71C679.006 146.24 679.309 137.836 680.878 129.498C682.447 121.16 685.595 113.314 690.322 105.949C693.063 101.667 696.476 97.536 700.55 93.5372C705.873 100.542 710.231 108.105 713.615 116.225C716.999 124.346 719.192 132.693 720.204 141.277C721.215 149.86 720.932 158.311 719.362 166.649Z" fill="#CB9C5F"/>
<mask id="mask3_202_2588" style="mask-type:alpha" maskUnits="userSpaceOnUse" x="633" y="81" width="135" height="134">
<path d="M755.673 110.496C750.738 103.18 744.319 96.9877 736.435 91.9207C728.542 86.8537 720.27 83.6301 711.63 82.2405C702.989 80.8508 694.529 81.0872 686.247 82.9495C677.966 84.8118 670.205 88.2339 662.954 93.2158C655.704 98.1882 649.587 104.56 644.606 112.321C639.624 120.082 636.391 128.288 634.888 136.956C633.384 145.625 633.517 154.114 635.266 162.414C637.024 170.714 640.333 178.504 645.201 185.783C650.07 193.052 656.451 199.225 664.344 204.292C672.238 209.359 680.538 212.602 689.244 214.039C697.951 215.476 706.449 215.258 714.73 213.396C723.011 211.534 730.773 208.112 738.023 203.13C745.274 198.148 751.39 191.786 756.372 184.025C761.345 176.263 764.587 168.048 766.09 159.389C767.593 150.72 767.461 142.241 765.712 133.931C763.954 125.631 760.607 117.823 755.682 110.496H755.673ZM719.362 166.649C717.784 174.987 714.645 182.833 709.919 190.198C707.262 194.348 703.887 198.412 699.813 202.411C694.481 195.406 690.095 187.825 686.654 179.657C683.204 171.499 680.982 163.18 679.999 154.71C679.006 146.24 679.309 137.836 680.878 129.498C682.447 121.16 685.595 113.314 690.322 105.949C693.063 101.667 696.476 97.536 700.55 93.5372C705.873 100.542 710.231 108.105 713.615 116.225C716.999 124.346 719.192 132.693 720.204 141.277C721.215 149.86 720.932 158.311 719.362 166.649Z" fill="#CB9C5F"/>
</mask>
<g mask="url(#mask3_202_2588)">
<rect x="700.527" y="71.3561" width="111.856" height="172.19" fill="url(#paint11_linear_202_2588)"/>
<rect x="700.527" y="243.546" width="111.856" height="172.19" transform="rotate(-180 700.527 243.546)" fill="url(#paint12_linear_202_2588)"/>
</g>
<mask id="mask4_202_2588" style="mask-type:alpha" maskUnits="userSpaceOnUse" x="491" y="0" width="141" height="221">
<path d="M616.859 0L553.682 37.4257L568.94 52.9198V84.1536C567.663 84.1536 566.397 84.1158 565.12 84.0307C563.844 83.955 562.577 83.9078 561.301 83.9078C549.059 83.9078 538.528 85.6945 529.708 89.2678C520.888 92.8412 513.619 97.6529 507.89 103.694C502.171 109.734 497.954 116.73 495.251 124.671C492.547 132.621 491.195 140.968 491.195 149.703C491.195 162.418 494.211 175.132 500.252 187.847C506.292 200.562 515.349 211.613 527.43 220.981L572.012 194.275L587.742 220.981L631.369 194.758L616.83 180.218V0H616.859ZM568.94 182.147C562.738 179.443 556.896 176.03 551.413 171.899C545.93 167.768 541.081 163.079 536.874 157.833C532.658 152.586 529.321 146.952 526.863 140.902C524.395 134.861 523.166 128.584 523.166 122.071C523.166 116.512 524.197 110.944 526.267 105.386L568.94 126.126V182.156V182.147Z" fill="#CB9C5F"/>
</mask>
<g mask="url(#mask4_202_2588)">
<rect x="488.776" y="-2.71167" width="79.9939" height="226.423" fill="url(#paint13_linear_202_2588)"/>
<rect x="491.488" y="-3.38953" width="102.365" height="226.423" fill="url(#paint14_linear_202_2588)"/>
<rect x="593.175" y="-5.42334" width="41.3528" height="226.423" fill="url(#paint15_linear_202_2588)"/>
<path d="M592.836 48.1319L616.902 0L546.738 35.5905L592.836 48.1319Z" fill="url(#paint16_linear_202_2588)"/>
<path d="M568.092 178.969L572.159 194.561L570.803 197.612C567.527 198.516 560.974 200.188 560.974 199.646C560.974 199.103 565.719 185.636 568.092 178.969Z" fill="#B9670D"/>
<path d="M534.874 184.732L527.078 223.373L572.498 194.561L534.874 184.732Z" fill="url(#paint17_linear_202_2588)"/>
<path d="M593.853 190.494L587.752 221L634.189 195.239L593.853 190.494Z" fill="url(#paint18_linear_202_2588)"/>
<path d="M516.91 92.8743C497.928 127.855 520.977 168.462 534.875 184.393L525.384 229.474C509.34 210.831 479.421 165.818 488.099 134.905C496.776 103.992 510.922 94.0041 516.91 92.8743Z" fill="url(#paint19_linear_202_2588)"/>
</g>
<path d="M441.603 120.993C445.895 124.888 449.629 130.172 452.805 136.846L493.814 112.532C490.155 104.904 485.589 98.3903 480.106 92.983C474.623 87.5851 467.751 83.766 459.479 81.535L420.617 104.658L406.55 81.2892L362.923 107.276L377.462 121.816V188.329L357.44 214.789H445.649L425.381 188.329V115.151C431.894 115.151 437.302 117.098 441.594 120.993H441.603Z" fill="#CB9C5F"/>
<mask id="mask5_202_2588" style="mask-type:alpha" maskUnits="userSpaceOnUse" x="357" y="81" width="137" height="134">
<path d="M441.603 120.993C445.895 124.888 449.629 130.172 452.805 136.846L493.814 112.532C490.155 104.904 485.589 98.3903 480.106 92.983C474.623 87.5851 467.751 83.766 459.479 81.535L420.617 104.658L406.55 81.2892L362.923 107.276L377.462 121.816V188.329L357.44 214.789H445.649L425.381 188.329V115.151C431.894 115.151 437.302 117.098 441.594 120.993H441.603Z" fill="#CB9C5F"/>
</mask>
<g mask="url(#mask5_202_2588)">
<rect x="357.261" y="96.9417" width="41.3528" height="118.635" fill="url(#paint20_linear_202_2588)"/>
<rect x="397.936" y="81.3497" width="95.5859" height="134.227" fill="url(#paint21_linear_202_2588)"/>
<path d="M397.936 113.212L406.749 80.6718L355.227 105.755L397.936 113.212Z" fill="url(#paint22_linear_202_2588)"/>
<path d="M398.489 191.451L355.905 215.577L447.424 215.577L398.489 191.451Z" fill="url(#paint23_linear_202_2588)"/>
<rect x="441.322" y="80.1754" width="31.862" height="58.3006" transform="rotate(-33.979 441.322 80.1754)" fill="url(#paint24_linear_202_2588)"/>
<path d="M460.982 109.483L452.847 137.956L496.572 112.873L460.982 109.483Z" fill="url(#paint25_linear_202_2588)"/>
</g>
<path d="M340.547 63.5453C335.612 56.2284 329.193 50.0365 321.309 44.9695C313.416 39.9025 305.144 36.6789 296.504 35.2893C287.863 33.8997 279.403 34.136 271.122 35.9983C262.84 37.8606 255.079 41.2827 247.829 46.2646C240.578 51.2371 234.461 57.6086 229.48 65.3698C224.498 73.131 221.265 81.3365 219.762 90.0052C218.258 98.6739 218.391 107.163 220.14 115.463C221.898 123.763 225.207 131.553 230.075 138.832C234.944 146.101 241.325 152.274 249.218 157.341C257.112 162.408 265.412 165.651 274.118 167.088C282.825 168.525 291.323 168.307 299.604 166.445C307.886 164.583 315.647 161.16 322.897 156.179C330.148 151.197 336.264 144.835 341.246 137.073C346.219 129.312 349.461 121.097 350.964 112.438C352.467 103.769 352.335 95.2896 350.586 86.9801C348.828 78.6801 345.481 70.8716 340.556 63.5453H340.547ZM304.237 119.698C302.658 128.036 299.519 135.882 294.793 143.246C292.136 147.396 288.761 151.461 284.687 155.46C279.355 148.455 274.969 140.874 271.528 132.706C268.078 124.548 265.856 116.229 264.873 107.759C263.88 99.2884 264.183 90.8843 265.752 82.5465C267.321 74.2087 270.469 66.3624 275.196 58.9983C277.937 54.7159 281.35 50.5848 285.424 46.586C290.747 53.591 295.105 61.1536 298.489 69.274C301.873 77.3944 304.066 85.7417 305.078 94.3254C306.089 102.909 305.806 111.36 304.237 119.698Z" fill="#CB9C5F"/>
<mask id="mask6_202_2588" style="mask-type:alpha" maskUnits="userSpaceOnUse" x="218" y="34" width="135" height="135">
<path d="M340.547 63.5453C335.612 56.2284 329.193 50.0365 321.309 44.9695C313.416 39.9025 305.144 36.6789 296.504 35.2893C287.863 33.8997 279.403 34.136 271.122 35.9983C262.84 37.8606 255.079 41.2827 247.829 46.2646C240.578 51.2371 234.461 57.6086 229.48 65.3698C224.498 73.131 221.265 81.3365 219.762 90.0052C218.258 98.6739 218.391 107.163 220.14 115.463C221.898 123.763 225.207 131.553 230.075 138.832C234.944 146.101 241.325 152.274 249.218 157.341C257.112 162.408 265.412 165.651 274.118 167.088C282.825 168.525 291.323 168.307 299.604 166.445C307.886 164.583 315.647 161.16 322.897 156.179C330.148 151.197 336.264 144.835 341.246 137.073C346.219 129.312 349.461 121.097 350.964 112.438C352.467 103.769 352.335 95.2896 350.586 86.9801C348.828 78.6801 345.481 70.8716 340.556 63.5453H340.547ZM304.237 119.698C302.658 128.036 299.519 135.882 294.793 143.246C292.136 147.396 288.761 151.461 284.687 155.46C279.355 148.455 274.969 140.874 271.528 132.706C268.078 124.548 265.856 116.229 264.873 107.759C263.88 99.2884 264.183 90.8843 265.752 82.5465C267.321 74.2087 270.469 66.3624 275.196 58.9983C277.937 54.7159 281.35 50.5848 285.424 46.586C290.747 53.591 295.105 61.1536 298.489 69.274C301.873 77.3944 304.066 85.7417 305.078 94.3254C306.089 102.909 305.806 111.36 304.237 119.698Z" fill="#CB9C5F"/>
</mask>
<g mask="url(#mask6_202_2588)">
<rect x="285.402" y="24.4049" width="111.856" height="172.19" fill="url(#paint26_linear_202_2588)"/>
<rect x="285.402" y="196.595" width="111.856" height="172.19" transform="rotate(-180 285.402 196.595)" fill="url(#paint27_linear_202_2588)"/>
</g>
<path d="M261.148 188.518L241.258 214.808H329.467L309.332 188.518H261.148Z" fill="#CB9C5F"/>
<mask id="mask7_202_2588" style="mask-type:alpha" maskUnits="userSpaceOnUse" x="241" y="188" width="89" height="27">
<path d="M261.148 188.518L241.258 214.808H329.467L309.332 188.518H261.148Z" fill="#CB9C5F"/>
</mask>
<g mask="url(#mask7_202_2588)">
<rect x="282.69" y="176.936" width="61.0123" height="48.8098" fill="url(#paint28_linear_202_2588)"/>
<rect x="282.69" y="225.745" width="61.0123" height="48.8098" transform="rotate(-180 282.69 225.745)" fill="url(#paint29_linear_202_2588)"/>
<path d="M283.116 198.629L238.625 215.916L333.872 216.255L283.116 198.629Z" fill="url(#paint30_linear_202_2588)"/>
</g>
<path d="M202.405 50.547L222.673 24.0776H134.464L154.25 50.3012L114.433 113.724L50.547 12.3933L5.01027 39.5716L20.0222 54.593V188.339L0 214.808H63.6587L43.3908 188.339V86.5453L99.657 174.754L154.486 87.7364V188.339L134.464 214.808H222.673L202.405 188.339V50.547Z" fill="#CB9C5F"/>
<mask id="mask8_202_2588" style="mask-type:alpha" maskUnits="userSpaceOnUse" x="0" y="12" width="223" height="203">
<path d="M202.405 50.547L222.673 24.0776H134.464L154.25 50.3012L114.433 113.724L50.547 12.3933L5.01027 39.5716L20.0222 54.593V188.339L0 214.808H63.6587L43.3908 188.339V86.5453L99.657 174.754L154.486 87.7364V188.339L134.464 214.808H222.673L202.405 188.339V50.547Z" fill="#CB9C5F"/>
</mask>
<g mask="url(#mask8_202_2588)">
<rect x="178.969" y="12.2024" width="59.6564" height="202.696" fill="url(#paint31_linear_202_2588)"/>
<rect x="-3.38965" y="12.2024" width="183.037" height="202.696" fill="url(#paint32_linear_202_2588)"/>
<rect x="25.2866" y="14.2362" width="178.144" height="45.3873" transform="rotate(57.237 25.2866 14.2362)" fill="url(#paint33_linear_202_2588)"/>
<path d="M179.309 189.816L133.549 215.238H225.068L179.309 189.816Z" fill="url(#paint34_linear_202_2588)"/>
<path d="M32.2011 195.917L-13.5581 221.339H77.9603L32.2011 195.917Z" fill="url(#paint35_linear_202_2588)"/>
<path d="M178.63 48.4708L132.871 23.049H224.39L178.63 48.4708Z" fill="url(#paint36_linear_202_2588)"/>
<path d="M42.7088 41.0138L50.8438 10.1687L1.01709 39.319L42.7088 41.0138Z" fill="url(#paint37_linear_202_2588)"/>
</g>
<g clip-path="url(#clip0_202_2588)">
<path d="M841.603 14.4031C842.034 15.4747 842.207 16.4866 842.121 17.4358C842.034 18.385 841.771 19.2416 841.327 20.0057C840.878 20.7713 840.298 21.4412 839.587 22.017C838.875 22.5928 838.087 23.054 837.223 23.4008L831.998 25.5015L831.744 24.8708C831.915 24.8018 832.133 24.6951 832.395 24.5523C832.657 24.4096 832.825 24.2982 832.897 24.2213C833.045 24.0722 833.126 23.9075 833.147 23.7239C833.165 23.5404 833.132 23.3427 833.048 23.1293L829.387 14.0313C829.306 13.8305 829.199 13.6626 829.067 13.5308C828.936 13.399 828.749 13.3253 828.509 13.3112C828.289 13.2955 828.065 13.3112 827.836 13.3551C827.605 13.399 827.412 13.4461 827.252 13.4963L826.998 12.8656L832.506 10.6503C833.264 10.3459 834.058 10.1624 834.886 10.1012C835.715 10.04 836.482 10.098 837.186 10.2753C838.139 10.5044 838.997 10.9609 839.761 11.645C840.525 12.329 841.139 13.2484 841.603 14.4031ZM839.424 15.2738C839.083 14.4282 838.663 13.7081 838.164 13.115C837.663 12.522 837.095 12.0576 836.459 11.7234C835.854 11.4018 835.199 11.2229 834.493 11.1837C833.785 11.1445 833.068 11.2716 832.339 11.565C832.095 11.6622 831.824 11.7768 831.523 11.9086C831.222 12.0403 830.997 12.1392 830.851 12.2035L834.745 21.8883C834.962 22.4265 835.269 22.7371 835.666 22.8171C836.063 22.8987 836.587 22.8077 837.24 22.5457C837.991 22.2429 838.595 21.846 839.052 21.3533C839.507 20.8607 839.814 20.3069 839.974 19.6934C840.142 19.0486 840.178 18.3662 840.084 17.6429C839.99 16.9212 839.77 16.1305 839.425 15.2723L839.424 15.2738Z" fill="#9A9A9A"/>
<path d="M852.721 16.4191C852.51 17.2444 852.134 17.9504 851.591 18.5387C851.048 19.1271 850.358 19.5208 849.52 19.7201C848.781 19.8958 848.102 19.9193 847.485 19.7907C846.867 19.662 846.324 19.4173 845.858 19.0565C845.391 18.6956 844.998 18.2375 844.68 17.6837C844.362 17.1298 844.123 16.5195 843.965 15.8559C843.823 15.2597 843.778 14.6526 843.831 14.0328C843.883 13.4131 844.038 12.8295 844.296 12.2835C844.545 11.7579 844.9 11.2982 845.359 10.9029C845.819 10.5075 846.376 10.233 847.029 10.0776C847.7 9.91761 848.299 9.88623 848.827 9.9835C849.355 10.0808 849.812 10.2769 850.198 10.5718C850.567 10.8511 850.877 11.2104 851.128 11.6497C851.381 12.089 851.572 12.5847 851.704 13.137L851.85 13.752L845.767 15.2001C845.912 15.8041 846.098 16.3375 846.33 16.8019C846.563 17.2663 846.847 17.6554 847.184 17.9692C847.512 18.272 847.896 18.4822 848.337 18.5968C848.778 18.7129 849.269 18.705 849.809 18.5764C850.361 18.4446 850.807 18.2014 851.145 17.8468C851.484 17.4923 851.76 16.9337 851.972 16.1712L852.719 16.416L852.721 16.4191ZM849.828 13.4068C849.744 13.0601 849.627 12.6961 849.475 12.3133C849.321 11.9305 849.148 11.623 848.954 11.3877C848.743 11.1366 848.492 10.9515 848.201 10.8307C847.909 10.7099 847.568 10.6974 847.178 10.7899C846.525 10.9452 846.048 11.3453 845.745 11.9901C845.442 12.6349 845.388 13.4445 845.581 14.4188L849.828 13.4068Z" fill="#9A9A9A"/>
<path d="M859.582 13.137C859.869 13.3331 860.101 13.5716 860.279 13.8524C860.454 14.1333 860.569 14.4894 860.622 14.9193C860.729 15.7869 860.492 16.5368 859.912 17.1691C859.33 17.8013 858.523 18.1794 857.491 18.3081C856.946 18.3756 856.432 18.3395 855.949 18.1998C855.465 18.0602 855.116 17.9206 854.897 17.7794L854.784 18.4211L854.072 18.5089L853.575 15.2613L854.231 15.1797C854.312 15.4213 854.455 15.6974 854.661 16.0081C854.866 16.3187 855.103 16.5917 855.37 16.8302C855.652 17.0796 855.977 17.2789 856.346 17.4264C856.714 17.5738 857.114 17.6225 857.546 17.5691C858.154 17.4938 858.606 17.2977 858.901 16.9792C859.196 16.6607 859.312 16.2434 859.248 15.7273C859.215 15.4605 859.135 15.2378 859.006 15.0573C858.878 14.8769 858.704 14.7263 858.482 14.6055C858.255 14.4863 857.982 14.3858 857.663 14.3058C857.345 14.2258 856.992 14.1521 856.604 14.0846C856.295 14.0328 855.95 13.9513 855.566 13.8414C855.183 13.7316 854.847 13.5873 854.562 13.41C854.256 13.2233 853.994 12.9785 853.777 12.6773C853.559 12.3761 853.424 12.0074 853.371 11.5697C853.277 10.8025 853.481 10.1184 853.986 9.51598C854.491 8.91352 855.221 8.55268 856.178 8.43501C856.545 8.38951 856.926 8.39108 857.321 8.43815C857.717 8.48521 858.043 8.56052 858.3 8.66407L858.457 8.14319L859.141 8.05847L859.656 11.0535L859 11.1351C858.784 10.4777 858.429 9.96469 857.936 9.59599C857.444 9.2273 856.881 9.08139 856.247 9.15984C855.727 9.22416 855.335 9.40459 855.07 9.70425C854.805 10.0023 854.695 10.3365 854.741 10.7068C854.777 10.9923 854.854 11.2229 854.976 11.4018C855.098 11.5791 855.265 11.7234 855.478 11.8317C855.683 11.9352 855.938 12.0247 856.239 12.1C856.54 12.1753 856.912 12.2568 857.354 12.3431C857.789 12.4247 858.203 12.5314 858.595 12.6632C858.988 12.795 859.317 12.9534 859.585 13.1386L859.582 13.137Z" fill="#9A9A9A"/>
<path d="M866.668 17.4373L862.112 17.5957L862.09 16.9634C862.236 16.9462 862.387 16.9274 862.544 16.9085C862.699 16.8897 862.834 16.8599 862.948 16.8175C863.124 16.7532 863.254 16.6497 863.334 16.5022C863.416 16.3563 863.452 16.168 863.444 15.939L863.242 10.1183C863.234 9.91438 863.182 9.72925 863.083 9.56451C862.984 9.39821 862.851 9.26172 862.68 9.15346C862.556 9.08129 862.379 9.02167 862.147 8.97618C861.914 8.93068 861.703 8.90401 861.511 8.89773L861.489 8.26546L864.812 7.93913L864.95 8.06778L865.219 15.7617C865.226 15.9845 865.275 16.168 865.366 16.3124C865.457 16.4567 865.595 16.5602 865.782 16.623C865.923 16.6748 866.061 16.7171 866.196 16.7469C866.331 16.7767 866.48 16.7956 866.645 16.8034L866.667 17.4357L866.668 17.4373ZM865.008 4.20515C865.021 4.56914 864.913 4.89076 864.682 5.17002C864.453 5.44929 864.161 5.5952 863.811 5.60775C863.486 5.61873 863.199 5.49949 862.951 5.25004C862.704 5.00058 862.573 4.70877 862.562 4.37773C862.55 4.0263 862.66 3.71722 862.889 3.4458C863.119 3.17595 863.397 3.03475 863.722 3.02377C864.086 3.01122 864.389 3.12418 864.63 3.36108C864.872 3.59799 864.997 3.88039 865.01 4.20515H865.008Z" fill="#9A9A9A"/>
<path d="M875.655 16.8882C875.895 17.1471 876.078 17.4326 876.206 17.748C876.333 18.0633 876.383 18.4462 876.353 18.8996C876.325 19.3514 876.199 19.7703 875.976 20.1563C875.754 20.5422 875.432 20.8685 875.013 21.1368C874.568 21.4098 874.044 21.6091 873.44 21.7377C872.837 21.8664 872.098 21.9024 871.226 21.8475C869.798 21.7581 868.745 21.482 868.064 21.0191C867.384 20.5579 867.068 19.9256 867.118 19.1223C867.159 18.4728 867.446 17.9755 867.98 17.6319C868.513 17.2883 869.175 17.1251 869.968 17.1424L869.975 17.009C869.787 16.94 869.594 16.8553 869.396 16.7564C869.197 16.6576 869.029 16.5462 868.89 16.4223C868.733 16.2779 868.609 16.1116 868.518 15.9234C868.427 15.7351 868.391 15.5076 868.408 15.2393C868.43 14.902 868.568 14.5992 868.825 14.3294C869.083 14.0611 869.459 13.8399 869.957 13.6673L869.966 13.5245C869.373 13.1997 868.921 12.8012 868.612 12.3306C868.303 11.8599 868.166 11.3281 868.204 10.7366C868.261 9.84387 868.639 9.13316 869.342 8.6013C870.043 8.06945 870.914 7.83725 871.952 7.90157C872.239 7.9204 872.522 7.9659 872.803 8.04121C873.082 8.11651 873.366 8.20751 873.653 8.31576L876.941 8.52286L876.883 9.44067L874.666 9.30103L874.663 9.35908C874.881 9.64776 875.038 9.96154 875.132 10.3004C875.227 10.6393 875.263 10.9672 875.244 11.2857C875.192 12.1141 874.811 12.7934 874.103 13.3253C873.394 13.8555 872.594 14.094 871.703 14.0375L870.546 13.9654C870.396 14.0077 870.237 14.0893 870.07 14.2133C869.902 14.3372 869.811 14.5145 869.797 14.7435C869.782 14.9789 869.837 15.164 869.963 15.2958C870.088 15.4292 870.245 15.5233 870.434 15.5798C870.616 15.6425 870.827 15.688 871.072 15.7163C871.317 15.7445 871.569 15.7696 871.83 15.7931C872.109 15.8167 872.492 15.8606 872.978 15.9234C873.463 15.9861 873.808 16.0269 874.012 16.0457C874.304 16.0771 874.594 16.165 874.883 16.3109C875.172 16.4568 875.429 16.6498 875.658 16.8882H875.655ZM874.764 19.1537C874.786 18.796 874.721 18.4979 874.571 18.2595C874.42 18.0194 874.177 17.8484 873.846 17.7433C873.669 17.7072 873.305 17.6554 872.752 17.588C872.2 17.5205 871.557 17.464 870.824 17.4185C870.128 17.5095 869.624 17.7025 869.315 18.0006C869.006 18.2971 868.835 18.694 868.803 19.1914C868.789 19.4142 868.824 19.6307 868.907 19.8409C868.99 20.0511 869.144 20.2488 869.368 20.4355C869.58 20.6159 869.872 20.7697 870.241 20.8983C870.609 21.027 871.066 21.1086 871.607 21.1431C872.544 21.2027 873.292 21.0678 873.854 20.743C874.415 20.4167 874.718 19.888 874.765 19.1553L874.764 19.1537ZM873.427 11.1351C873.474 10.3898 873.36 9.78582 873.085 9.32457C872.81 8.86331 872.399 8.61386 871.85 8.57934C871.551 8.56051 871.29 8.60601 871.069 8.7174C870.848 8.82879 870.663 8.99353 870.515 9.21474C870.374 9.41713 870.267 9.66502 870.195 9.95683C870.123 10.2502 870.076 10.553 870.057 10.8637C870.013 11.5712 870.131 12.158 870.412 12.6224C870.692 13.0884 871.078 13.3362 871.569 13.3676C872.117 13.4021 872.553 13.2076 872.878 12.7824C873.203 12.3588 873.385 11.8081 873.429 11.1335L873.427 11.1351Z" fill="#9A9A9A"/>
<path d="M887.279 20.0087L882.753 19.105L882.876 18.4853C883.022 18.501 883.184 18.5214 883.358 18.5418C883.532 18.5638 883.68 18.5669 883.801 18.5512C883.987 18.5293 884.136 18.4571 884.249 18.3331C884.362 18.2092 884.441 18.0351 884.486 17.8091L885.437 13.0475C885.569 12.3902 885.514 11.852 885.275 11.4331C885.037 11.0142 884.693 10.7601 884.248 10.6706C883.915 10.6047 883.6 10.5953 883.303 10.644C883.007 10.6926 882.737 10.7695 882.494 10.8777C882.258 10.9797 882.062 11.1021 881.907 11.2433C881.752 11.3845 881.635 11.5006 881.559 11.5884L880.495 16.9133C880.453 17.1267 880.46 17.3102 880.522 17.4655C880.581 17.6209 880.693 17.7542 880.853 17.864C880.972 17.9535 881.105 18.0288 881.251 18.09C881.399 18.1527 881.552 18.2061 881.712 18.25L881.588 18.8697L877.053 17.9645L877.177 17.3447C877.323 17.3604 877.475 17.3777 877.63 17.3965C877.785 17.4153 877.923 17.4169 878.044 17.4012C878.231 17.3793 878.38 17.3071 878.493 17.1831C878.606 17.0592 878.684 16.8851 878.73 16.6591L879.87 10.9468C879.913 10.735 879.907 10.5294 879.852 10.3333C879.797 10.1372 879.699 9.9662 879.558 9.8203C879.455 9.72146 879.324 9.6383 879.169 9.57241C879.014 9.50495 878.843 9.4469 878.658 9.39669L878.782 8.77698L881.902 9.18489L882.007 9.34335L881.747 10.6487L881.794 10.6581C881.974 10.5373 882.197 10.3961 882.465 10.2313C882.732 10.0666 882.98 9.93796 883.206 9.84697C883.468 9.74342 883.768 9.67282 884.108 9.63673C884.447 9.60065 884.817 9.62261 885.217 9.70263C886.107 9.87991 886.709 10.2894 887.028 10.9279C887.346 11.5681 887.414 12.3478 887.229 13.2687L886.267 18.0853C886.223 18.3049 886.226 18.4885 886.273 18.6391C886.322 18.7881 886.428 18.9199 886.595 19.0313C886.733 19.1239 886.854 19.1945 886.959 19.24C887.064 19.287 887.211 19.3357 887.403 19.3874L887.279 20.0072V20.0087Z" fill="#9A9A9A"/>
<path d="M900.636 24.8472C900.317 24.8346 900.039 24.8158 899.804 24.7923C899.569 24.7688 899.318 24.7029 899.053 24.5946C898.591 24.4063 898.268 24.149 898.081 23.8211C897.895 23.4932 897.848 23.1073 897.939 22.6617L897.885 22.6398C897.327 22.908 896.782 23.0649 896.251 23.1104C895.719 23.1559 895.143 23.0508 894.522 22.7982C893.866 22.5299 893.408 22.1095 893.149 21.5352C892.89 20.961 892.893 20.3492 893.158 19.6981C893.296 19.3608 893.466 19.0784 893.67 18.8509C893.872 18.6234 894.112 18.4414 894.388 18.3065C894.608 18.1888 894.868 18.1103 895.166 18.0711C895.466 18.0319 895.738 18.0131 895.985 18.0178C896.293 18.0256 896.908 18.0601 897.832 18.1198C898.756 18.1794 899.392 18.1904 899.737 18.1527L900.094 17.2757C900.126 17.1988 900.17 17.0451 900.226 16.8129C900.283 16.5807 900.298 16.3453 900.272 16.1069C900.242 15.8401 900.154 15.5813 900.003 15.3302C899.854 15.0792 899.581 14.8737 899.186 14.7121C898.915 14.6007 898.643 14.5442 898.372 14.5395C898.1 14.5364 897.898 14.5646 897.761 14.6274C897.713 14.7451 897.67 14.9317 897.633 15.1843C897.595 15.4385 897.536 15.6613 897.457 15.8574C897.372 16.0645 897.203 16.2151 896.946 16.3108C896.69 16.4065 896.396 16.3861 896.065 16.2512C895.77 16.1304 895.595 15.9374 895.543 15.6707C895.49 15.404 895.516 15.1404 895.623 14.8815C895.734 14.6101 895.937 14.3889 896.23 14.2195C896.524 14.05 896.864 13.9292 897.25 13.8602C897.584 13.8037 897.962 13.7943 898.387 13.8335C898.813 13.8727 899.205 13.9653 899.566 14.1128C900.063 14.3152 900.48 14.5254 900.822 14.7451C901.164 14.9631 901.44 15.2471 901.649 15.5938C901.861 15.9358 901.969 16.3265 901.972 16.7658C901.975 17.2051 901.856 17.7197 901.616 18.3112C901.271 19.1568 900.957 19.902 900.672 20.5484C900.388 21.1948 900.088 21.9039 899.771 22.679C899.677 22.9096 899.643 23.1089 899.666 23.2783C899.691 23.4462 899.766 23.6125 899.894 23.7741C899.961 23.8635 900.088 23.9498 900.278 24.0345C900.468 24.1192 900.662 24.2024 900.863 24.284L900.631 24.8519L900.636 24.8472ZM899.451 18.9026C898.888 18.8462 898.389 18.8116 897.953 18.7991C897.517 18.7865 897.092 18.8211 896.68 18.9011C896.302 18.9826 895.971 19.1254 895.689 19.3309C895.405 19.5365 895.185 19.8283 895.032 20.208C894.831 20.699 894.812 21.1132 894.975 21.449C895.138 21.7847 895.417 22.0342 895.813 22.1958C896.232 22.3668 896.644 22.4154 897.046 22.3417C897.449 22.2679 897.816 22.1361 898.149 21.9463L899.453 18.9026H899.451Z" fill="#9A9A9A"/>
<path d="M910.114 30.3807L906.105 28.0932L906.419 27.5441C906.552 27.6053 906.7 27.6743 906.858 27.7512C907.017 27.8265 907.157 27.8767 907.274 27.9002C907.458 27.9395 907.622 27.9175 907.768 27.8359C907.914 27.7543 908.045 27.6131 908.159 27.4139L910.566 23.1983C910.898 22.6162 911.018 22.089 910.922 21.6152C910.828 21.143 910.583 20.7931 910.188 20.5672C909.893 20.3993 909.598 20.2911 909.301 20.2424C909.005 20.1938 908.724 20.1828 908.459 20.2079C908.203 20.2315 907.979 20.2848 907.786 20.3695C907.593 20.4542 907.447 20.528 907.346 20.5876L904.654 25.3037C904.546 25.492 904.497 25.6693 904.505 25.8356C904.513 26.0019 904.576 26.1619 904.693 26.3172C904.778 26.4396 904.88 26.5526 905.001 26.6577C905.12 26.7628 905.25 26.8616 905.387 26.9558L905.073 27.5049L901.057 25.2127L901.37 24.6636C901.504 24.7248 901.642 24.7891 901.785 24.8566C901.927 24.9225 902.058 24.968 902.175 24.9915C902.359 25.0307 902.524 25.0088 902.669 24.9272C902.815 24.8456 902.946 24.7044 903.059 24.5051L905.947 19.447C906.054 19.2587 906.113 19.0626 906.123 18.8587C906.132 18.6547 906.093 18.4617 906.007 18.2797C905.939 18.1527 905.842 18.0334 905.715 17.9205C905.588 17.8075 905.445 17.6977 905.285 17.5926L905.599 17.0435L908.43 18.4178L908.481 18.6014L907.82 19.7577L907.861 19.7812C908.07 19.7247 908.327 19.6604 908.633 19.5882C908.939 19.516 909.213 19.4737 909.457 19.458C909.737 19.4423 910.045 19.4705 910.377 19.5427C910.71 19.6149 911.055 19.7529 911.41 19.9553C912.197 20.404 912.64 20.983 912.74 21.6905C912.839 22.3981 912.657 23.159 912.193 23.9749L909.758 28.2407C909.646 28.4352 909.591 28.611 909.59 28.7678C909.588 28.9247 909.65 29.0832 909.772 29.2417C909.874 29.3734 909.966 29.477 910.051 29.5554C910.136 29.6323 910.26 29.7264 910.426 29.8347L910.112 30.3838L910.114 30.3807Z" fill="#9A9A9A"/>
<path d="M918.96 37.0014L916.222 35.1423L916.19 34.9478L916.73 34.2527L916.682 34.19C916.192 34.2794 915.682 34.2669 915.153 34.1539C914.623 34.0409 914.154 33.826 913.746 33.5106C913.323 33.1827 912.988 32.7701 912.739 32.2744C912.491 31.7786 912.353 31.2452 912.328 30.6756C912.301 30.0967 912.391 29.4958 912.596 28.8714C912.802 28.247 913.134 27.6398 913.592 27.0515C914.011 26.5118 914.502 26.0725 915.064 25.7336C915.626 25.3947 916.212 25.1704 916.821 25.0621C917.391 24.9633 917.976 24.9852 918.578 25.1296C919.181 25.2739 919.713 25.5265 920.177 25.8858C920.524 26.1556 920.831 26.4647 921.098 26.813C921.365 27.1613 921.566 27.4971 921.702 27.8218L923.721 25.2221C923.886 25.0103 924 24.7891 924.065 24.5601C924.129 24.331 924.134 24.1223 924.079 23.9325C924.013 23.727 923.877 23.5105 923.669 23.2814C923.464 23.0524 923.23 22.8202 922.968 22.5848L923.332 22.1157L926.517 24.3216L926.542 24.5224L918.735 34.5744C918.599 34.7501 918.516 34.9274 918.487 35.1031C918.459 35.2788 918.478 35.4608 918.542 35.6491C918.591 35.784 918.701 35.9299 918.87 36.0852C919.04 36.2405 919.198 36.3802 919.346 36.5025L918.958 37.0014H918.96ZM917.238 33.5671L920.627 29.204C920.689 29.0424 920.732 28.8494 920.761 28.6282C920.787 28.407 920.783 28.1795 920.743 27.9489C920.695 27.7089 920.605 27.4719 920.474 27.2366C920.342 27.0013 920.146 26.7816 919.884 26.5777C919.582 26.3423 919.244 26.2058 918.867 26.1651C918.492 26.1243 918.092 26.1729 917.668 26.3141C917.264 26.4522 916.837 26.6969 916.39 27.0483C915.943 27.3998 915.514 27.8406 915.103 28.3709C914.774 28.7945 914.516 29.2103 914.328 29.6182C914.14 30.0261 914.027 30.4529 913.986 30.8984C913.942 31.3173 913.992 31.719 914.134 32.1033C914.275 32.4877 914.534 32.8266 914.912 33.12C915.313 33.4322 915.717 33.6032 916.117 33.6315C916.518 33.6597 916.892 33.6393 917.237 33.5687L917.238 33.5671Z" fill="#9A9A9A"/>
<path d="M929.657 45.5096C928.83 45.7105 928.03 45.7105 927.255 45.5081C926.482 45.3057 925.809 44.8805 925.239 44.2341C924.737 43.6646 924.397 43.0763 924.221 42.4707C924.044 41.8651 924.006 41.2705 924.106 40.69C924.207 40.1079 924.427 39.5462 924.765 39.005C925.104 38.4637 925.531 37.9664 926.042 37.5145C926.502 37.1097 927.018 36.785 927.589 36.5402C928.16 36.2955 928.749 36.159 929.353 36.1292C929.933 36.1025 930.506 36.1998 931.071 36.421C931.636 36.6422 932.141 37.0046 932.583 37.5067C933.04 38.0244 933.349 38.539 933.51 39.0505C933.672 39.5635 933.714 40.0577 933.634 40.5378C933.561 40.9943 933.388 41.4368 933.12 41.8651C932.852 42.2934 932.503 42.695 932.076 43.0716L931.603 43.4889L927.467 38.7979C927.001 39.2089 926.618 39.6247 926.317 40.0483C926.016 40.4719 925.806 40.9049 925.686 41.3505C925.573 41.7819 925.569 42.2212 925.674 42.6636C925.779 43.1076 926.016 43.5375 926.383 43.9533C926.758 44.38 927.183 44.6593 927.655 44.7911C928.128 44.9244 928.75 44.904 929.524 44.733L929.659 45.5081L929.657 45.5096ZM930.958 41.5419C931.225 41.3066 931.491 41.0304 931.756 40.7166C932.022 40.4013 932.213 40.1032 932.329 39.8224C932.451 39.518 932.497 39.2105 932.467 38.8967C932.437 38.5829 932.288 38.2754 932.023 37.9742C931.579 37.4722 931.003 37.2384 930.291 37.2729C929.58 37.309 928.84 37.64 928.069 38.2676L930.958 41.5435V41.5419Z" fill="#9A9A9A"/>
<path d="M933.575 55.0313L931.121 51.4652L931.642 51.1075C931.832 51.3271 931.997 51.5107 932.138 51.6597C932.279 51.8072 932.405 51.8433 932.515 51.768C932.562 51.735 932.618 51.6581 932.681 51.5373C932.745 51.4165 932.8 51.3004 932.849 51.189C932.963 50.9161 933.114 50.5458 933.301 50.0798C933.487 49.6139 933.707 49.0491 933.958 48.3886C933.428 48.3493 932.921 48.3258 932.438 48.3164C931.954 48.307 931.445 48.3007 930.908 48.2976C930.83 48.2976 930.739 48.3038 930.632 48.318C930.527 48.3336 930.448 48.3572 930.401 48.3886C930.285 48.4686 930.241 48.6098 930.268 48.8122C930.295 49.0145 930.398 49.275 930.579 49.5935L930.073 49.9402L928.092 47.0613L928.581 46.7255C928.933 47.0111 929.257 47.2103 929.559 47.3264C929.858 47.4409 930.182 47.5147 930.53 47.5476C930.853 47.5649 931.3 47.5931 931.871 47.6323C932.442 47.6716 933.203 47.7029 934.156 47.7312C934.353 47.1993 934.596 46.5498 934.884 45.7826C935.171 45.0154 935.411 44.38 935.604 43.8748C935.709 43.6003 935.764 43.332 935.765 43.0716C935.767 42.8095 935.659 42.5193 935.437 42.1977L935.958 41.84L938.287 45.2241L937.766 45.5818C937.65 45.4139 937.526 45.2555 937.394 45.108C937.26 44.9589 937.157 44.9119 937.083 44.9621C937.036 44.995 936.994 45.0468 936.958 45.1174C936.922 45.1896 936.885 45.2712 936.849 45.3653C936.751 45.6038 936.598 45.974 936.393 46.4745C936.187 46.975 935.974 47.51 935.754 48.0795C936.134 48.0905 936.576 48.103 937.082 48.1156C937.587 48.1297 938.062 48.1344 938.509 48.1297C938.561 48.125 938.621 48.114 938.691 48.0983C938.76 48.081 938.822 48.0544 938.875 48.0183C938.985 47.943 939.011 47.7908 938.952 47.5633C938.892 47.3358 938.82 47.1319 938.734 46.9499L939.239 46.6031L941.214 49.4742L940.725 49.8115C940.34 49.4789 939.998 49.2499 939.699 49.1228C939.399 48.9957 939.099 48.9188 938.801 48.8922C938.465 48.8671 938.059 48.8435 937.579 48.8216C937.099 48.7996 936.426 48.7682 935.561 48.729C935.218 49.6703 934.932 50.4391 934.708 51.0353C934.484 51.6315 934.247 52.2386 933.999 52.8583C933.872 53.1706 933.806 53.4655 933.801 53.7448C933.795 54.024 933.894 54.3331 934.098 54.6736L933.577 55.0313H933.575Z" fill="#9A9A9A"/>
<path d="M945.112 59.2548C944.886 59.7929 944.557 60.2903 944.126 60.7437C943.694 61.1971 943.14 61.5972 942.464 61.9423C941.799 62.2828 941.135 62.482 940.473 62.5401C939.811 62.5997 939.194 62.5448 938.622 62.3785C938.035 62.198 937.517 61.9282 937.069 61.5705C936.62 61.2128 936.262 60.7719 935.996 60.2479C935.737 59.7411 935.581 59.2987 935.53 58.9159C935.478 58.5331 935.476 58.2005 935.525 57.9181L935.49 57.8506L932.961 59.1434C932.756 59.2485 932.605 59.3756 932.509 59.5246C932.414 59.6737 932.376 59.8478 932.398 60.0439C932.417 60.2071 932.467 60.4268 932.547 60.7045C932.629 60.9821 932.707 61.2049 932.786 61.3728L932.222 61.6599L929.82 56.9626L930.384 56.6755C930.486 56.845 930.586 57.0097 930.688 57.165C930.79 57.3203 930.893 57.4537 931 57.5651C931.144 57.7063 931.304 57.7753 931.482 57.7706C931.659 57.7659 931.844 57.7141 932.037 57.6153L940.981 53.0435C941.152 52.9557 941.295 52.8301 941.411 52.6623C941.527 52.496 941.598 52.3187 941.625 52.1336C941.64 51.9971 941.62 51.8276 941.565 51.6268C941.509 51.426 941.443 51.2377 941.367 51.0604L941.931 50.7733L943.583 53.5424L943.542 53.7134L942.596 54.1967L942.613 54.2735C943.106 54.3943 943.576 54.6156 944.028 54.9372C944.48 55.2588 944.816 55.6353 945.036 56.0668C945.302 56.5892 945.437 57.1258 945.437 57.6733C945.437 58.2209 945.33 58.748 945.116 59.2517L945.112 59.2548ZM938.357 60.9555C938.826 61.0025 939.32 60.9618 939.841 60.8315C940.362 60.7013 940.909 60.4895 941.484 60.1961C941.904 59.9812 942.31 59.716 942.701 59.4023C943.092 59.0869 943.401 58.7512 943.625 58.3919C943.856 58.0295 943.994 57.6404 944.038 57.2231C944.083 56.8057 943.994 56.379 943.769 55.9413C943.554 55.5208 943.278 55.2102 942.943 55.0093C942.607 54.8085 942.255 54.6658 941.89 54.5795L936.92 57.1211C936.793 57.2513 936.676 57.416 936.571 57.6169C936.466 57.8177 936.389 58.0201 936.344 58.2225C936.292 58.4719 936.273 58.7214 936.29 58.9708C936.306 59.2203 936.391 59.4933 936.541 59.7882C936.705 60.1067 936.945 60.3703 937.263 60.5805C937.582 60.7907 937.946 60.9163 938.354 60.9586L938.357 60.9555Z" fill="#9A9A9A"/>
<path d="M943.514 72.1573C942.671 72.0397 941.926 71.7447 941.281 71.2709C940.637 70.7971 940.168 70.1554 939.876 69.3443C939.618 68.6289 939.52 67.9574 939.578 67.3298C939.636 66.7007 939.819 66.1343 940.127 65.6307C940.434 65.1271 940.845 64.6847 941.36 64.3066C941.874 63.9285 942.453 63.6225 943.097 63.3919C943.672 63.1848 944.272 63.0718 944.895 63.0546C945.516 63.0373 946.112 63.1268 946.685 63.3213C947.234 63.5096 947.731 63.8108 948.175 64.225C948.619 64.6392 948.955 65.16 949.182 65.7907C949.416 66.4387 949.513 67.0317 949.476 67.5683C949.438 68.1049 949.294 68.5802 949.043 68.996C948.806 69.3929 948.483 69.7412 948.076 70.0409C947.668 70.3406 947.198 70.5869 946.663 70.7783L946.068 70.9916L943.95 65.1083C943.367 65.3185 942.857 65.5648 942.42 65.8472C941.984 66.1296 941.63 66.456 941.355 66.8262C941.09 67.1855 940.925 67.5918 940.859 68.0421C940.794 68.494 940.855 68.9803 941.043 69.5028C941.236 70.0378 941.526 70.4535 941.917 70.75C942.308 71.0466 942.893 71.2584 943.674 71.3839L943.514 72.1542V72.1573ZM946.184 68.9474C946.52 68.8266 946.868 68.6681 947.231 68.4736C947.593 68.279 947.88 68.0719 948.094 67.8523C948.32 67.6154 948.475 67.3455 948.563 67.0427C948.651 66.7399 948.625 66.3995 948.489 66.0214C948.261 65.3907 947.811 64.9608 947.137 64.7317C946.462 64.5027 945.652 64.5388 944.705 64.8384L946.184 68.9474V68.9474Z" fill="#9A9A9A"/>
<path d="M951.284 78.7248C950.967 78.8017 950.667 78.7923 950.385 78.6966C950.102 78.6009 949.922 78.3922 949.843 78.069C949.759 77.7223 949.785 77.4352 949.92 77.2077C950.055 76.9818 950.232 76.8421 950.449 76.7888C950.585 76.7558 950.712 76.737 950.829 76.7307C950.945 76.726 951.062 76.7182 951.178 76.7103C951.108 76.4185 950.907 76.1063 950.576 75.7721C950.245 75.438 949.829 75.1869 949.33 75.0206L943.988 76.315C943.772 76.3683 943.604 76.453 943.488 76.5691C943.372 76.6852 943.301 76.8421 943.276 77.0398C943.251 77.2093 943.254 77.4211 943.282 77.6736C943.31 77.9262 943.34 78.1443 943.372 78.3263L942.757 78.4754L941.583 73.6369L942.198 73.4878C942.245 73.6275 942.294 73.7718 942.342 73.9208C942.391 74.0699 942.449 74.1954 942.513 74.2989C942.611 74.459 942.739 74.5641 942.899 74.6143C943.059 74.6645 943.251 74.6629 943.474 74.608L949.134 73.2352C949.326 73.1882 949.504 73.0972 949.669 72.9622C949.832 72.8273 949.952 72.6657 950.024 72.4775C950.069 72.341 950.09 72.1888 950.085 72.0193C950.08 71.8499 950.061 71.671 950.028 71.4812L950.643 71.3322L951.588 74.335L951.489 74.4966L950.195 74.8104L950.206 74.8575C950.802 75.1195 951.287 75.4552 951.662 75.8647C952.037 76.2726 952.272 76.6727 952.366 77.0633C952.46 77.454 952.41 77.8023 952.215 78.1098C952.021 78.4157 951.709 78.6213 951.28 78.7248H951.284Z" fill="#9A9A9A"/>
<path d="M944.016 85.7127L943.321 81.2084L943.946 81.1127C943.98 81.2555 944.016 81.4045 944.052 81.5567C944.088 81.7089 944.134 81.8391 944.19 81.9474C944.274 82.1152 944.393 82.2313 944.548 82.2941C944.703 82.3569 944.895 82.371 945.121 82.3365L950.877 81.4485C951.08 81.4171 951.257 81.3433 951.409 81.2257C951.561 81.108 951.682 80.959 951.77 80.777C951.828 80.6452 951.866 80.4616 951.883 80.2263C951.902 79.991 951.902 79.7776 951.886 79.5862L952.51 79.4905L953.226 82.7522L953.114 82.9044L945.505 84.0779C945.284 84.1125 945.108 84.1831 944.975 84.2897C944.843 84.3964 944.757 84.547 944.714 84.7384C944.678 84.8844 944.653 85.0271 944.639 85.1636C944.625 85.3001 944.623 85.4523 944.636 85.617L944.012 85.7127H944.016ZM956.961 82.5059C956.602 82.5608 956.269 82.4918 955.965 82.2957C955.661 82.1011 955.482 81.8297 955.428 81.483C955.378 81.1614 955.463 80.8617 955.683 80.5871C955.902 80.311 956.175 80.1478 956.503 80.0976C956.85 80.0443 957.172 80.1165 957.466 80.3126C957.761 80.5087 957.934 80.7691 957.984 81.0908C958.039 81.45 957.964 81.7638 957.757 82.0321C957.55 82.3004 957.285 82.4588 956.963 82.5075L956.961 82.5059Z" fill="#9A9A9A"/>
<path d="M946.895 94.8013C946.12 94.4499 945.489 93.9572 945.004 93.3203C944.519 92.6833 944.251 91.9349 944.201 91.0752C944.157 90.3174 944.251 89.6443 944.485 89.0576C944.719 88.4708 945.054 87.9797 945.492 87.5828C945.93 87.1859 946.449 86.8784 947.05 86.6618C947.651 86.4453 948.293 86.3151 948.975 86.2759C949.587 86.2398 950.193 86.301 950.793 86.461C951.394 86.6211 951.942 86.8752 952.436 87.2235C952.91 87.5608 953.301 87.9891 953.61 88.5116C953.919 89.034 954.093 89.6302 954.132 90.2986C954.173 90.9873 954.099 91.5819 953.911 92.0855C953.723 92.5891 953.45 93.0049 953.092 93.3328C952.751 93.6466 952.345 93.8898 951.868 94.0624C951.393 94.2349 950.87 94.3369 950.304 94.3698L949.673 94.4075L949.306 88.1649C948.686 88.2009 948.128 88.2935 947.631 88.441C947.133 88.5885 946.7 88.8003 946.331 89.078C945.975 89.3478 945.702 89.6898 945.513 90.104C945.323 90.5182 945.243 91.003 945.276 91.5568C945.309 92.1232 945.47 92.6048 945.76 93.0002C946.051 93.3956 946.553 93.7643 947.267 94.1063L946.895 94.7997V94.8013ZM950.365 92.4778C950.721 92.4574 951.101 92.404 951.503 92.3193C951.906 92.2346 952.24 92.1169 952.505 91.9679C952.789 91.8047 953.015 91.5898 953.184 91.323C953.354 91.0563 953.426 90.7237 953.402 90.3221C953.363 89.6522 953.053 89.1125 952.471 88.703C951.889 88.2919 951.101 88.0974 950.108 88.1178L950.364 92.4762L950.365 92.4778Z" fill="#9A9A9A"/>
<path d="M943.971 106.005L944.303 101.402L944.934 101.447C944.936 101.595 944.937 101.756 944.937 101.932C944.937 102.108 944.953 102.255 944.983 102.371C945.027 102.553 945.118 102.693 945.256 102.79C945.392 102.886 945.576 102.942 945.805 102.96L950.646 103.309C951.315 103.358 951.842 103.237 952.228 102.947C952.614 102.657 952.822 102.287 952.855 101.833C952.88 101.494 952.849 101.182 952.764 100.893C952.68 100.605 952.568 100.347 952.432 100.118C952.3 99.8971 952.156 99.7183 951.996 99.5818C951.836 99.4453 951.707 99.3449 951.61 99.279L946.194 98.8867C945.977 98.8711 945.795 98.9024 945.649 98.9824C945.504 99.0609 945.386 99.188 945.296 99.3605C945.223 99.4892 945.165 99.6304 945.122 99.7841C945.078 99.9379 945.045 100.096 945.02 100.261L944.39 100.216L944.724 95.603L945.354 95.6485C945.356 95.796 945.358 95.9482 945.359 96.1051C945.359 96.262 945.376 96.3985 945.406 96.5161C945.45 96.6981 945.541 96.8378 945.678 96.935C945.814 97.0307 945.998 97.0872 946.227 97.1045L952.036 97.5249C952.253 97.5406 952.455 97.5092 952.642 97.4292C952.83 97.3492 952.987 97.2315 953.114 97.0747C953.199 96.9586 953.265 96.8205 953.312 96.6573C953.359 96.4942 953.395 96.3184 953.422 96.127L954.052 96.1725L954.035 99.3198L953.892 99.4437L952.565 99.348L952.562 99.3951C952.703 99.5582 952.873 99.7638 953.07 100.009C953.266 100.253 953.425 100.482 953.544 100.696C953.681 100.942 953.787 101.232 953.866 101.563C953.944 101.896 953.969 102.265 953.939 102.672C953.874 103.576 953.544 104.226 952.95 104.621C952.355 105.016 951.589 105.18 950.653 105.112L945.753 104.758C945.53 104.742 945.348 104.767 945.205 104.833C945.063 104.899 944.947 105.023 944.857 105.202C944.782 105.349 944.728 105.479 944.694 105.588C944.661 105.697 944.63 105.85 944.603 106.047L943.972 106.002L943.971 106.005Z" fill="#9A9A9A"/>
<path d="M942.661 110.961C942.932 109.621 943.588 108.664 944.63 108.087C945.671 107.509 946.941 107.373 948.436 107.676C949.087 107.808 949.674 108.032 950.199 108.35C950.725 108.669 951.178 109.067 951.564 109.549C951.934 110.009 952.198 110.544 952.358 111.156C952.518 111.767 952.531 112.401 952.397 113.059C952.214 113.965 951.847 114.661 951.296 115.142C950.745 115.624 950.096 115.789 949.344 115.636C949.03 115.574 948.77 115.442 948.56 115.243C948.35 115.043 948.279 114.772 948.348 114.428C948.423 114.06 948.574 113.791 948.803 113.627C949.032 113.46 949.261 113.402 949.492 113.448C949.773 113.504 950.053 113.6 950.334 113.735C950.615 113.87 950.824 113.958 950.959 113.998C951.175 113.925 951.338 113.785 951.448 113.576C951.558 113.368 951.64 113.136 951.691 112.88C951.752 112.58 951.745 112.282 951.672 111.984C951.599 111.686 951.417 111.375 951.123 111.049C950.857 110.754 950.472 110.483 949.97 110.232C949.468 109.98 948.847 109.78 948.108 109.631C946.944 109.395 945.943 109.461 945.103 109.827C944.264 110.194 943.759 110.795 943.59 111.633C943.467 112.238 943.511 112.776 943.724 113.245C943.938 113.714 944.303 114.184 944.824 114.653L944.308 115.172C943.654 114.61 943.178 113.947 942.884 113.184C942.589 112.422 942.513 111.68 942.659 110.959L942.661 110.961Z" fill="#9A9A9A"/>
<path d="M941.564 123.751C940.97 123.142 940.562 122.453 940.342 121.683C940.122 120.914 940.144 120.119 940.409 119.3C940.643 118.576 940.976 117.985 941.407 117.524C941.839 117.062 942.33 116.727 942.88 116.516C943.431 116.306 944.027 116.209 944.666 116.225C945.304 116.24 945.949 116.353 946.599 116.565C947.182 116.755 947.724 117.033 948.226 117.4C948.728 117.767 949.145 118.203 949.478 118.707C949.796 119.193 950.005 119.734 950.104 120.334C950.201 120.933 950.148 121.551 949.941 122.188C949.729 122.844 949.443 123.373 949.084 123.773C948.726 124.173 948.32 124.461 947.868 124.637C947.437 124.807 946.969 124.885 946.464 124.871C945.959 124.858 945.435 124.764 944.895 124.588L944.294 124.394L946.222 118.445C945.632 118.253 945.079 118.136 944.561 118.093C944.043 118.049 943.563 118.09 943.119 118.214C942.689 118.336 942.311 118.556 941.983 118.873C941.655 119.19 941.406 119.612 941.235 120.141C941.059 120.68 941.035 121.189 941.161 121.662C941.288 122.136 941.621 122.662 942.162 123.241L941.564 123.751V123.751ZM945.642 122.847C945.981 122.957 946.354 123.046 946.759 123.114C947.165 123.181 947.518 123.194 947.821 123.151C948.144 123.101 948.434 122.983 948.689 122.798C948.943 122.612 949.133 122.328 949.256 121.945C949.464 121.308 949.369 120.691 948.977 120.098C948.585 119.504 947.921 119.036 946.989 118.694L945.643 122.849L945.642 122.847Z" fill="#9A9A9A"/>
</g>
<defs>
<linearGradient id="paint0_linear_202_2588" x1="799.421" y1="96.9417" x2="799.421" y2="215.577" gradientUnits="userSpaceOnUse">
<stop stop-color="#EEB14B"/>
<stop offset="1" stop-color="#B6630A"/>
</linearGradient>
<linearGradient id="paint1_linear_202_2588" x1="867.213" y1="81.3497" x2="867.213" y2="215.577" gradientUnits="userSpaceOnUse">
<stop stop-color="#B6630A"/>
<stop offset="1" stop-color="#EEB14B"/>
</linearGradient>
<linearGradient id="paint2_linear_202_2588" x1="796.031" y1="85.0782" x2="822.809" y2="116.601" gradientUnits="userSpaceOnUse">
<stop stop-color="#B76507"/>
<stop offset="1" stop-color="#EBA947"/>
</linearGradient>
<linearGradient id="paint3_linear_202_2588" x1="829.923" y1="228.828" x2="819.803" y2="188.724" gradientUnits="userSpaceOnUse">
<stop stop-color="#B76507"/>
<stop offset="1" stop-color="#EBA947"/>
</linearGradient>
<linearGradient id="paint4_linear_202_2588" x1="878.737" y1="80.1754" x2="878.737" y2="138.476" gradientUnits="userSpaceOnUse">
<stop stop-color="#E7A843"/>
<stop offset="1" stop-color="#A65F11"/>
</linearGradient>
<linearGradient id="paint5_linear_202_2588" x1="882.127" y1="108.466" x2="898.058" y2="127.787" gradientUnits="userSpaceOnUse">
<stop stop-color="#E6A642"/>
<stop offset="1" stop-color="#C57819"/>
</linearGradient>
<linearGradient id="paint6_linear_202_2588" x1="341.33" y1="24.4049" x2="341.33" y2="196.595" gradientUnits="userSpaceOnUse">
<stop stop-color="#EFB34D"/>
<stop offset="1" stop-color="#B56109"/>
</linearGradient>
<linearGradient id="paint7_linear_202_2588" x1="341.33" y1="196.595" x2="341.33" y2="368.785" gradientUnits="userSpaceOnUse">
<stop stop-color="#EFB34D"/>
<stop offset="1" stop-color="#B56109"/>
</linearGradient>
<linearGradient id="paint8_linear_202_2588" x1="313.196" y1="176.936" x2="313.196" y2="225.745" gradientUnits="userSpaceOnUse">
<stop stop-color="#B56109"/>
<stop offset="1" stop-color="#EAAC47"/>
</linearGradient>
<linearGradient id="paint9_linear_202_2588" x1="313.196" y1="225.745" x2="313.196" y2="274.555" gradientUnits="userSpaceOnUse">
<stop stop-color="#B56109"/>
<stop offset="1" stop-color="#EAAC47"/>
</linearGradient>
<linearGradient id="paint10_linear_202_2588" x1="286.418" y1="198.629" x2="286.418" y2="217.61" gradientUnits="userSpaceOnUse">
<stop stop-color="#F0B04E"/>
<stop offset="1" stop-color="#B76507"/>
</linearGradient>
<linearGradient id="paint11_linear_202_2588" x1="756.455" y1="71.3561" x2="756.455" y2="243.546" gradientUnits="userSpaceOnUse">
<stop stop-color="#EFB34D"/>
<stop offset="1" stop-color="#B56109"/>
</linearGradient>
<linearGradient id="paint12_linear_202_2588" x1="756.455" y1="243.546" x2="756.455" y2="415.736" gradientUnits="userSpaceOnUse">
<stop stop-color="#EFB34D"/>
<stop offset="1" stop-color="#B56109"/>
</linearGradient>
<linearGradient id="paint13_linear_202_2588" x1="528.773" y1="-2.71167" x2="528.773" y2="223.712" gradientUnits="userSpaceOnUse">
<stop stop-color="#B9670D"/>
<stop offset="1" stop-color="#EAAD48"/>
</linearGradient>
<linearGradient id="paint14_linear_202_2588" x1="542.671" y1="-3.38953" x2="542.671" y2="223.034" gradientUnits="userSpaceOnUse">
<stop offset="0.00312487" stop-color="#EAAD48"/>
<stop offset="0.669792" stop-color="#B9670D"/>
</linearGradient>
<linearGradient id="paint15_linear_202_2588" x1="613.851" y1="-5.42334" x2="613.851" y2="221" gradientUnits="userSpaceOnUse">
<stop stop-color="#B9670D"/>
<stop offset="1" stop-color="#EAAD48"/>
</linearGradient>
<linearGradient id="paint16_linear_202_2588" x1="573.516" y1="9.15184" x2="593.514" y2="48.1319" gradientUnits="userSpaceOnUse">
<stop stop-color="#BB6A10"/>
<stop offset="1" stop-color="#E09E3B"/>
</linearGradient>
<linearGradient id="paint17_linear_202_2588" x1="549.788" y1="184.732" x2="549.788" y2="223.373" gradientUnits="userSpaceOnUse">
<stop stop-color="#DE9B38"/>
<stop offset="1" stop-color="#B9670D"/>
</linearGradient>
<linearGradient id="paint18_linear_202_2588" x1="592.497" y1="187.782" x2="608.428" y2="209.814" gradientUnits="userSpaceOnUse">
<stop stop-color="#E7A843"/>
<stop offset="1" stop-color="#C07112"/>
</linearGradient>
<linearGradient id="paint19_linear_202_2588" x1="505.385" y1="96.6028" x2="536.908" y2="218.288" gradientUnits="userSpaceOnUse">
<stop stop-color="#D89433"/>
<stop offset="1" stop-color="#B9670D"/>
</linearGradient>
<linearGradient id="paint20_linear_202_2588" x1="377.937" y1="96.9417" x2="377.937" y2="215.577" gradientUnits="userSpaceOnUse">
<stop stop-color="#EEB14B"/>
<stop offset="1" stop-color="#B6630A"/>
</linearGradient>
<linearGradient id="paint21_linear_202_2588" x1="445.728" y1="81.3497" x2="445.728" y2="215.577" gradientUnits="userSpaceOnUse">
<stop stop-color="#B6630A"/>
<stop offset="1" stop-color="#EEB14B"/>
</linearGradient>
<linearGradient id="paint22_linear_202_2588" x1="374.548" y1="85.0782" x2="401.325" y2="116.601" gradientUnits="userSpaceOnUse">
<stop stop-color="#B76507"/>
<stop offset="1" stop-color="#EBA947"/>
</linearGradient>
<linearGradient id="paint23_linear_202_2588" x1="408.439" y1="228.828" x2="398.319" y2="188.724" gradientUnits="userSpaceOnUse">
<stop stop-color="#B76507"/>
<stop offset="1" stop-color="#EBA947"/>
</linearGradient>
<linearGradient id="paint24_linear_202_2588" x1="457.253" y1="80.1754" x2="457.253" y2="138.476" gradientUnits="userSpaceOnUse">
<stop stop-color="#E7A843"/>
<stop offset="1" stop-color="#A65F11"/>
</linearGradient>
<linearGradient id="paint25_linear_202_2588" x1="460.643" y1="108.466" x2="476.574" y2="127.787" gradientUnits="userSpaceOnUse">
<stop stop-color="#E6A642"/>
<stop offset="1" stop-color="#C57819"/>
</linearGradient>
<linearGradient id="paint26_linear_202_2588" x1="341.33" y1="24.4049" x2="341.33" y2="196.595" gradientUnits="userSpaceOnUse">
<stop stop-color="#EFB34D"/>
<stop offset="1" stop-color="#B56109"/>
</linearGradient>
<linearGradient id="paint27_linear_202_2588" x1="341.33" y1="196.595" x2="341.33" y2="368.785" gradientUnits="userSpaceOnUse">
<stop stop-color="#EFB34D"/>
<stop offset="1" stop-color="#B56109"/>
</linearGradient>
<linearGradient id="paint28_linear_202_2588" x1="313.196" y1="176.936" x2="313.196" y2="225.745" gradientUnits="userSpaceOnUse">
<stop stop-color="#B56109"/>
<stop offset="1" stop-color="#EAAC47"/>
</linearGradient>
<linearGradient id="paint29_linear_202_2588" x1="313.196" y1="225.745" x2="313.196" y2="274.555" gradientUnits="userSpaceOnUse">
<stop stop-color="#B56109"/>
<stop offset="1" stop-color="#EAAC47"/>
</linearGradient>
<linearGradient id="paint30_linear_202_2588" x1="286.418" y1="198.629" x2="286.418" y2="217.61" gradientUnits="userSpaceOnUse">
<stop stop-color="#F0B04E"/>
<stop offset="1" stop-color="#B76507"/>
</linearGradient>
<linearGradient id="paint31_linear_202_2588" x1="208.797" y1="12.2024" x2="208.797" y2="214.899" gradientUnits="userSpaceOnUse">
<stop stop-color="#F8BF57"/>
<stop offset="1" stop-color="#B05A03"/>
</linearGradient>
<linearGradient id="paint32_linear_202_2588" x1="88.1288" y1="12.2024" x2="88.1288" y2="214.899" gradientUnits="userSpaceOnUse">
<stop stop-color="#B86508"/>
<stop offset="1" stop-color="#F9BC59"/>
</linearGradient>
<linearGradient id="paint33_linear_202_2588" x1="36.6739" y1="33.496" x2="194.595" y2="25.4871" gradientUnits="userSpaceOnUse">
<stop stop-color="#E09B3A"/>
<stop offset="1" stop-color="#B76608"/>
</linearGradient>
<linearGradient id="paint34_linear_202_2588" x1="179.309" y1="189.816" x2="179.309" y2="215.238" gradientUnits="userSpaceOnUse">
<stop stop-color="#B76A0C"/>
<stop offset="1" stop-color="#B76406"/>
</linearGradient>
<linearGradient id="paint35_linear_202_2588" x1="32.2011" y1="195.917" x2="32.2011" y2="221.339" gradientUnits="userSpaceOnUse">
<stop stop-color="#B76A0C"/>
<stop offset="1" stop-color="#B76406"/>
</linearGradient>
<linearGradient id="paint36_linear_202_2588" x1="178.63" y1="48.4708" x2="178.63" y2="23.049" gradientUnits="userSpaceOnUse">
<stop stop-color="#B76A0C"/>
<stop offset="1" stop-color="#B76406"/>
</linearGradient>
<linearGradient id="paint37_linear_202_2588" x1="25.761" y1="15.931" x2="41.014" y2="40.6748" gradientUnits="userSpaceOnUse">
<stop offset="0.203125" stop-color="#834A0D"/>
<stop offset="1" stop-color="#B76608"/>
</linearGradient>
<clipPath id="clip0_202_2588">
<rect width="131" height="121.85" fill="white" transform="translate(827 3.02222)"/>
</clipPath>
</defs>
</svg>
