<svg width="545" height="45" viewBox="0 0 545 45" fill="none" xmlns="http://www.w3.org/2000/svg">
<path d="M7.17894 29.325C3.1943 29.325 4.86536e-07 26.1307 3.13802e-07 22.1789C1.41067e-07 18.2272 3.1943 15 7.17894 15C11.1636 15 14.0286 17.9638 14.292 21.685C32.0747 21.4215 67.9694 21.4215 109.364 21.4215C168.442 21.4215 216.356 21.4215 216.356 22.1789C216.356 22.9363 168.442 22.9363 109.364 22.9363C67.9694 22.9364 32.0747 22.9364 14.292 22.6729C14.0286 26.3941 10.966 29.3579 7.17894 29.3579L7.17894 29.325Z" fill="#A28357"/>
<path d="M537.178 29.325C541.162 29.325 544.356 26.1307 544.356 22.1789C544.356 18.2272 541.162 15 537.178 15C533.193 15 530.328 17.9638 530.064 21.685C512.282 21.4215 476.387 21.4215 434.993 21.4215C375.915 21.4215 328 21.4215 328 22.1789C328 22.9363 375.915 22.9363 434.993 22.9363C476.387 22.9364 512.282 22.9364 530.064 22.6729C530.328 26.3941 533.39 29.3579 537.178 29.3579L537.178 29.325Z" fill="#A28357"/>
<g clip-path="url(#clip0_202_2059)">
<path d="M273.23 44.46C285.507 44.46 295.46 34.5073 295.46 22.23C295.46 9.95271 285.507 0 273.23 0C260.953 0 251 9.95271 251 22.23C251 34.5073 260.953 44.46 273.23 44.46Z" fill="#B3965A"/>
<path d="M251 22.23C251 34.51 260.95 44.46 273.23 44.46V0C260.95 0 251 9.95 251 22.23Z" fill="#292E31"/>
</g>
<defs>
<clipPath id="clip0_202_2059">
<rect width="44.47" height="44.47" fill="white" transform="translate(251)"/>
</clipPath>
</defs>
</svg>
