<svg width="1920" height="765" viewBox="0 0 1920 765" fill="none" xmlns="http://www.w3.org/2000/svg">
<g clip-path="url(#clip0_211_3)">
<path d="M190.662 532.866C189.371 532.687 168.275 529.339 168.275 529.339L185.916 544.969L174.988 566.776L194.828 553.677L212.228 571.031L206.006 545.979L230.164 533.474L204.278 532.985L200.155 508.659L190.658 532.862L190.662 532.866Z" fill="#BFA871"/>
<path d="M259.407 393.459C259.73 393.363 265.063 391.873 265.063 391.873L259.22 390.095L259.436 383.778L256.175 389.01L250.199 386.802L254.369 392.033L250.031 397.589L256.182 394.905L259.785 400.189L259.407 393.459Z" fill="#BFA871"/>
<path d="M189.371 343.839C189.91 343.677 198.739 341.211 198.739 341.211L189.058 338.267L189.418 327.8L184.017 336.464L174.118 332.807L181.031 341.472L173.84 350.677L184.03 346.235L189.995 354.988L189.368 343.844L189.371 343.839Z" fill="#BFA871"/>
<path d="M126.529 253.955C127.154 254.082 137.329 256.396 137.329 256.396L129.235 248.209L135.269 237.93L125.174 243.673L117.252 234.652L119.478 247.066L107.294 252.38L119.898 253.459L121.123 265.449L126.534 253.958L126.529 253.955Z" fill="#BFA871"/>
<path d="M116.387 112.471C117.012 112.599 127.187 114.912 127.187 114.912L119.093 106.725L125.127 96.4458L115.032 102.19L107.11 93.1678L109.335 105.583L97.152 110.896L109.756 111.975L110.981 123.965L116.392 112.474L116.387 112.471Z" fill="#BFA871"/>
<path d="M344.489 423.818L342.231 441.777L325.157 435.084L339.048 446.295L325.76 456.516L342.107 450.593L344.981 467.072L347.234 450.294L363.311 457.536L349.859 446.085L363.886 436.048L347.542 442.301L344.489 423.818Z" fill="#BFA871"/>
<path d="M102.577 416.04L101.698 434.121L84.1631 428.757L98.8696 438.873L86.4086 450.077L102.25 442.92L106.374 459.132L107.341 442.233L123.922 448.224L109.635 437.833L122.856 426.754L107.036 434.235L102.577 416.04Z" fill="#BFA871"/>
<path d="M216.406 251.521L216.965 260.627L207.88 258.903L215.804 263.162L210.181 269.462L217.722 265.004L220.679 272.9L220.235 264.38L228.874 266.473L221.145 262.053L227.154 255.775L219.639 260.393L216.406 251.521Z" fill="#BFA871"/>
<path d="M85.1803 314.998L102.379 318.157L86.7195 310.343L89.7209 294.714L81.6517 308.065L59.7427 302.932L79.7858 313.798L77.3704 329.293L85.1803 314.998Z" fill="#BFA871"/>
<path d="M339.315 455.901C339.439 455.728 339.451 455.496 339.342 455.304C339.187 455.045 338.853 454.959 338.594 455.114L335.827 456.762C335.571 456.913 335.486 457.247 335.641 457.506C335.796 457.765 336.13 457.851 336.389 457.695L339.156 456.047C339.223 456.009 339.274 455.958 339.318 455.896L339.315 455.901ZM328.246 462.505C328.37 462.333 328.383 462.101 328.273 461.908C328.118 461.649 327.785 461.563 327.525 461.718L319.224 466.675C318.968 466.826 318.879 467.164 319.037 467.418C319.192 467.677 319.526 467.763 319.785 467.608L328.087 462.652C328.155 462.613 328.205 462.562 328.249 462.5L328.246 462.505ZM311.638 472.414C311.762 472.242 311.775 472.01 311.665 471.817C311.51 471.558 311.176 471.472 310.917 471.628L302.615 476.584C302.356 476.739 302.27 477.073 302.429 477.328C302.584 477.587 302.918 477.673 303.177 477.517L311.479 472.561C311.547 472.523 311.597 472.472 311.641 472.41L311.638 472.414ZM295.03 482.324C295.153 482.151 295.166 481.919 295.057 481.727C294.902 481.468 294.568 481.382 294.309 481.537L286.007 486.493C285.751 486.644 285.662 486.982 285.82 487.237C285.976 487.496 286.309 487.582 286.568 487.427L294.87 482.47C294.938 482.432 294.988 482.381 295.033 482.319L295.03 482.324ZM278.421 492.233C278.545 492.061 278.558 491.829 278.449 491.636C278.293 491.377 277.96 491.291 277.701 491.446L269.399 496.403C269.143 496.554 269.057 496.887 269.212 497.146C269.367 497.405 269.701 497.491 269.96 497.336L278.262 492.38C278.33 492.341 278.38 492.29 278.424 492.228L278.421 492.233ZM261.813 502.142C261.937 501.97 261.95 501.738 261.84 501.545C261.685 501.286 261.351 501.2 261.092 501.356L252.79 506.312C252.534 506.463 252.445 506.801 252.604 507.056C252.759 507.315 253.093 507.4 253.352 507.245L261.654 502.289C261.722 502.251 261.772 502.2 261.816 502.138L261.813 502.142ZM245.205 512.051C245.329 511.879 245.341 511.647 245.232 511.455C245.077 511.195 244.743 511.11 244.484 511.265L236.182 516.221C235.926 516.372 235.837 516.71 235.996 516.965C236.151 517.224 236.484 517.31 236.744 517.154L245.046 512.198C245.113 512.16 245.163 512.109 245.208 512.047L245.205 512.051ZM228.596 521.961C228.72 521.789 228.733 521.556 228.624 521.364C228.468 521.105 228.135 521.019 227.876 521.174L219.574 526.131C219.318 526.281 219.232 526.615 219.387 526.874C219.543 527.133 219.876 527.219 220.135 527.064L228.437 522.107C228.505 522.069 228.555 522.018 228.6 521.956L228.596 521.961ZM211.988 531.87C212.112 531.698 212.125 531.466 212.015 531.273C211.86 531.014 211.526 530.928 211.267 531.084L202.965 536.04C202.709 536.191 202.624 536.524 202.779 536.783C202.934 537.043 203.268 537.128 203.527 536.973L211.829 532.017C211.897 531.978 211.947 531.927 211.991 531.866L211.988 531.87Z" fill="#BFA871"/>
<path d="M256.376 391.674C256.551 391.431 256.495 391.089 256.252 390.915L248.388 385.285C248.146 385.111 247.804 385.166 247.629 385.409C247.455 385.652 247.51 385.994 247.753 386.168L255.617 391.798C255.86 391.973 256.201 391.917 256.376 391.674ZM240.653 380.418C240.828 380.175 240.772 379.834 240.529 379.659L232.666 374.03C232.423 373.855 232.081 373.911 231.907 374.154C231.732 374.397 231.788 374.738 232.031 374.913L239.894 380.542C240.137 380.717 240.479 380.661 240.653 380.418ZM224.931 369.163C225.105 368.92 225.05 368.578 224.807 368.404L216.943 362.774C216.7 362.599 216.359 362.655 216.184 362.898C216.009 363.141 216.065 363.483 216.308 363.657L224.172 369.287C224.414 369.461 224.756 369.406 224.931 369.163ZM209.208 357.907C209.383 357.664 209.327 357.323 209.084 357.148L201.221 351.519C200.978 351.344 200.636 351.4 200.462 351.642C200.287 351.885 200.343 352.227 200.585 352.402L208.449 358.031C208.692 358.206 209.033 358.15 209.208 357.907ZM193.486 346.651C193.66 346.409 193.604 346.067 193.362 345.892L185.498 340.263C185.255 340.088 184.914 340.144 184.739 340.387C184.564 340.63 184.62 340.971 184.863 341.146L192.726 346.775C192.969 346.95 193.311 346.894 193.486 346.651Z" fill="#BFA871"/>
<path d="M331.63 439.124C331.63 439.124 331.643 439.106 331.649 439.097C331.811 438.845 331.737 438.51 331.48 438.346L323.322 433.154C323.069 432.993 322.731 433.071 322.573 433.319C322.412 433.572 322.486 433.906 322.743 434.071L330.901 439.263C331.144 439.418 331.465 439.354 331.634 439.12L331.63 439.124ZM315.318 428.744C315.318 428.744 315.331 428.726 315.337 428.718C315.499 428.465 315.425 428.13 315.168 427.966L307.009 422.774C306.757 422.613 306.422 422.687 306.261 422.939C306.099 423.192 306.174 423.526 306.43 423.691L314.589 428.883C314.832 429.038 315.153 428.974 315.321 428.74L315.318 428.744ZM299.006 418.364C299.006 418.364 299.019 418.346 299.025 418.338C299.186 418.085 299.112 417.751 298.855 417.586L290.697 412.394C290.445 412.233 290.114 412.31 289.949 412.559C289.787 412.812 289.861 413.147 290.118 413.311L298.276 418.503C298.52 418.658 298.841 418.594 299.009 418.36L299.006 418.364ZM282.694 407.984C282.694 407.984 282.706 407.966 282.713 407.958C282.874 407.705 282.8 407.371 282.543 407.206L274.385 402.014C274.133 401.853 273.798 401.927 273.636 402.179C273.475 402.432 273.549 402.767 273.806 402.931L281.964 408.123C282.208 408.278 282.528 408.214 282.697 407.98L282.694 407.984ZM266.381 397.604C266.381 397.604 266.394 397.587 266.4 397.578C266.562 397.325 266.488 396.991 266.231 396.826L258.073 391.634C257.82 391.473 257.479 391.556 257.324 391.8C257.163 392.052 257.237 392.387 257.494 392.551L265.652 397.743C265.895 397.898 266.216 397.834 266.385 397.6L266.381 397.604Z" fill="#BFA871"/>
<path d="M338.239 435.73C338.369 435.549 338.38 435.302 338.246 435.106L332.768 427.138C332.599 426.889 332.261 426.827 332.012 426.997C331.763 427.166 331.701 427.503 331.871 427.752L337.349 435.72C337.518 435.969 337.856 436.031 338.105 435.861C338.157 435.825 338.204 435.779 338.239 435.73ZM327.282 419.796C327.413 419.615 327.423 419.367 327.289 419.171L321.811 411.204C321.642 410.955 321.304 410.893 321.055 411.062C320.806 411.231 320.745 411.569 320.914 411.818L326.392 419.785C326.561 420.034 326.899 420.096 327.148 419.927C327.201 419.891 327.247 419.844 327.282 419.796ZM316.326 403.861C316.456 403.68 316.466 403.433 316.333 403.236L310.854 395.269C310.685 395.02 310.348 394.958 310.099 395.128C309.85 395.297 309.788 395.634 309.957 395.883L315.435 403.851C315.605 404.1 315.942 404.161 316.191 403.992C316.244 403.956 316.291 403.91 316.326 403.861ZM305.369 387.927C305.499 387.745 305.51 387.498 305.376 387.302L299.898 379.335C299.728 379.086 299.391 379.024 299.142 379.193C298.893 379.362 298.831 379.7 299 379.949L304.479 387.916C304.648 388.165 304.985 388.227 305.234 388.058C305.287 388.022 305.334 387.975 305.369 387.927ZM294.412 371.992C294.543 371.811 294.553 371.564 294.419 371.367L288.941 363.4C288.772 363.151 288.434 363.089 288.185 363.258C287.936 363.428 287.874 363.765 288.044 364.014L293.522 371.981C293.691 372.23 294.029 372.292 294.278 372.123C294.33 372.087 294.377 372.041 294.412 371.992ZM283.456 356.057C283.586 355.876 283.596 355.629 283.463 355.433L277.984 347.465C277.815 347.216 277.478 347.155 277.229 347.324C276.98 347.493 276.918 347.83 277.087 348.08L282.565 356.047C282.735 356.296 283.072 356.358 283.321 356.188C283.374 356.153 283.421 356.106 283.456 356.057ZM272.499 340.123C272.629 339.942 272.639 339.695 272.506 339.498L267.028 331.531C266.858 331.282 266.521 331.22 266.272 331.389C266.023 331.558 265.961 331.896 266.13 332.145L271.609 340.112C271.778 340.361 272.115 340.423 272.364 340.254C272.417 340.218 272.464 340.171 272.499 340.123ZM261.542 324.188C261.672 324.007 261.683 323.76 261.549 323.564L256.071 315.596C255.902 315.347 255.564 315.285 255.315 315.455C255.066 315.624 255.004 315.961 255.174 316.21L260.652 324.178C260.821 324.427 261.159 324.489 261.408 324.319C261.46 324.283 261.507 324.237 261.542 324.188ZM250.585 308.254C250.716 308.073 250.726 307.825 250.593 307.629L245.114 299.662C244.945 299.413 244.608 299.351 244.358 299.52C244.109 299.689 244.048 300.027 244.217 300.276L249.695 308.243C249.864 308.492 250.202 308.554 250.451 308.385C250.504 308.349 250.551 308.302 250.585 308.254ZM239.629 292.319C239.759 292.138 239.769 291.891 239.636 291.694L234.158 283.727C233.988 283.478 233.651 283.416 233.402 283.585C233.153 283.755 233.091 284.092 233.26 284.341L238.739 292.308C238.908 292.558 239.245 292.619 239.494 292.45C239.547 292.414 239.594 292.368 239.629 292.319ZM228.672 276.384C228.802 276.203 228.813 275.956 228.679 275.76L223.201 267.792C223.032 267.543 222.694 267.482 222.445 267.651C222.196 267.82 222.134 268.158 222.303 268.407L227.782 276.374C227.951 276.623 228.289 276.685 228.538 276.516C228.59 276.48 228.637 276.433 228.672 276.384ZM217.715 260.45C217.846 260.269 217.856 260.022 217.722 259.825L212.244 251.858C212.075 251.609 211.737 251.547 211.488 251.716C211.239 251.886 211.177 252.223 211.347 252.472L216.825 260.439C216.994 260.688 217.332 260.75 217.581 260.581C217.633 260.545 217.68 260.498 217.715 260.45ZM206.759 244.515C206.889 244.334 206.899 244.087 206.766 243.891L201.287 235.923C201.118 235.674 200.781 235.612 200.532 235.782C200.283 235.951 200.221 236.288 200.39 236.537L205.868 244.505C206.038 244.754 206.375 244.816 206.624 244.646C206.677 244.61 206.724 244.564 206.759 244.515ZM195.802 228.581C195.932 228.4 195.942 228.152 195.809 227.956L190.331 219.989C190.161 219.74 189.824 219.678 189.575 219.847C189.326 220.016 189.264 220.354 189.433 220.603L194.912 228.57C195.081 228.819 195.418 228.881 195.667 228.712C195.72 228.676 195.767 228.629 195.802 228.581ZM184.845 212.646C184.975 212.465 184.986 212.218 184.852 212.021L179.374 204.054C179.205 203.805 178.867 203.743 178.618 203.913C178.369 204.082 178.307 204.419 178.477 204.668L183.955 212.636C184.124 212.885 184.462 212.946 184.711 212.777C184.763 212.741 184.81 212.695 184.845 212.646ZM173.889 196.712C174.019 196.53 174.029 196.283 173.896 196.087L168.417 188.12C168.248 187.87 167.911 187.809 167.662 187.978C167.412 188.147 167.351 188.485 167.52 188.734L172.998 196.701C173.168 196.95 173.505 197.012 173.754 196.843C173.807 196.807 173.854 196.76 173.889 196.712ZM162.932 180.777C163.062 180.596 163.072 180.349 162.939 180.152L157.461 172.185C157.291 171.936 156.954 171.874 156.705 172.043C156.456 172.213 156.394 172.55 156.563 172.799L162.042 180.766C162.211 181.015 162.548 181.077 162.797 180.908C162.85 180.872 162.897 180.826 162.932 180.777ZM151.975 164.842C152.105 164.661 152.116 164.414 151.982 164.218L146.504 156.25C146.335 156.001 145.997 155.94 145.748 156.109C145.499 156.278 145.437 156.615 145.607 156.865L151.085 164.832C151.254 165.081 151.592 165.143 151.841 164.973C151.893 164.938 151.94 164.891 151.975 164.842ZM141.018 148.908C141.149 148.727 141.159 148.48 141.026 148.283L135.547 140.316C135.378 140.067 135.04 140.005 134.791 140.174C134.542 140.343 134.481 140.681 134.65 140.93L140.128 148.897C140.297 149.146 140.635 149.208 140.884 149.039C140.937 149.003 140.983 148.956 141.018 148.908ZM130.062 132.973C130.192 132.792 130.202 132.545 130.069 132.349L124.59 124.381C124.421 124.132 124.084 124.07 123.835 124.24C123.586 124.409 123.524 124.746 123.693 124.995L129.171 132.963C129.341 133.212 129.678 133.274 129.927 133.104C129.98 133.068 130.027 133.022 130.062 132.973ZM119.105 117.039C119.235 116.858 119.246 116.61 119.112 116.414L113.634 108.447C113.465 108.198 113.127 108.136 112.878 108.305C112.629 108.474 112.567 108.812 112.736 109.061L118.215 117.028C118.384 117.277 118.721 117.339 118.971 117.17C119.023 117.134 119.07 117.087 119.105 117.039Z" fill="#BFA871"/>
<path d="M125.504 251.234C125.577 251.133 125.615 251.006 125.605 250.871L124.823 241.237C124.797 240.937 124.535 240.715 124.235 240.74C123.936 240.766 123.713 241.028 123.739 241.328L124.521 250.962C124.546 251.262 124.809 251.484 125.109 251.459C125.274 251.443 125.416 251.358 125.504 251.234ZM123.939 231.958C124.013 231.857 124.05 231.73 124.04 231.595L123.258 221.961C123.232 221.661 122.97 221.439 122.67 221.464C122.371 221.49 122.148 221.752 122.174 222.052L122.956 231.686C122.981 231.986 123.244 232.208 123.544 232.183C123.709 232.167 123.851 232.082 123.939 231.958ZM122.374 212.682C122.448 212.58 122.485 212.453 122.475 212.319L121.693 202.685C121.668 202.385 121.405 202.163 121.105 202.188C120.806 202.214 120.583 202.476 120.609 202.776L121.391 212.41C121.416 212.71 121.679 212.932 121.979 212.906C122.144 212.891 122.286 212.806 122.374 212.682ZM120.81 193.406C120.883 193.304 120.92 193.177 120.91 193.043L120.128 183.408C120.103 183.109 119.84 182.886 119.54 182.912C119.241 182.938 119.018 183.2 119.044 183.5L119.826 193.134C119.851 193.434 120.114 193.656 120.414 193.63C120.579 193.615 120.721 193.53 120.81 193.406ZM119.245 174.13C119.318 174.028 119.355 173.901 119.345 173.766L118.563 164.132C118.538 163.832 118.275 163.61 117.975 163.636C117.676 163.661 117.454 163.924 117.479 164.223L118.261 173.858C118.287 174.158 118.549 174.38 118.849 174.354C119.014 174.339 119.156 174.253 119.245 174.13ZM117.68 154.854C117.753 154.752 117.79 154.625 117.78 154.49L116.998 144.856C116.973 144.556 116.71 144.334 116.41 144.36C116.111 144.385 115.889 144.648 115.914 144.947L116.696 154.582C116.722 154.881 116.984 155.104 117.284 155.078C117.449 155.063 117.591 154.977 117.68 154.854ZM116.115 135.577C116.188 135.476 116.225 135.349 116.215 135.214L115.433 125.58C115.408 125.28 115.145 125.058 114.846 125.084C114.546 125.109 114.324 125.371 114.349 125.671L115.131 135.305C115.157 135.605 115.419 135.827 115.719 135.802C115.884 135.787 116.026 135.701 116.115 135.577ZM114.55 116.301C114.623 116.2 114.66 116.073 114.65 115.938L113.868 106.304C113.843 106.004 113.58 105.782 113.281 105.807C112.981 105.833 112.759 106.095 112.784 106.395L113.566 116.029C113.592 116.329 113.854 116.551 114.154 116.526C114.319 116.51 114.461 116.425 114.55 116.301Z" fill="#BFA871"/>
<path d="M83.2889 313.008C83.2889 313.008 83.2953 312.999 83.2984 312.995L88.6906 304.967C88.8565 304.718 88.7899 304.382 88.5439 304.212C88.2947 304.046 87.9638 304.096 87.7885 304.359L82.3963 312.386C82.2304 312.635 82.2938 312.976 82.543 313.141C82.7878 313.304 83.1174 313.246 83.2889 313.008ZM94.0745 296.961C94.0745 296.961 94.0809 296.952 94.0841 296.947L99.4762 288.92C99.6421 288.671 99.5756 288.335 99.3295 288.165C99.0847 288.002 98.7551 288.06 98.5836 288.298C98.5804 288.302 98.5773 288.307 98.5741 288.311L93.1819 296.339C93.016 296.588 93.0826 296.924 93.3286 297.094C93.5734 297.257 93.903 297.199 94.0745 296.961ZM104.86 280.913C104.86 280.913 104.866 280.905 104.87 280.9L110.262 272.873C110.428 272.624 110.361 272.288 110.115 272.117C109.866 271.951 109.522 272.019 109.36 272.264L103.968 280.291C103.802 280.541 103.865 280.881 104.114 281.047C104.359 281.21 104.689 281.152 104.86 280.913ZM115.646 264.866C115.646 264.866 115.652 264.857 115.655 264.853L121.047 256.826C121.213 256.576 121.15 256.236 120.901 256.07C120.656 255.907 120.326 255.965 120.155 256.204C120.152 256.208 120.148 256.212 120.145 256.217L114.753 264.244C114.587 264.493 114.654 264.829 114.9 265C115.145 265.162 115.474 265.105 115.646 264.866Z" fill="#BFA871"/>
<path d="M104.964 430.131C105.046 430.016 105.082 429.874 105.057 429.723L103.453 420.187C103.405 419.891 103.119 419.692 102.831 419.74C102.535 419.788 102.339 420.069 102.383 420.362L103.986 429.897C104.035 430.193 104.321 430.392 104.609 430.345C104.756 430.317 104.88 430.239 104.959 430.128L104.964 430.131ZM101.754 411.065C101.836 410.951 101.871 410.808 101.847 410.657L100.243 401.121C100.195 400.825 99.909 400.626 99.6205 400.674C99.3244 400.722 99.1256 401.008 99.1727 401.296L100.776 410.831C100.825 411.127 101.11 411.326 101.399 411.279C101.543 411.256 101.67 411.173 101.749 411.062L101.754 411.065ZM98.5433 391.999C98.6259 391.885 98.6612 391.742 98.6364 391.591L97.0328 382.055C96.9845 381.759 96.6987 381.56 96.4102 381.608C96.1142 381.656 95.9153 381.942 95.9592 382.235L97.5628 391.77C97.6111 392.066 97.8969 392.265 98.1854 392.218C98.3328 392.19 98.4564 392.111 98.5358 392.001L98.5433 391.999ZM95.3331 372.933C95.4157 372.819 95.4509 372.676 95.4261 372.525L93.8226 362.989C93.7742 362.693 93.4884 362.494 93.2 362.542C92.9039 362.59 92.705 362.876 92.749 363.169L94.3525 372.704C94.4009 373 94.6866 373.199 94.9751 373.152C95.1193 373.128 95.2461 373.045 95.3255 372.935L95.3331 372.933ZM92.1228 353.867C92.2054 353.753 92.2406 353.61 92.2158 353.459L90.6123 343.923C90.564 343.627 90.2782 343.429 89.9897 343.476C89.6936 343.524 89.4904 343.807 89.5387 344.103L91.1423 353.638C91.1906 353.934 91.4764 354.133 91.7648 354.086C91.9122 354.058 92.0358 353.979 92.1152 353.869L92.1228 353.867ZM88.9125 334.801C88.9951 334.687 89.0304 334.544 89.0056 334.393L87.402 324.857C87.3537 324.561 87.0679 324.363 86.7794 324.41C86.4834 324.458 86.2845 324.744 86.3284 325.037L87.932 334.572C87.9803 334.868 88.2661 335.067 88.5546 335.02C88.6988 334.996 88.8255 334.913 88.9049 334.803L88.9125 334.801Z" fill="#BFA871"/>
<path d="M111.216 109.656C111.381 109.426 111.344 109.105 111.123 108.919C110.893 108.727 110.547 108.76 110.355 108.99L104.181 116.428C103.989 116.658 104.022 117.003 104.252 117.196C104.482 117.388 104.827 117.355 105.02 117.125L111.194 109.687C111.194 109.687 111.21 109.665 111.216 109.656ZM98.8687 124.54C99.0339 124.31 98.997 123.989 98.7757 123.803C98.5455 123.61 98.2002 123.643 98.0078 123.873L91.8336 131.311C91.6412 131.542 91.6742 131.887 91.9044 132.079C92.1345 132.272 92.4799 132.239 92.6722 132.009L98.8465 124.57C98.8465 124.57 98.8624 124.548 98.8687 124.54ZM86.5214 139.423C86.6865 139.194 86.6497 138.872 86.4283 138.686C86.1982 138.494 85.8529 138.527 85.6605 138.757L79.4862 146.195C79.3047 146.42 79.3269 146.771 79.557 146.963C79.7872 147.155 80.1325 147.122 80.3249 146.892L86.4992 139.454C86.4992 139.454 86.515 139.432 86.5214 139.423ZM74.1741 154.307C74.3392 154.077 74.3023 153.756 74.081 153.57C73.8509 153.378 73.5055 153.411 73.3132 153.641L67.1389 161.079C66.9497 161.305 66.9796 161.654 67.2097 161.847C67.4399 162.039 67.7852 162.006 67.9776 161.776L74.1518 154.338C74.1518 154.338 74.1677 154.316 74.1741 154.307ZM61.8267 169.191C61.9919 168.961 61.955 168.64 61.7337 168.454C61.5036 168.261 61.1582 168.294 60.9659 168.525L54.7916 175.963C54.6024 176.188 54.6323 176.538 54.8624 176.73C55.0926 176.923 55.4379 176.89 55.6302 176.66L61.8045 169.222C61.8045 169.222 61.8204 169.2 61.8267 169.191ZM49.4794 184.074C49.6446 183.845 49.6077 183.524 49.3864 183.338C49.1562 183.145 48.8109 183.178 48.6186 183.408L42.4443 190.846C42.2595 191.075 42.2849 191.422 42.5151 191.614C42.7452 191.807 43.0906 191.774 43.2829 191.543L49.4572 184.105C49.4572 184.105 49.4731 184.083 49.4794 184.074ZM37.1321 198.958C37.2973 198.729 37.2604 198.407 37.0391 198.221C36.8089 198.029 36.4636 198.062 36.2712 198.292L30.097 205.73C29.9046 205.96 29.9376 206.306 30.1678 206.498C30.3979 206.69 30.7433 206.657 30.9356 206.427L37.1099 198.989C37.1099 198.989 37.1258 198.967 37.1321 198.958ZM24.7848 213.842C24.9499 213.612 24.9131 213.291 24.6918 213.105C24.4616 212.913 24.1163 212.946 23.9239 213.176L17.7496 220.614C17.5573 220.844 17.5903 221.189 17.8204 221.382C18.0506 221.574 18.3959 221.541 18.5883 221.311L24.7626 213.873C24.7626 213.873 24.7784 213.851 24.7848 213.842ZM12.4375 228.726C12.6026 228.496 12.5658 228.175 12.3444 227.989C12.1143 227.796 11.769 227.829 11.5766 228.059L5.40232 235.498C5.21439 235.731 5.24298 236.073 5.47313 236.265C5.70328 236.458 6.04861 236.425 6.24097 236.195L12.4153 228.757C12.4153 228.757 12.4311 228.734 12.4375 228.726ZM0.0901489 243.609C0.255305 243.38 0.218433 243.058 -0.00288413 242.872C-0.233032 242.68 -0.578373 242.713 -0.770716 242.943L-6.94499 250.381C-7.12657 250.606 -7.10433 250.957 -6.87419 251.149C-6.64404 251.341 -6.2987 251.308 -6.10635 251.078L0.0679273 243.64C0.0679273 243.64 0.083796 243.618 0.0901489 243.609ZM-12.2572 258.493C-12.092 258.263 -12.1289 257.942 -12.3502 257.756C-12.5803 257.564 -12.9257 257.597 -13.118 257.827L-19.2923 265.265C-19.4815 265.491 -19.4517 265.84 -19.2215 266.033C-18.9914 266.225 -18.646 266.192 -18.4537 265.962L-12.2794 258.524C-12.2794 258.524 -12.2635 258.502 -12.2572 258.493Z" fill="#BFA871"/>
<path d="M100.615 104.088C100.673 104.008 100.708 103.913 100.714 103.81C100.735 103.511 100.509 103.247 100.21 103.226L90.567 102.548C90.2674 102.527 90.0042 102.753 89.9874 103.056C89.9662 103.355 90.1923 103.619 90.4919 103.64L100.135 104.318C100.332 104.333 100.507 104.238 100.612 104.092L100.615 104.088ZM81.3267 102.736C81.3839 102.656 81.419 102.561 81.4256 102.458C81.4469 102.159 81.2208 101.896 80.9211 101.874L71.2784 101.196C70.9788 101.175 70.7156 101.401 70.6988 101.704C70.6776 102.004 70.9037 102.267 71.2033 102.288L80.8461 102.966C81.0433 102.981 81.2187 102.886 81.3235 102.74L81.3267 102.736ZM62.0381 101.384C62.0953 101.304 62.1304 101.209 62.137 101.107C62.1583 100.807 61.9321 100.544 61.6325 100.523L51.9898 99.8445C51.6901 99.8233 51.427 100.049 51.4102 100.352C51.389 100.652 51.6151 100.915 51.9147 100.936L61.5574 101.614C61.7547 101.629 61.9301 101.534 62.0349 101.388L62.0381 101.384ZM42.7495 100.032C42.8067 99.9526 42.8418 99.8572 42.8484 99.7548C42.8696 99.4552 42.6435 99.192 42.3439 99.1708L32.7012 98.4927C32.4015 98.4714 32.1428 98.7007 32.1216 99.0004C32.1003 99.3 32.3265 99.5632 32.6261 99.5844L42.2688 100.263C42.466 100.277 42.6415 100.182 42.7463 100.036L42.7495 100.032ZM23.4609 98.6802C23.518 98.6008 23.5531 98.5054 23.5598 98.403C23.581 98.1033 23.3549 97.8402 23.0553 97.819L13.4126 97.1408C13.1129 97.1196 12.8498 97.3457 12.833 97.6486C12.8117 97.9482 13.0378 98.2113 13.3375 98.2326L22.9802 98.9107C23.1774 98.9253 23.3529 98.8304 23.4577 98.6846L23.4609 98.6802ZM4.17226 97.3284C4.22943 97.2489 4.26452 97.1536 4.27119 97.0512C4.29241 96.7515 4.06629 96.4884 3.76665 96.4671L-5.87606 95.789C-6.1757 95.7678 -6.43443 95.9971 -6.45566 96.2967C-6.47689 96.5964 -6.25077 96.8595 -5.95113 96.8808L3.69159 97.5589C3.88882 97.5734 4.06428 97.4785 4.16908 97.3328L4.17226 97.3284ZM-15.1164 95.9766C-15.0592 95.8971 -15.0241 95.8018 -15.0174 95.6993C-14.9962 95.3997 -15.2223 95.1366 -15.522 95.1153L-25.1647 94.4372C-25.4643 94.416 -25.7275 94.6421 -25.7443 94.9449C-25.7655 95.2446 -25.5394 95.5077 -25.2397 95.5289L-15.597 96.207C-15.3998 96.2216 -15.2243 96.1267 -15.1195 95.981L-15.1164 95.9766Z" fill="#BFA871"/>
<path d="M-21.7959 268.308C-21.7292 268.215 -21.689 268.103 -21.6936 267.979L-21.8766 258.314C-21.8826 258.015 -22.1322 257.775 -22.4312 257.781C-22.7303 257.787 -22.9702 258.036 -22.9642 258.335L-22.7812 268.001C-22.7753 268.3 -22.5256 268.54 -22.2266 268.534C-22.0482 268.528 -21.8911 268.44 -21.7959 268.308ZM-22.1663 248.973C-22.0996 248.88 -22.0593 248.769 -22.064 248.645L-22.247 238.979C-22.2529 238.68 -22.5025 238.44 -22.8016 238.446C-23.1007 238.452 -23.3406 238.702 -23.3346 239.001L-23.1516 248.666C-23.1456 248.966 -22.8961 249.205 -22.597 249.199C-22.4186 249.194 -22.2615 249.106 -22.1663 248.973ZM-22.5366 229.638C-22.4699 229.546 -22.4297 229.434 -22.4344 229.31L-22.6174 219.644C-22.6233 219.345 -22.8729 219.105 -23.172 219.111C-23.4711 219.117 -23.711 219.367 -23.705 219.666L-23.522 229.332C-23.516 229.631 -23.2664 229.871 -22.9673 229.865C-22.789 229.859 -22.6319 229.771 -22.5366 229.638ZM-22.907 210.304C-22.8403 210.211 -22.8001 210.099 -22.8048 209.975L-22.9878 200.309C-22.9937 200.01 -23.2433 199.77 -23.5424 199.776C-23.8415 199.782 -24.0813 200.032 -24.0754 200.331L-23.8924 209.997C-23.8864 210.296 -23.6368 210.536 -23.3377 210.53C-23.1594 210.524 -23.0023 210.436 -22.907 210.304ZM-23.2774 190.969C-23.2107 190.876 -23.1705 190.764 -23.1752 190.64L-23.3582 180.975C-23.3641 180.675 -23.6137 180.436 -23.9128 180.442C-24.2119 180.448 -24.4517 180.697 -24.4458 180.996L-24.2628 190.662C-24.2568 190.961 -24.0072 191.201 -23.7081 191.195C-23.5298 191.189 -23.3727 191.101 -23.2774 190.969ZM-23.6478 171.634C-23.5811 171.541 -23.5409 171.43 -23.5456 171.306L-23.7285 161.64C-23.7345 161.341 -23.9841 161.101 -24.2832 161.107C-24.5823 161.113 -24.8221 161.362 -24.8162 161.661L-24.6332 171.327C-24.6272 171.626 -24.3776 171.866 -24.0785 171.86C-23.9002 171.855 -23.7431 171.767 -23.6478 171.634ZM-24.0182 152.299C-23.9515 152.207 -23.9113 152.095 -23.9159 151.971L-24.0989 142.305C-24.1049 142.006 -24.3545 141.766 -24.6536 141.772C-24.9527 141.778 -25.1925 142.028 -25.1865 142.327L-25.0036 151.992C-24.9976 152.292 -24.748 152.531 -24.4489 152.525C-24.2706 152.52 -24.1135 152.432 -24.0182 152.299ZM-24.3886 132.964C-24.3219 132.872 -24.2817 132.76 -24.2863 132.636L-24.4693 122.97C-24.4753 122.671 -24.7249 122.431 -25.024 122.437C-25.3231 122.443 -25.5629 122.693 -25.5569 122.992L-25.3739 132.658C-25.368 132.957 -25.1184 133.197 -24.8193 133.191C-24.641 133.185 -24.4839 133.097 -24.3886 132.964ZM-24.759 113.63C-24.6923 113.537 -24.6521 113.425 -24.6567 113.301L-24.8397 103.635C-24.8457 103.336 -25.0953 103.097 -25.3944 103.102C-25.6935 103.108 -25.9333 103.358 -25.9273 103.657L-25.7443 113.323C-25.7384 113.622 -25.4888 113.862 -25.1897 113.856C-25.0114 113.85 -24.8543 113.762 -24.759 113.63Z" fill="#BFA871"/>
<path d="M192.577 403.076C194.474 400.44 198.651 403.277 196.748 405.922C194.846 408.567 190.675 405.721 192.577 403.076Z" fill="#BFA871"/>
<path d="M190.493 421.409C190.521 421.369 190.579 421.41 190.55 421.45C190.522 421.49 190.464 421.449 190.493 421.409Z" fill="#BFA871"/>
<path d="M222.534 424.489C224.43 421.853 228.607 424.69 226.705 427.335C224.802 429.98 220.632 427.134 222.534 424.489Z" fill="#BFA871"/>
<path d="M203.087 428.471C204.983 425.835 209.16 428.672 207.258 431.317C205.355 433.962 201.185 431.116 203.087 428.471Z" fill="#BFA871"/>
<path d="M355.363 393.556C357.259 390.92 361.436 393.757 359.533 396.401C357.631 399.046 353.46 396.201 355.363 393.556Z" fill="#BFA871"/>
<path d="M334.437 272.764C336.333 270.128 340.51 272.965 338.608 275.609C336.705 278.254 332.534 275.409 334.437 272.764Z" fill="#BFA871"/>
<path d="M342.019 365.988C343.916 363.352 348.093 366.189 346.19 368.834C344.288 371.479 340.117 368.633 342.019 365.988Z" fill="#BFA871"/>
<path d="M218.907 338.257C220.803 335.621 224.98 338.458 223.078 341.103C221.175 343.748 217.005 340.902 218.907 338.257Z" fill="#BFA871"/>
<path d="M260.157 566.276C262.053 563.64 266.23 566.477 264.327 569.122C262.425 571.767 258.254 568.921 260.157 566.276Z" fill="#BFA871"/>
<path d="M113.629 518.246C115.525 515.61 119.702 518.446 117.8 521.091C115.897 523.736 111.727 520.89 113.629 518.246Z" fill="#BFA871"/>
<path d="M21.4105 418.735C23.3066 416.099 27.4836 418.936 25.5812 421.58C23.6787 424.225 19.508 421.379 21.4105 418.735Z" fill="#BFA871"/>
<path d="M57.1278 386.376C59.0239 383.74 63.2009 386.577 61.2984 389.222C59.396 391.867 55.2253 389.021 57.1278 386.376Z" fill="#BFA871"/>
<path d="M76.1044 189.926C78.0005 187.29 82.1775 190.127 80.275 192.772C78.3725 195.416 74.2019 192.571 76.1044 189.926Z" fill="#BFA871"/>
<path d="M33.7645 233.419C35.6606 230.783 39.8376 233.62 37.9352 236.265C36.0327 238.91 31.862 236.064 33.7645 233.419Z" fill="#BFA871"/>
<path d="M77.4994 203.365C79.3955 200.729 83.5725 203.566 81.67 206.211C79.7676 208.855 75.5969 206.01 77.4994 203.365Z" fill="#BFA871"/>
<path d="M149.924 193.953C151.82 191.317 155.997 194.154 154.094 196.798C152.192 199.443 148.021 196.597 149.924 193.953Z" fill="#BFA871"/>
<path d="M214.555 176.168C216.451 173.532 220.628 176.369 218.725 179.014C216.823 181.658 212.652 178.813 214.555 176.168Z" fill="#BFA871"/>
<path d="M209.236 221.594C208.67 220.658 208.461 219.569 208.592 218.531C208.496 217.705 208.654 216.861 209.169 216.098C210.091 214.732 211.629 213.935 213.279 213.97C213.768 213.98 214.293 214.069 214.762 214.219C216.126 214.651 216.98 215.634 217.523 216.928C217.829 217.658 217.902 218.507 217.73 219.295C217.744 219.379 217.761 219.458 217.771 219.546C217.851 220.273 217.682 221.029 217.43 221.706C216.867 223.244 215.274 224.088 213.705 223.997C211.93 223.894 210.187 223.169 209.236 221.594Z" fill="#BFA871"/>
<path d="M153.938 292.51C153.266 292.643 152.564 292.52 151.986 292.178C151.299 291.885 150.683 291.409 150.252 290.797C148.852 289.335 149.454 286.551 151.404 285.824C151.677 285.725 151.949 285.672 152.214 285.649C152.802 285.334 153.489 285.179 154.212 285.264C155.659 285.433 156.972 286.606 157.293 288.023C157.644 289.575 156.857 291.126 155.478 291.869C155.413 291.903 155.343 291.926 155.278 291.96C155.011 292.136 154.729 292.268 154.439 292.355C154.278 292.42 154.111 292.474 153.941 292.506L153.938 292.51Z" fill="#BFA871"/>
<path d="M26.7792 136.477C28.6753 133.841 32.8523 136.678 30.9498 139.323C29.0473 141.967 24.8767 139.122 26.7792 136.477Z" fill="#BFA871"/>
<path d="M57.3202 131.49C59.2163 128.854 63.3933 131.691 61.4908 134.336C59.5884 136.981 55.4177 134.135 57.3202 131.49Z" fill="#BFA871"/>
<path d="M56.5951 55.6335C58.4912 52.9974 62.6682 55.8344 60.7657 58.4793C58.8633 61.1242 54.6926 58.2784 56.5951 55.6335Z" fill="#BFA871"/>
<path d="M108.814 62.7894C110.71 60.1533 114.887 62.9903 112.984 65.6352C111.082 68.2801 106.911 65.4343 108.814 62.7894Z" fill="#BFA871"/>
<path d="M131.403 311.945C133.299 309.309 137.476 312.146 135.573 314.791C133.671 317.436 129.5 314.59 131.403 311.945Z" fill="#BFA871"/>
<path d="M127.35 333.907C129.247 331.271 133.424 334.108 131.521 336.753C129.619 339.398 125.448 336.552 127.35 333.907Z" fill="#BFA871"/>
</g>
<path d="M1589.06 504.094C1593.61 510.284 1598.63 516.122 1604.12 521.576C1606.72 524.183 1610.97 524.153 1613.58 521.55C1616.19 518.947 1616.16 514.694 1613.55 512.087C1580.22 478.953 1565.2 429.022 1575.35 384.81C1585.84 339.033 1622.73 301.514 1667.13 291.537C1712.38 281.379 1762.56 301.795 1786.36 340.015C1810.62 378.982 1804.78 434.22 1773.03 465.756C1751.36 487.279 1718.96 497.081 1690.53 490.751C1661.15 484.191 1636.55 459.869 1630.65 431.582C1624.57 402.445 1639.11 370.289 1664.45 356.831C1690.07 343.217 1725.62 350.891 1742.24 373.512L1742.43 373.767C1754.13 389.885 1755.79 417.157 1739.55 430.617C1732.54 436.4 1722.29 438.429 1712.13 436.025C1701.96 433.621 1693.68 427.228 1690.01 418.965C1686.32 410.67 1687.18 400.265 1692.2 391.121C1697.26 381.954 1705.66 375.733 1714.61 374.412C1718.26 373.893 1720.82 370.49 1720.27 366.81C1719.73 363.131 1716.35 360.603 1712.67 361.145C1699.58 363.052 1687.56 371.834 1680.45 384.624C1673.4 397.422 1672.37 412.275 1677.72 424.363C1683.06 436.452 1694.76 445.689 1709 449.028C1723.22 452.391 1737.84 449.359 1748.02 440.947C1770.32 422.55 1768.72 387.273 1753.23 365.931C1753.16 365.835 1753.07 365.707 1753 365.612C1732.3 337.44 1689.84 328.202 1658.13 345.018C1627.71 361.181 1610.22 399.572 1617.48 434.327C1624.5 468.081 1652.69 496.009 1687.55 503.803C1720.33 511.11 1757.55 499.922 1782.4 475.231C1818.42 439.477 1825.12 376.979 1797.7 332.912C1770.91 289.96 1714.79 267.079 1664.18 278.427C1614.85 289.519 1573.89 331.061 1562.28 381.791C1552.81 423.136 1563.28 468.944 1589.09 504.071L1589.06 504.094Z" fill="#BFA871"/>
<path d="M1701.27 457.758C1725.3 467.267 1751.69 461.389 1766.67 439.183C1769.42 435.1 1775 439.494 1772.71 443.589C1757.43 470.932 1725.51 483.525 1696.55 468.592C1689.83 465.129 1694.12 454.908 1701.25 457.726L1701.27 457.758Z" fill="#BFA871"/>
<path d="M1766.72 334.548C1790.8 354.343 1796.72 389.148 1783.34 416.668C1780.82 421.861 1772.96 418.791 1774.96 413.291C1784.7 386.432 1776.95 363.242 1757.77 343.091C1752.86 337.951 1761.39 330.164 1766.72 334.548Z" fill="#BFA871"/>
<path d="M1734.67 313.929C1739.62 316.781 1734.81 323.948 1729.92 322.237C1707.23 314.349 1687.28 317.755 1665.93 327.349C1659.94 330.03 1655.94 321.573 1660.61 317.699C1681.04 300.574 1712.52 301.026 1734.67 313.929Z" fill="#BFA871"/>
<path d="M1602.7 422.494C1605.5 446.031 1611.86 465.383 1622.79 486.34C1625.13 490.805 1618.45 494.145 1615.42 490.623C1599.93 472.678 1590.73 447.399 1590.67 423.714C1590.65 416.12 1601.72 414.613 1602.68 422.462L1602.7 422.494Z" fill="#BFA871"/>
<path d="M1631.87 330.807C1634.15 329.428 1636.88 329.336 1638.81 331.358C1640.54 333.181 1641 336.281 1639.25 338.307C1637.52 340.365 1635.59 342.222 1633.68 344.167C1631.67 346.183 1629.77 348.611 1627.36 350.084C1624.62 351.759 1621.2 351.718 1618.94 349.249C1616.82 346.971 1616.42 343.285 1618.56 340.78C1621.94 336.823 1627.41 333.495 1631.85 330.775L1631.87 330.807Z" fill="#BFA871"/>
<path d="M1630.44 525.913C1633.35 527.066 1635.95 528.794 1638.65 530.396C1640.67 531.612 1641.01 534.751 1639.88 536.617C1638.61 538.774 1636.24 539.487 1633.9 538.704C1631.31 537.855 1628.7 537.116 1626.27 535.81C1623.7 534.454 1622.21 531.62 1623.41 528.774C1624.57 526.006 1627.74 524.849 1630.44 525.913Z" fill="#BFA871"/>
<path d="M1658.18 533.978C1662.27 534.802 1666.29 536.124 1670.32 537.193C1672.74 537.874 1673.89 541.053 1673.25 543.248C1672.53 545.688 1670.24 547.32 1667.67 546.954C1663.95 546.443 1660.14 546.144 1656.49 545.387C1653.44 544.779 1651.15 541.993 1651.64 538.783C1652.1 535.794 1655.14 533.314 1658.24 533.931L1658.18 533.978Z" fill="#BFA871"/>
<path d="M1816.4 323.594C1842.28 348.055 1847.93 393.38 1839.94 426.567C1830.92 464.044 1803.73 495.767 1768.11 510.344C1763.39 512.285 1760.72 505.504 1765.04 503.163C1797.88 485.471 1822.74 456.449 1829.12 418.938C1835.04 384.329 1822.36 359.792 1808.55 329.558C1806.54 325.144 1812.71 320.113 1816.4 323.594Z" fill="#BFA871"/>
<path d="M1684.64 246.495C1721.28 239.071 1761.44 259.429 1786.7 284.446C1790.08 287.765 1784.48 293.451 1780.89 290.439C1751.76 265.708 1720.89 261.271 1684.2 259.343C1676.33 258.933 1678.03 247.863 1684.6 246.519L1684.64 246.495Z" fill="#BFA871"/>
<path d="M1638.06 262.001C1644.09 259.978 1647.75 268.78 1641.77 271.263C1607.75 285.205 1579.68 308.186 1560.03 339.477C1557.66 343.278 1550.99 339.681 1553.1 335.671C1571.31 300.534 1600.16 274.615 1638.06 262.001Z" fill="#BFA871"/>
<path d="M1708.27 411.392C1708.61 419.599 1715.55 424.569 1723.31 421.763C1726.94 420.421 1730.68 425.636 1727.04 427.968C1714.25 436.18 1697.68 427.869 1696.72 412.657C1696.25 405.193 1708 403.93 1708.3 411.424L1708.27 411.392Z" fill="#BFA871"/>
<path d="M1651.85 401.122C1649.97 407.858 1647.39 413.977 1647.12 421.101C1646.85 428.961 1648.89 436.947 1652.53 443.904C1654.48 447.629 1648.62 451.095 1646.14 447.713C1635.99 433.899 1631.42 410.629 1643.3 396.247C1647.06 391.667 1653.27 395.901 1651.81 401.145L1651.85 401.122Z" fill="#BFA871"/>
<g clip-path="url(#clip1_211_3)">
<path d="M1510.76 551.573C1494.48 543.674 1477.08 540.819 1460.29 542.394C1462.01 543.089 1463.71 543.812 1465.39 544.631C1490.62 556.874 1506.72 580.39 1510.58 606.17C1516.82 610.145 1524.52 615.609 1531.98 615.589C1533.71 615.582 1533.01 616.647 1531.28 616.64C1528.91 616.641 1513.72 616.315 1513.17 616.438C1513.19 616.683 1513.96 620.055 1513.87 620.233C1516.37 632.744 1500.85 640.016 1490.84 647.591C1492.48 652.199 1499.61 658.897 1500.34 659.454C1479.02 696.115 1432.71 710.702 1393.93 691.878C1392.24 691.059 1390.62 690.172 1389.02 689.257C1398.17 703.421 1411.17 715.325 1427.45 723.224C1474.84 746.227 1531.93 726.449 1554.93 679.053C1577.93 631.657 1558.15 574.576 1510.76 551.573Z" fill="#252525"/>
</g>
<defs>
<clipPath id="clip0_211_3">
<rect width="373" height="541.156" fill="white" transform="matrix(-0.583928 0.811805 0.811805 0.583928 25.8057 0)"/>
</clipPath>
<clipPath id="clip1_211_3">
<rect width="144.807" height="190.8" fill="white" transform="translate(1466.31 530) rotate(25.8894)"/>
</clipPath>
</defs>
</svg>
