<svg width="1920" height="292" viewBox="0 0 1920 292" fill="none" xmlns="http://www.w3.org/2000/svg">
<path d="M1128.27 66.364C1130.05 67.9853 1131.61 70.1849 1132.93 72.9631L1150 62.8422C1148.48 59.6666 1146.58 56.9554 1144.29 54.7045C1142.01 52.4576 1139.15 50.8679 1135.71 49.9392L1119.53 59.5643L1113.68 49.8369L1095.52 60.6543L1101.57 66.7064V94.3932L1093.23 105.407H1129.95L1121.51 94.3932V63.9322C1124.23 63.9322 1126.48 64.7428 1128.26 66.364H1128.27Z" fill="#CB9C5F"/>
<mask id="mask0_213_4" style="mask-type:alpha" maskUnits="userSpaceOnUse" x="1093" y="49" width="57" height="57">
<path d="M1128.27 66.364C1130.05 67.9853 1131.61 70.1849 1132.93 72.9631L1150 62.8422C1148.48 59.6666 1146.58 56.9554 1144.29 54.7045C1142.01 52.4576 1139.15 50.8679 1135.71 49.9392L1119.53 59.5643L1113.68 49.8369L1095.52 60.6543L1101.57 66.7064V94.3932L1093.23 105.407H1129.95L1121.51 94.3932V63.9322C1124.23 63.9322 1126.48 64.7428 1128.26 66.364H1128.27Z" fill="#CB9C5F"/>
</mask>
<g mask="url(#mask0_213_4)">
<rect x="1093.16" y="56.3525" width="17.2134" height="49.3828" fill="url(#paint0_linear_213_4)"/>
<rect x="1110.09" y="49.8623" width="39.7884" height="55.8731" fill="url(#paint1_linear_213_4)"/>
<path d="M1110.09 63.1251L1113.76 49.5801L1092.31 60.021L1110.09 63.1251Z" fill="url(#paint2_linear_213_4)"/>
<path d="M1110.32 95.6932L1092.59 105.736L1130.69 105.736L1110.32 95.6932Z" fill="url(#paint3_linear_213_4)"/>
<rect x="1128.15" y="49.373" width="13.2628" height="24.2681" transform="rotate(-33.979 1128.15 49.373)" fill="url(#paint4_linear_213_4)"/>
<path d="M1136.33 61.5732L1132.95 73.4251L1151.15 62.9842L1136.33 61.5732Z" fill="url(#paint5_linear_213_4)"/>
</g>
<path d="M910.755 42.4509C908.701 39.4052 906.029 36.8278 902.748 34.7186C899.462 32.6094 896.019 31.2676 892.422 30.6891C888.825 30.1107 885.304 30.2091 881.856 30.9843C878.409 31.7595 875.179 33.1839 872.161 35.2577C869.142 37.3275 866.596 39.9797 864.523 43.2104C862.449 46.4411 861.103 49.8567 860.477 53.4651C859.852 57.0735 859.907 60.6072 860.635 64.0621C861.367 67.5171 862.744 70.7595 864.771 73.7895C866.797 76.8155 869.453 79.3851 872.739 81.4943C876.025 83.6035 879.48 84.9532 883.104 85.5513C886.728 86.1494 890.266 86.0589 893.713 85.2837C897.16 84.5085 900.39 83.084 903.409 81.0103C906.427 78.9365 908.973 76.2882 911.047 73.0576C913.116 69.8269 914.466 66.4074 915.092 62.8029C915.717 59.1945 915.662 55.6648 914.934 52.2059C914.202 48.7509 912.809 45.5006 910.759 42.4509H910.755ZM895.641 65.825C894.984 69.2957 893.677 72.5618 891.71 75.6272C890.604 77.3546 889.199 79.0467 887.503 80.7112C885.284 77.7954 883.458 74.6395 882.026 71.2396C880.589 67.8437 879.665 64.3808 879.255 60.8551C878.842 57.3293 878.968 53.831 879.621 50.3603C880.275 46.8896 881.585 43.6236 883.552 40.5582C884.694 38.7756 886.114 37.056 887.81 35.3915C890.026 38.3074 891.84 41.4554 893.248 44.8356C894.657 48.2158 895.57 51.6904 895.991 55.2634C896.412 58.8364 896.294 62.3543 895.641 65.825Z" fill="#CB9C5F"/>
<mask id="mask1_213_4" style="mask-type:alpha" maskUnits="userSpaceOnUse" x="860" y="30" width="56" height="56">
<path d="M910.755 42.4509C908.701 39.4052 906.029 36.8278 902.748 34.7186C899.462 32.6094 896.019 31.2676 892.422 30.6891C888.825 30.1107 885.304 30.2091 881.856 30.9843C878.409 31.7595 875.179 33.1839 872.161 35.2577C869.142 37.3275 866.596 39.9797 864.523 43.2104C862.449 46.4411 861.103 49.8567 860.477 53.4651C859.852 57.0735 859.907 60.6072 860.635 64.0621C861.367 67.5171 862.744 70.7595 864.771 73.7895C866.797 76.8155 869.453 79.3851 872.739 81.4943C876.025 83.6035 879.48 84.9532 883.104 85.5513C886.728 86.1494 890.266 86.0589 893.713 85.2837C897.16 84.5085 900.39 83.084 903.409 81.0103C906.427 78.9365 908.973 76.2882 911.047 73.0576C913.116 69.8269 914.466 66.4074 915.092 62.8029C915.717 59.1945 915.662 55.6648 914.934 52.2059C914.202 48.7509 912.809 45.5006 910.759 42.4509H910.755ZM895.641 65.825C894.984 69.2957 893.677 72.5618 891.71 75.6272C890.604 77.3546 889.199 79.0467 887.503 80.7112C885.284 77.7954 883.458 74.6395 882.026 71.2396C880.589 67.8437 879.665 64.3808 879.255 60.8551C878.842 57.3293 878.968 53.831 879.621 50.3603C880.275 46.8896 881.585 43.6236 883.552 40.5582C884.694 38.7756 886.114 37.056 887.81 35.3915C890.026 38.3074 891.84 41.4554 893.248 44.8356C894.657 48.2158 895.57 51.6904 895.991 55.2634C896.412 58.8364 896.294 62.3543 895.641 65.825Z" fill="#CB9C5F"/>
</mask>
<g mask="url(#mask1_213_4)">
<rect x="887.801" y="26.1582" width="46.5609" height="71.6756" fill="url(#paint6_linear_213_4)"/>
<rect x="887.801" y="97.834" width="46.5609" height="71.6756" transform="rotate(-180 887.801 97.834)" fill="url(#paint7_linear_213_4)"/>
</g>
<path d="M877.705 94.4717L869.426 105.415H906.144L897.762 94.4717H877.705Z" fill="#CB9C5F"/>
<mask id="mask2_213_4" style="mask-type:alpha" maskUnits="userSpaceOnUse" x="869" y="94" width="38" height="12">
<path d="M877.705 94.4717L869.426 105.415H906.144L897.762 94.4717H877.705Z" fill="#CB9C5F"/>
</mask>
<g mask="url(#mask2_213_4)">
<rect x="886.672" y="89.6504" width="25.3969" height="20.3175" fill="url(#paint8_linear_213_4)"/>
<rect x="886.672" y="109.968" width="25.3969" height="20.3175" transform="rotate(-180 886.672 109.968)" fill="url(#paint9_linear_213_4)"/>
<path d="M886.849 98.6807L868.33 105.876L907.977 106.018L886.849 98.6807Z" fill="url(#paint10_linear_213_4)"/>
</g>
<path d="M1083.56 61.9949C1081.5 58.9492 1078.83 56.3717 1075.55 54.2626C1072.26 52.1534 1068.82 50.8115 1065.22 50.2331C1061.63 49.6546 1058.1 49.753 1054.66 50.5282C1051.21 51.3034 1047.98 52.7279 1044.96 54.8017C1041.94 56.8715 1039.4 59.5237 1037.32 62.7543C1035.25 65.985 1033.9 69.4006 1033.28 73.009C1032.65 76.6174 1032.71 80.1511 1033.43 83.6061C1034.17 87.061 1035.54 90.3035 1037.57 93.3334C1039.6 96.3595 1042.25 98.9291 1045.54 101.038C1048.82 103.147 1052.28 104.497 1055.9 105.095C1059.53 105.693 1063.07 105.603 1066.51 104.828C1069.96 104.052 1073.19 102.628 1076.21 100.554C1079.23 98.4805 1081.77 95.8322 1083.85 92.6015C1085.92 89.3709 1087.27 85.9513 1087.89 82.3468C1088.52 78.7384 1088.46 75.2087 1087.73 71.7498C1087 68.2949 1085.61 65.0445 1083.56 61.9949H1083.56ZM1068.44 85.3689C1067.78 88.8396 1066.48 92.1057 1064.51 95.1711C1063.4 96.8986 1062 98.5906 1060.3 100.255C1058.08 97.3393 1056.26 94.1834 1054.83 90.7835C1053.39 87.3876 1052.46 83.9248 1052.06 80.399C1051.64 76.8732 1051.77 73.375 1052.42 69.9043C1053.07 66.4336 1054.38 63.1675 1056.35 60.1021C1057.49 58.3196 1058.91 56.6 1060.61 54.9354C1062.83 57.8513 1064.64 60.9993 1066.05 64.3795C1067.46 67.7597 1068.37 71.2343 1068.79 74.8073C1069.21 78.3803 1069.09 81.8983 1068.44 85.3689Z" fill="#CB9C5F"/>
<mask id="mask3_213_4" style="mask-type:alpha" maskUnits="userSpaceOnUse" x="1032" y="49" width="57" height="57">
<path d="M1083.56 61.9949C1081.5 58.9492 1078.83 56.3717 1075.55 54.2626C1072.26 52.1534 1068.82 50.8115 1065.22 50.2331C1061.63 49.6546 1058.1 49.753 1054.66 50.5282C1051.21 51.3034 1047.98 52.7279 1044.96 54.8017C1041.94 56.8715 1039.4 59.5237 1037.32 62.7543C1035.25 65.985 1033.9 69.4006 1033.28 73.009C1032.65 76.6174 1032.71 80.1511 1033.43 83.6061C1034.17 87.061 1035.54 90.3035 1037.57 93.3334C1039.6 96.3595 1042.25 98.9291 1045.54 101.038C1048.82 103.147 1052.28 104.497 1055.9 105.095C1059.53 105.693 1063.07 105.603 1066.51 104.828C1069.96 104.052 1073.19 102.628 1076.21 100.554C1079.23 98.4805 1081.77 95.8322 1083.85 92.6015C1085.92 89.3709 1087.27 85.9513 1087.89 82.3468C1088.52 78.7384 1088.46 75.2087 1087.73 71.7498C1087 68.2949 1085.61 65.0445 1083.56 61.9949H1083.56ZM1068.44 85.3689C1067.78 88.8396 1066.48 92.1057 1064.51 95.1711C1063.4 96.8986 1062 98.5906 1060.3 100.255C1058.08 97.3393 1056.26 94.1834 1054.83 90.7835C1053.39 87.3876 1052.46 83.9248 1052.06 80.399C1051.64 76.8732 1051.77 73.375 1052.42 69.9043C1053.07 66.4336 1054.38 63.1675 1056.35 60.1021C1057.49 58.3196 1058.91 56.6 1060.61 54.9354C1062.83 57.8513 1064.64 60.9993 1066.05 64.3795C1067.46 67.7597 1068.37 71.2343 1068.79 74.8073C1069.21 78.3803 1069.09 81.8983 1068.44 85.3689Z" fill="#CB9C5F"/>
</mask>
<g mask="url(#mask3_213_4)">
<rect x="1060.6" y="45.7021" width="46.5609" height="71.6756" fill="url(#paint11_linear_213_4)"/>
<rect x="1060.6" y="117.378" width="46.5609" height="71.6756" transform="rotate(-180 1060.6 117.378)" fill="url(#paint12_linear_213_4)"/>
</g>
<mask id="mask4_213_4" style="mask-type:alpha" maskUnits="userSpaceOnUse" x="973" y="16" width="59" height="92">
<path d="M1025.77 16L999.474 31.5788L1005.83 38.0283V51.0296C1005.29 51.0296 1004.77 51.0139 1004.24 50.9785C1003.7 50.947 1003.18 50.9273 1002.65 50.9273C997.55 50.9273 993.167 51.671 989.495 53.1585C985.824 54.6459 982.798 56.6488 980.413 59.1633C978.032 61.6778 976.277 64.5897 975.152 67.8952C974.027 71.2045 973.464 74.6791 973.464 78.3151C973.464 83.6077 974.719 88.9003 977.234 94.1929C979.748 99.4856 983.518 104.086 988.547 107.985L1007.1 96.8688L1013.65 107.985L1031.81 97.0694L1025.76 91.0174V16H1025.77ZM1005.83 91.8201C1003.24 90.6947 1000.81 89.2742 998.53 87.5545C996.248 85.8349 994.229 83.8832 992.478 81.6992C990.723 79.5153 989.334 77.17 988.311 74.6516C987.284 72.1371 986.772 69.5243 986.772 66.813C986.772 64.4992 987.201 62.1815 988.063 59.8677L1005.83 68.5011V91.8241V91.8201Z" fill="#CB9C5F"/>
</mask>
<g mask="url(#mask4_213_4)">
<rect x="972.457" y="14.8711" width="33.2981" height="94.2506" fill="url(#paint13_linear_213_4)"/>
<rect x="973.585" y="14.5889" width="42.6103" height="94.2506" fill="url(#paint14_linear_213_4)"/>
<rect x="1015.91" y="13.7422" width="17.2134" height="94.2506" fill="url(#paint15_linear_213_4)"/>
<path d="M1015.77 36.0353L1025.79 16L996.584 30.8148L1015.77 36.0353Z" fill="url(#paint16_linear_213_4)"/>
<path d="M1005.47 90.4971L1007.17 96.9874L1006.6 98.2572C1005.24 98.6335 1002.51 99.3295 1002.51 99.1038C1002.51 98.878 1004.49 93.2719 1005.47 90.4971Z" fill="#B9670D"/>
<path d="M991.646 92.8965L988.4 108.981L1007.31 96.9882L991.646 92.8965Z" fill="url(#paint17_linear_213_4)"/>
<path d="M1016.2 95.2949L1013.66 107.993L1032.99 97.2702L1016.2 95.2949Z" fill="url(#paint18_linear_213_4)"/>
<path d="M984.168 54.6602C976.266 69.221 985.861 86.124 991.645 92.7555L987.695 111.521C981.016 103.761 968.563 85.0235 972.175 72.1558C975.787 59.288 981.675 55.1305 984.168 54.6602Z" fill="url(#paint19_linear_213_4)"/>
</g>
<path d="M952.821 66.364C954.607 67.9853 956.162 70.1849 957.484 72.9631L974.554 62.8422C973.031 59.6666 971.13 56.9554 968.848 54.7045C966.566 52.4576 963.705 50.8679 960.262 49.9392L944.085 59.5643L938.23 49.8369L920.069 60.6543L926.122 66.7064V94.3932L917.787 105.407H954.505L946.068 94.3932V63.9322C948.779 63.9322 951.03 64.7428 952.817 66.364H952.821Z" fill="#CB9C5F"/>
<mask id="mask5_213_4" style="mask-type:alpha" maskUnits="userSpaceOnUse" x="917" y="49" width="58" height="57">
<path d="M952.821 66.364C954.607 67.9853 956.162 70.1849 957.484 72.9631L974.554 62.8422C973.031 59.6666 971.13 56.9554 968.848 54.7045C966.566 52.4576 963.705 50.8679 960.262 49.9392L944.085 59.5643L938.23 49.8369L920.069 60.6543L926.122 66.7064V94.3932L917.787 105.407H954.505L946.068 94.3932V63.9322C948.779 63.9322 951.03 64.7428 952.817 66.364H952.821Z" fill="#CB9C5F"/>
</mask>
<g mask="url(#mask5_213_4)">
<rect x="917.712" y="56.3525" width="17.2134" height="49.3828" fill="url(#paint20_linear_213_4)"/>
<rect x="934.644" y="49.8623" width="39.7884" height="55.8731" fill="url(#paint21_linear_213_4)"/>
<path d="M934.644 63.1251L938.312 49.5801L916.866 60.021L934.644 63.1251Z" fill="url(#paint22_linear_213_4)"/>
<path d="M934.874 95.6932L917.148 105.736L955.244 105.736L934.874 95.6932Z" fill="url(#paint23_linear_213_4)"/>
<rect x="952.704" y="49.373" width="13.2628" height="24.2681" transform="rotate(-33.979 952.704 49.373)" fill="url(#paint24_linear_213_4)"/>
<path d="M960.887 61.5732L957.501 73.4251L975.702 62.9842L960.887 61.5732Z" fill="url(#paint25_linear_213_4)"/>
</g>
<path d="M910.755 42.4509C908.701 39.4052 906.029 36.8278 902.748 34.7186C899.462 32.6094 896.019 31.2676 892.422 30.6891C888.825 30.1107 885.304 30.2091 881.856 30.9843C878.409 31.7595 875.179 33.1839 872.161 35.2577C869.142 37.3275 866.596 39.9797 864.523 43.2104C862.449 46.4411 861.103 49.8567 860.477 53.4651C859.852 57.0735 859.907 60.6072 860.635 64.0621C861.367 67.5171 862.744 70.7595 864.771 73.7895C866.797 76.8155 869.453 79.3851 872.739 81.4943C876.025 83.6035 879.48 84.9532 883.104 85.5513C886.728 86.1494 890.266 86.0589 893.713 85.2837C897.16 84.5085 900.39 83.084 903.409 81.0103C906.427 78.9365 908.973 76.2882 911.047 73.0576C913.116 69.8269 914.466 66.4074 915.092 62.8029C915.717 59.1945 915.662 55.6648 914.934 52.2059C914.202 48.7509 912.809 45.5006 910.759 42.4509H910.755ZM895.641 65.825C894.984 69.2957 893.677 72.5618 891.71 75.6272C890.604 77.3546 889.199 79.0467 887.503 80.7112C885.284 77.7954 883.458 74.6395 882.026 71.2396C880.589 67.8437 879.665 64.3808 879.255 60.8551C878.842 57.3293 878.968 53.831 879.621 50.3603C880.275 46.8896 881.585 43.6236 883.552 40.5582C884.694 38.7756 886.114 37.056 887.81 35.3915C890.026 38.3074 891.84 41.4554 893.248 44.8356C894.657 48.2158 895.57 51.6904 895.991 55.2634C896.412 58.8364 896.294 62.3543 895.641 65.825Z" fill="#CB9C5F"/>
<mask id="mask6_213_4" style="mask-type:alpha" maskUnits="userSpaceOnUse" x="860" y="30" width="56" height="56">
<path d="M910.755 42.4509C908.701 39.4052 906.029 36.8278 902.748 34.7186C899.462 32.6094 896.019 31.2676 892.422 30.6891C888.825 30.1107 885.304 30.2091 881.856 30.9843C878.409 31.7595 875.179 33.1839 872.161 35.2577C869.142 37.3275 866.596 39.9797 864.523 43.2104C862.449 46.4411 861.103 49.8567 860.477 53.4651C859.852 57.0735 859.907 60.6072 860.635 64.0621C861.367 67.5171 862.744 70.7595 864.771 73.7895C866.797 76.8155 869.453 79.3851 872.739 81.4943C876.025 83.6035 879.48 84.9532 883.104 85.5513C886.728 86.1494 890.266 86.0589 893.713 85.2837C897.16 84.5085 900.39 83.084 903.409 81.0103C906.427 78.9365 908.973 76.2882 911.047 73.0576C913.116 69.8269 914.466 66.4074 915.092 62.8029C915.717 59.1945 915.662 55.6648 914.934 52.2059C914.202 48.7509 912.809 45.5006 910.759 42.4509H910.755ZM895.641 65.825C894.984 69.2957 893.677 72.5618 891.71 75.6272C890.604 77.3546 889.199 79.0467 887.503 80.7112C885.284 77.7954 883.458 74.6395 882.026 71.2396C880.589 67.8437 879.665 64.3808 879.255 60.8551C878.842 57.3293 878.968 53.831 879.621 50.3603C880.275 46.8896 881.585 43.6236 883.552 40.5582C884.694 38.7756 886.114 37.056 887.81 35.3915C890.026 38.3074 891.84 41.4554 893.248 44.8356C894.657 48.2158 895.57 51.6904 895.991 55.2634C896.412 58.8364 896.294 62.3543 895.641 65.825Z" fill="#CB9C5F"/>
</mask>
<g mask="url(#mask6_213_4)">
<rect x="887.801" y="26.1582" width="46.5609" height="71.6756" fill="url(#paint26_linear_213_4)"/>
<rect x="887.801" y="97.834" width="46.5609" height="71.6756" transform="rotate(-180 887.801 97.834)" fill="url(#paint27_linear_213_4)"/>
</g>
<path d="M877.705 94.4717L869.426 105.415H906.144L897.762 94.4717H877.705Z" fill="#CB9C5F"/>
<mask id="mask7_213_4" style="mask-type:alpha" maskUnits="userSpaceOnUse" x="869" y="94" width="38" height="12">
<path d="M877.705 94.4717L869.426 105.415H906.144L897.762 94.4717H877.705Z" fill="#CB9C5F"/>
</mask>
<g mask="url(#mask7_213_4)">
<rect x="886.672" y="89.6504" width="25.3969" height="20.3175" fill="url(#paint28_linear_213_4)"/>
<rect x="886.672" y="109.968" width="25.3969" height="20.3175" transform="rotate(-180 886.672 109.968)" fill="url(#paint29_linear_213_4)"/>
<path d="M886.849 98.6807L868.33 105.876L907.977 106.018L886.849 98.6807Z" fill="url(#paint30_linear_213_4)"/>
</g>
<path d="M853.253 37.041L861.69 26.0229H824.972L833.208 36.9386L816.634 63.3388L790.041 21.1592L771.086 32.4724L777.334 38.7251V94.3979L769 105.416H795.498L787.062 94.3979V52.0255L810.483 88.7433L833.306 52.5214V94.3979L824.972 105.416H861.69L853.253 94.3979V37.041Z" fill="#CB9C5F"/>
<mask id="mask8_213_4" style="mask-type:alpha" maskUnits="userSpaceOnUse" x="769" y="21" width="93" height="85">
<path d="M853.253 37.041L861.69 26.0229H824.972L833.208 36.9386L816.634 63.3388L790.041 21.1592L771.086 32.4724L777.334 38.7251V94.3979L769 105.416H795.498L787.062 94.3979V52.0255L810.483 88.7433L833.306 52.5214V94.3979L824.972 105.416H861.69L853.253 94.3979V37.041Z" fill="#CB9C5F"/>
</mask>
<g mask="url(#mask8_213_4)">
<rect x="843.498" y="21.0801" width="24.8325" height="84.374" fill="url(#paint31_linear_213_4)"/>
<rect x="767.589" y="21.0801" width="76.1906" height="84.374" fill="url(#paint32_linear_213_4)"/>
<rect x="779.526" y="21.9268" width="74.154" height="18.8928" transform="rotate(57.237 779.526 21.9268)" fill="url(#paint33_linear_213_4)"/>
<path d="M843.638 95.0127L824.591 105.595H862.686L843.638 95.0127Z" fill="url(#paint34_linear_213_4)"/>
<path d="M782.404 97.5527L763.356 108.135H801.451L782.404 97.5527Z" fill="url(#paint35_linear_213_4)"/>
<path d="M843.356 36.1768L824.309 25.5947H862.404L843.356 36.1768Z" fill="url(#paint36_linear_213_4)"/>
<path d="M786.778 33.0729L790.164 20.2334L769.423 32.3675L786.778 33.0729Z" fill="url(#paint37_linear_213_4)"/>
</g>
<g clip-path="url(#clip0_213_4)">
<path d="M-36.7777 236.913C-40.9587 236.913 -44.9605 235.749 -48.8549 234.62C-50.2167 234.226 -51.6263 233.814 -52.9941 233.473C-57.6649 232.308 -64.0559 231.693 -67.9622 235.402C-68.888 236.28 -70.3454 236.244 -71.2294 235.319C-72.1074 234.393 -72.0716 232.93 -71.1458 232.052C-65.7224 226.897 -57.6769 227.536 -51.8772 228.987C-50.4258 229.352 -48.9743 229.77 -47.5647 230.182C-43.2224 231.442 -39.125 232.631 -35.0395 232.201C-30.8525 231.759 -26.9522 229.644 -22.819 227.405C-17.8435 224.705 -12.6949 221.915 -6.75783 222.065C-2.0034 222.178 2.19556 224.167 6.25713 226.091C9.33915 227.548 12.2539 228.928 15.3061 229.489C20.8489 230.505 27.1444 228.874 35.1122 224.37C36.6413 223.504 38.1943 222.573 39.6935 221.677C44.6928 218.678 49.8593 215.578 55.671 213.977C59.2906 212.98 62.1516 213.751 64.6781 214.431C66.8224 215.011 68.68 215.507 71.0034 215.059C76.3014 214.031 84.4604 207.879 86.8734 203.095C88.4861 199.905 88.4025 195.832 86.6644 192.708C84.9382 189.608 81.5815 187.464 78.1052 187.243C76.1999 187.123 73.8884 187.733 73.0402 189.375C72.7236 189.996 72.8371 190.988 73.309 191.687C73.4523 191.902 73.745 192.254 74.0855 192.224C75.3577 192.111 76.4806 193.048 76.5941 194.315C76.7076 195.587 75.7698 196.71 74.5036 196.823C72.5564 196.997 70.6809 196.041 69.4803 194.267C68.0767 192.182 67.8557 189.363 68.9368 187.261C70.5196 184.179 74.2348 182.363 78.4039 182.626C83.4808 182.948 88.1994 185.953 90.7021 190.456C93.1988 194.942 93.3123 200.58 90.9948 205.167C87.9725 211.158 78.5054 218.296 71.8815 219.586C68.5068 220.243 65.8309 219.52 63.4776 218.887C61.2377 218.284 59.3025 217.764 56.8954 218.427C51.693 219.861 47.0162 222.662 42.0707 225.631C40.5416 226.544 38.9648 227.494 37.3879 228.384C31.7495 231.574 23.2321 235.623 14.4758 234.023C10.8264 233.354 7.4995 231.777 4.2801 230.254C0.487304 228.456 -3.09644 226.76 -6.87132 226.67C-11.5959 226.55 -15.974 228.934 -20.6209 231.454C-24.9692 233.808 -29.4608 236.245 -34.5617 236.782C-35.3083 236.86 -36.0549 236.896 -36.7896 236.896L-36.7777 236.913Z" fill="#BFA871"/>
<path d="M-69.6884 229.012C-70.5186 229.012 -71.325 228.564 -71.7371 227.775C-72.3284 226.646 -71.8924 225.249 -70.7635 224.657C-64.7787 221.522 -58.2145 222.226 -51.8712 222.913C-47.284 223.409 -42.9537 223.875 -38.8802 222.985C-35.392 222.226 -32.1368 220.47 -28.6904 218.613C-24.2704 216.23 -19.6952 213.769 -14.4211 213.428C-9.11717 213.088 -4.24328 214.969 0.463371 216.791C2.50611 217.579 4.43535 218.326 6.40044 218.899C19.6543 222.794 35.0525 217.926 43.8446 207.067C44.645 206.076 46.1023 205.92 47.0939 206.727C48.0854 207.527 48.2407 208.984 47.4343 209.976C39.795 219.413 27.7357 224.843 15.748 224.843C12.1464 224.843 8.56263 224.353 5.09835 223.337C2.9481 222.704 0.839665 221.892 -1.1971 221.103C-5.63497 219.389 -9.82197 217.771 -14.1225 218.045C-18.3931 218.32 -22.3292 220.44 -26.4983 222.686C-30.0761 224.616 -33.7733 226.605 -37.8946 227.506C-42.7028 228.558 -47.6126 228.026 -52.367 227.512C-58.2861 226.873 -63.8768 226.27 -68.6193 228.755C-68.9597 228.934 -69.33 229.018 -69.6884 229.018V229.012Z" fill="#BFA871"/>
<path d="M47.4342 210.955C45.0749 210.955 42.8291 210.531 40.7864 209.689C36.898 208.082 33.8638 204.899 32.6812 201.166C31.3313 196.925 32.49 192.183 35.5541 189.363C36.4919 188.503 37.9552 188.563 38.8153 189.501C39.6814 190.439 39.6157 191.902 38.678 192.762C36.9339 194.363 36.2768 197.248 37.0772 199.768C37.8537 202.217 39.9024 204.331 42.5424 205.425C45.6483 206.703 48.8677 206.41 51.0299 205.938C52.3141 205.657 54.5719 204.947 55.2408 203.37C55.7366 202.193 57.0924 201.65 58.2691 202.145C59.4458 202.641 59.9953 203.997 59.4935 205.174C58.3826 207.802 55.7963 209.623 52.0214 210.454C50.4625 210.794 48.9275 210.967 47.4342 210.967V210.955Z" fill="#BFA871"/>
<path d="M66.9895 212.389C62.3008 212.389 57.5762 210.221 54.7869 206.362C54.0403 205.329 54.2732 203.883 55.3065 203.137C56.3398 202.39 57.7853 202.623 58.5319 203.656C61.375 207.592 67.1389 208.972 71.3796 206.726C73.6254 205.538 75.2142 203.483 75.5248 201.357C75.8294 199.26 74.6647 196.979 72.9744 196.369C71.7738 195.939 71.1526 194.613 71.5887 193.413C72.0247 192.212 73.3447 191.591 74.5453 192.027C78.344 193.395 80.7332 197.695 80.1001 202.032C79.5744 205.639 77.1196 208.924 73.5418 210.818C71.517 211.887 69.2592 212.395 66.9895 212.395V212.389Z" fill="#BFA871"/>
<path d="M27.7416 196.327C21.2252 196.327 14.6788 193.478 10.4441 188.378C6.66321 183.826 5.19985 178.17 6.51986 173.248C8.13255 167.233 14.1532 163.244 19.6722 164.54C20.9146 164.832 21.6851 166.075 21.3924 167.317C21.0997 168.559 19.8574 169.33 18.615 169.037C15.5748 168.321 11.9313 170.901 10.9816 174.443C10.0618 177.865 11.2205 182.07 13.9979 185.421C18.7285 191.119 27.0965 193.269 33.8937 190.54C35.0763 190.062 36.4202 190.641 36.8981 191.824C37.3759 193.007 36.7965 194.35 35.6139 194.828C33.1053 195.838 30.4234 196.321 27.7416 196.321V196.327Z" fill="#BFA871"/>
<path d="M20.4844 167.312C19.7557 167.312 19.033 166.965 18.585 166.32C13.6334 159.188 14.6548 148.479 20.8666 142.446C27.1023 136.384 37.6923 135.87 44.4716 141.3C45.469 142.1 45.6303 143.551 44.8299 144.549C44.0296 145.546 42.5782 145.702 41.5807 144.907C36.6411 140.953 28.6314 141.341 24.086 145.761C19.5048 150.211 18.7283 158.418 22.3838 163.686C23.1125 164.731 22.8496 166.171 21.8044 166.899C21.4042 167.18 20.9443 167.312 20.4903 167.312H20.4844Z" fill="#BFA871"/>
<path d="M42.2856 145.372C42.1244 145.372 41.9631 145.354 41.8018 145.319C40.5535 145.056 39.7591 143.825 40.0219 142.577C41.3778 136.192 45.9291 130.745 51.902 128.362C57.8869 125.972 64.8752 126.821 70.1433 130.583C71.1826 131.324 71.4215 132.77 70.6808 133.803C69.9402 134.842 68.4947 135.081 67.4614 134.34C63.5253 131.527 58.0959 130.864 53.6222 132.65C49.1366 134.442 45.5707 138.713 44.5494 143.533C44.3164 144.62 43.3608 145.36 42.2916 145.36L42.2856 145.372Z" fill="#BFA871"/>
<path d="M41.6408 181.031C40.5358 181.031 39.5622 180.237 39.3651 179.114C38.6603 175.064 40.2013 170.734 43.3789 167.807C46.2041 165.209 50.188 163.829 54.3153 164.015C57.8692 164.176 61.5126 165.466 64.8634 167.748C65.9206 168.464 66.1894 169.904 65.4727 170.955C64.7559 172.012 63.3165 172.281 62.2652 171.564C59.6252 169.766 56.8 168.751 54.1062 168.632C51.1974 168.5 48.432 169.438 46.5087 171.212C44.5078 173.058 43.4864 175.847 43.9165 178.326C44.1375 179.58 43.2953 180.78 42.035 180.996C41.9036 181.019 41.7662 181.031 41.6348 181.031H41.6408Z" fill="#BFA871"/>
<path d="M58.0061 169.694C56.7399 169.694 55.7125 168.679 55.6946 167.412C55.6229 160.992 60.682 154.798 67.4672 152.994C72.9025 151.548 79.2517 152.659 85.3441 156.112C86.4551 156.739 86.8433 158.149 86.2162 159.259C85.589 160.37 84.1794 160.759 83.0684 160.132C78.0333 157.276 72.9145 156.327 68.6558 157.456C64.5166 158.555 60.2639 162.557 60.3176 167.359C60.3296 168.637 59.3082 169.682 58.036 169.694H58.0121H58.0061Z" fill="#BFA871"/>
<path d="M72.1921 156.853C71.0513 156.853 70.0598 156.005 69.9045 154.84C69.3013 150.241 71.5949 145.379 75.7341 142.458C79.9569 139.478 84.9264 139.078 88.3548 139.263C92.5239 139.49 96.478 140.625 100.301 141.718C101.525 142.07 102.236 143.348 101.883 144.573C101.531 145.797 100.253 146.508 99.0284 146.155C95.4506 145.134 91.7474 144.071 88.098 143.874C85.4042 143.725 81.5338 144.017 78.398 146.227C75.6803 148.144 74.1095 151.364 74.4798 154.243C74.647 155.509 73.7571 156.668 72.4908 156.835C72.3893 156.847 72.2877 156.853 72.1862 156.853H72.1921Z" fill="#BFA871"/>
<path d="M89.2448 143.767C88.1757 143.767 87.22 143.026 86.9871 141.939C86.4376 139.37 87.5187 136.653 90.1169 134.084C97.159 127.108 108.042 124.862 117.192 128.5C118.375 128.972 118.954 130.316 118.488 131.498C118.016 132.681 116.672 133.26 115.49 132.794C108.137 129.874 99.0404 131.755 93.3721 137.364C91.9924 138.731 91.3115 140.045 91.5086 140.971C91.7774 142.22 90.983 143.444 89.7346 143.713C89.5734 143.749 89.4121 143.767 89.2508 143.767H89.2448Z" fill="#BFA871"/>
<path d="M78.577 144.799C78.3799 144.799 78.1828 144.775 77.9857 144.722C73.2313 143.461 69.1339 139.848 67.2882 135.284C65.4008 130.608 65.8906 125.107 68.5784 120.925C71.308 116.673 76.2595 113.997 81.1872 114.14C82.4594 114.176 83.4688 115.233 83.433 116.511C83.3972 117.79 82.328 118.793 81.0618 118.757C77.7169 118.692 74.3303 120.501 72.4548 123.422C70.5972 126.319 70.2448 130.297 71.5648 133.552C72.8729 136.795 75.7817 139.364 79.1624 140.254C80.3928 140.582 81.1334 141.843 80.8049 143.079C80.5302 144.112 79.5984 144.799 78.571 144.799H78.577Z" fill="#BFA871"/>
<path d="M81.1752 118.519C81.1752 118.519 81.1334 118.519 81.1095 118.519C79.8373 118.483 78.8279 117.42 78.8637 116.148C79.0847 108.275 83.5106 100.57 90.1406 96.5148C96.7884 92.4473 105.569 92.1008 112.509 95.6308C113.644 96.2102 114.098 97.6019 113.519 98.7367C112.939 99.8716 111.547 100.326 110.413 99.7462C104.876 96.927 97.8635 97.2017 92.5536 100.451C87.2258 103.712 83.6659 109.924 83.4868 116.273C83.4509 117.528 82.4236 118.519 81.1812 118.519H81.1752Z" fill="#BFA871"/>
<path d="M111.804 100.379C111.488 100.379 111.165 100.313 110.854 100.176C109.69 99.6502 109.176 98.2824 109.696 97.1236C113.154 89.4484 121.044 83.9773 129.323 83.5114C137.613 83.0515 146.035 87.6028 150.305 94.848C150.951 95.947 150.586 97.3625 149.487 98.0076C148.388 98.6527 146.973 98.2884 146.328 97.1893C142.917 91.3956 136.192 87.7462 129.585 88.1225C122.979 88.4928 116.684 92.8709 113.913 99.017C113.524 99.8712 112.688 100.379 111.804 100.379V100.379Z" fill="#BFA871"/>
<path d="M178.832 107.147C177.769 107.147 176.813 106.406 176.58 105.325C175.392 99.8417 171.067 95.0394 165.823 93.3909C160.591 91.7424 154.391 93.2058 150.395 97.0344C149.475 97.9184 148.012 97.8825 147.128 96.9627C146.244 96.0429 146.28 94.5795 147.2 93.6955C152.462 88.6604 160.316 86.8088 167.209 88.9829C174.09 91.1511 179.537 97.1837 181.096 104.345C181.365 105.594 180.576 106.824 179.328 107.093C179.161 107.129 178.999 107.147 178.838 107.147H178.832Z" fill="#BFA871"/>
<path d="M196.817 129.353C196.172 129.353 195.539 129.084 195.079 128.565C194.236 127.603 194.332 126.146 195.294 125.304C197.635 123.255 198.543 119.367 197.456 116.058C196.405 112.868 193.693 110.138 190.193 108.753C187.033 107.504 183.222 107.277 179.167 108.114C177.913 108.37 176.694 107.564 176.443 106.316C176.186 105.067 176.993 103.843 178.241 103.592C183.175 102.577 187.899 102.881 191.895 104.464C196.65 106.346 200.371 110.144 201.846 114.618C203.512 119.683 202.073 125.507 198.346 128.78C197.91 129.162 197.366 129.353 196.823 129.353H196.817Z" fill="#BFA871"/>
<path d="M194.081 147.266C192.899 147.266 191.722 147.075 190.605 146.68C189.404 146.256 188.771 144.936 189.195 143.73C189.619 142.529 190.939 141.896 192.146 142.32C194.29 143.079 196.847 142.511 198.495 140.911C200.144 139.31 200.848 136.634 200.215 134.4C199.582 132.178 197.599 130.321 195.395 129.879C194.147 129.628 193.335 128.409 193.585 127.161C193.836 125.913 195.055 125.1 196.303 125.351C200.197 126.134 203.554 129.263 204.659 133.14C205.758 136.998 204.576 141.454 201.715 144.232C199.69 146.197 196.882 147.266 194.087 147.266H194.081Z" fill="#BFA871"/>
<path d="M185.761 145.755C184.626 145.755 183.634 144.919 183.473 143.76C182.93 139.788 181.233 137.525 177.422 135.667C172.674 133.356 166.988 134.222 160.585 135.488C159.337 135.739 158.118 134.92 157.873 133.672C157.628 132.424 158.441 131.205 159.689 130.96C165.268 129.855 172.913 128.344 179.441 131.516C184.638 134.042 187.296 137.626 188.048 143.133C188.221 144.399 187.338 145.564 186.071 145.737C185.964 145.749 185.862 145.761 185.755 145.761L185.761 145.755Z" fill="#BFA871"/>
<path d="M204.038 158.889C202.921 158.889 201.941 158.077 201.762 156.942C201.028 152.307 197.45 148.114 193.06 146.746C188.622 145.36 183.503 146.758 180.32 150.222C179.453 151.16 177.996 151.22 177.058 150.36C176.121 149.494 176.055 148.036 176.921 147.099C181.287 142.35 188.323 140.439 194.439 142.338C200.532 144.238 205.31 149.816 206.326 156.219C206.523 157.48 205.669 158.662 204.408 158.865C204.283 158.883 204.163 158.895 204.044 158.895L204.038 158.889Z" fill="#BFA871"/>
<path d="M216.999 167.502C216.217 167.502 215.458 167.108 215.022 166.392C213.141 163.298 209.939 160.974 206.463 160.192C202.993 159.409 199.146 160.126 196.166 162.115C195.103 162.826 193.669 162.539 192.964 161.476C192.253 160.413 192.54 158.979 193.603 158.274C197.671 155.557 202.73 154.613 207.484 155.688C212.227 156.763 216.414 159.785 218.97 163.996C219.633 165.083 219.287 166.505 218.2 167.168C217.823 167.395 217.411 167.502 217.005 167.502H216.999Z" fill="#BFA871"/>
<path d="M222.638 144.972C221.724 144.972 220.864 144.429 220.499 143.533C219.137 140.176 216.527 137.327 213.35 135.714C210.178 134.108 206.397 133.713 202.975 134.627C201.738 134.956 200.478 134.227 200.15 132.991C199.821 131.76 200.55 130.494 201.786 130.166C206.296 128.959 211.271 129.479 215.446 131.593C219.609 133.702 223.014 137.423 224.788 141.795C225.266 142.977 224.698 144.321 223.516 144.805C223.229 144.919 222.936 144.978 222.649 144.978L222.638 144.972Z" fill="#BFA871"/>
<path d="M246.225 172.789C245.645 172.789 245.066 172.574 244.618 172.138C243.698 171.254 243.674 169.79 244.564 168.87C247.509 165.824 248.464 160.789 246.935 156.345C245.514 152.212 242.002 148.574 237.54 146.615C233.526 144.853 228.64 144.31 223.408 145.032C222.142 145.206 220.977 144.328 220.804 143.061C220.631 141.795 221.515 140.63 222.775 140.457C228.855 139.615 234.601 140.284 239.398 142.386C245.108 144.889 249.45 149.429 251.308 154.846C253.386 160.891 252.006 167.813 247.891 172.078C247.437 172.55 246.834 172.783 246.231 172.783L246.225 172.789Z" fill="#BFA871"/>
<path d="M229.817 203.651C227.732 203.651 225.564 203.477 223.306 203.125C222.046 202.928 221.186 201.745 221.377 200.485C221.574 199.225 222.751 198.359 224.017 198.556C230.05 199.494 235.318 199.028 239.672 197.176C244.642 195.056 248.393 190.875 249.456 186.258C250.591 181.336 248.357 175.907 244.373 173.894C243.232 173.32 242.778 171.929 243.357 170.788C243.931 169.647 245.323 169.193 246.463 169.772C252.353 172.753 255.578 180.285 253.959 187.297C252.574 193.324 247.789 198.741 241.488 201.429C238.018 202.91 234.111 203.651 229.823 203.651H229.817Z" fill="#BFA871"/>
<path d="M197.844 216.701C193.591 216.701 189.344 215.835 185.384 214.127C179.603 211.624 175.523 207.611 173.893 202.814C172.029 197.325 174.018 189.817 179.955 187.398C181.138 186.915 182.482 187.482 182.965 188.665C183.449 189.847 182.882 191.191 181.699 191.675C178.324 193.049 177.106 197.905 178.265 201.327C179.889 206.105 184.566 208.74 187.218 209.886C192.916 212.353 199.594 212.741 205.531 210.955C211.474 209.164 216.88 205.132 220.362 199.894C221.067 198.83 222.5 198.544 223.563 199.249C224.626 199.953 224.913 201.387 224.208 202.45C220.081 208.662 213.917 213.255 206.857 215.381C203.912 216.265 200.872 216.707 197.838 216.707L197.844 216.701Z" fill="#BFA871"/>
<path d="M145.677 220.583C144.488 220.583 143.479 219.675 143.377 218.469C143.269 217.197 144.213 216.08 145.479 215.972C147.546 215.793 148.998 212.795 148.908 210.232C148.842 208.285 148.269 206.332 147.666 204.265C147.259 202.879 146.841 201.452 146.561 199.959C144.799 190.641 149.141 180.702 157.109 175.792C164.981 170.942 175.899 171.683 183.073 177.548C186.292 180.176 187.833 183.438 187.308 186.484C186.812 189.345 184.399 191.704 181.562 192.098C178.719 192.493 175.756 190.868 174.526 188.234C173.988 187.075 174.484 185.701 175.643 185.164C176.801 184.626 178.175 185.122 178.713 186.281C179.089 187.081 180.081 187.637 180.929 187.523C181.783 187.404 182.607 186.585 182.756 185.701C183.097 183.718 180.845 181.7 180.146 181.126C174.448 176.467 165.775 175.882 159.528 179.728C153.25 183.593 149.702 191.74 151.094 199.105C151.333 200.371 151.703 201.631 152.097 202.969C152.76 205.227 153.441 207.556 153.525 210.089C153.68 214.807 150.795 220.165 145.868 220.583C145.802 220.583 145.736 220.589 145.671 220.589L145.677 220.583Z" fill="#BFA871"/>
<path d="M157.67 230.009C156.589 230.009 155.621 229.244 155.406 228.145C155.161 226.891 155.974 225.679 157.228 225.434C158.19 225.243 159.02 225.129 159.755 225.028C161.355 224.807 162.508 224.645 164.115 223.869C166.683 222.632 168.547 220.805 169.359 218.732C170.315 216.289 170.01 213.153 168.457 209.42C167.92 208.124 167.298 206.87 166.635 205.544C165.59 203.436 164.509 201.255 163.774 198.872C162.233 193.885 162.777 189.166 165.28 185.917C166.97 183.719 169.813 182.375 172.674 182.441C175.123 182.489 177.279 183.576 178.593 185.415C179.334 186.455 179.089 187.894 178.05 188.635C177.01 189.375 175.571 189.13 174.83 188.091C174.239 187.261 173.289 187.07 172.59 187.058C171.187 187.028 169.735 187.703 168.941 188.736C167.394 190.749 167.113 194.028 168.188 197.51C168.816 199.535 169.771 201.459 170.775 203.495C171.438 204.833 172.125 206.213 172.722 207.652C174.753 212.526 175.069 216.821 173.666 220.417C172.429 223.582 169.753 226.288 166.122 228.038C163.864 229.125 162.18 229.358 160.394 229.609C159.683 229.71 158.954 229.812 158.118 229.973C157.969 230.003 157.819 230.015 157.67 230.015V230.009Z" fill="#BFA871"/>
<path d="M146.214 255.382C143.748 255.382 141.436 254.33 140.062 252.479C139.304 251.451 139.519 250.006 140.546 249.247C141.573 248.489 143.019 248.704 143.777 249.731C144.512 250.723 146.083 250.932 147.26 250.627C148.615 250.281 150.007 249.349 151.638 247.7C153.698 245.622 157.175 241.345 157.264 236.113C157.348 231.185 153.794 224.484 145.778 221.414C139.34 218.947 132.094 219.275 124.61 219.867C123.344 219.968 122.227 219.018 122.126 217.746C122.024 216.474 122.974 215.363 124.246 215.262C132.274 214.622 140.092 214.282 147.433 217.101C154.505 219.813 162.048 226.945 161.887 236.197C161.798 241.268 159.325 246.512 154.923 250.956C153.513 252.383 151.297 254.36 148.418 255.107C147.684 255.298 146.943 255.388 146.22 255.388L146.214 255.382Z" fill="#BFA871"/>
<path d="M0.445406 277.344C-5.26469 277.344 -11.0405 276.006 -16.3743 274.77L-17.8317 274.435C-26.3431 272.482 -35.9774 271.138 -42.9239 276.006C-43.9691 276.735 -45.4086 276.484 -46.1433 275.439C-46.8779 274.393 -46.6211 272.954 -45.5758 272.219C-37.1481 266.312 -26.2953 267.746 -16.7924 269.926L-15.329 270.266C-6.961 272.207 1.68777 274.208 9.15988 271.168C13.0662 269.579 16.6798 266.569 20.1799 263.66C25.8601 258.93 31.7375 254.044 39.4545 254.45C42.1901 254.593 44.7644 255.429 47.2491 256.236C50.4565 257.281 53.4908 258.261 56.2562 257.502C59.4876 256.612 61.7334 253.554 64.1166 250.311C66.3863 247.223 68.7396 244.021 72.2577 242.134C76.6597 239.774 82.3519 239.834 88.7309 242.313C90.6482 243.06 92.4998 243.938 94.2917 244.792C97.0333 246.1 99.6195 247.33 102.355 248.077C106.106 249.098 111.177 249.098 114.158 246.022C115.519 244.612 116.111 242.223 115.621 240.073C115.418 239.189 114.85 237.618 113.298 237.039C112.39 236.704 111.243 236.692 110.036 236.674C108.866 236.663 107.54 236.651 106.208 236.328C100.94 235.068 97.3737 229.19 98.425 223.486C99.3508 218.469 103.532 214.228 108.83 212.944C113.238 211.875 120.351 212.227 124.861 214.999C125.948 215.668 126.289 217.089 125.62 218.176C124.951 219.263 123.529 219.604 122.442 218.935C119.27 216.988 113.405 216.582 109.917 217.43C106.411 218.284 103.556 221.115 102.964 224.323C102.367 227.572 104.422 231.156 107.277 231.836C108.101 232.034 109.063 232.045 110.084 232.057C111.565 232.075 113.244 232.093 114.904 232.708C117.532 233.682 119.432 235.994 120.125 239.052C120.955 242.719 119.915 246.715 117.473 249.241C113.751 253.082 107.641 254.312 101.137 252.539C98.0009 251.684 95.104 250.305 92.3027 248.967C90.5049 248.113 88.8145 247.306 87.0585 246.625C83.5166 245.252 78.4516 244.057 74.4378 246.213C71.8336 247.611 69.8924 250.257 67.8317 253.052C65.0842 256.785 62.2471 260.65 57.4747 261.958C53.3713 263.087 49.5307 261.838 45.8156 260.632C43.5101 259.885 41.3299 259.174 39.2036 259.061C33.2904 258.744 28.3568 262.86 23.1305 267.208C19.3616 270.344 15.4673 273.587 10.898 275.445C7.51732 276.818 3.99331 277.338 0.445406 277.338V277.344Z" fill="#BFA871"/>
<path d="M98.6282 250.992C97.6009 250.992 96.6631 250.305 96.3943 249.266C96.0718 248.029 96.8125 246.769 98.0489 246.446C100.719 245.748 104.47 243.233 104.876 241.393C105.336 239.327 105.18 236.573 103.371 235.026C102.403 234.196 102.284 232.739 103.114 231.771C103.944 230.803 105.401 230.684 106.369 231.514C109.188 233.921 110.341 238.09 109.385 242.397C108.442 246.643 102.755 249.988 99.2136 250.914C99.0165 250.968 98.8253 250.992 98.6282 250.992V250.992Z" fill="#BFA871"/>
<path d="M6.66937 291.751C0.391844 291.751 -5.97528 290.21 -12.211 288.698C-12.9576 288.519 -13.7042 288.34 -14.4389 288.161C-23.5296 285.993 -34.9678 284.296 -42.7923 290.461C-43.7957 291.249 -45.2471 291.076 -46.0356 290.078C-46.824 289.075 -46.6508 287.623 -45.6533 286.835C-36.2758 279.446 -23.4759 281.262 -13.3697 283.669C-12.6231 283.849 -11.8765 284.028 -11.1239 284.213C-1.82411 286.465 7.79227 288.794 16.1663 285.431C18.7287 284.404 21.0999 282.869 23.6145 281.244C26.9772 279.07 30.4595 276.824 34.5509 275.779C40.2729 274.322 46.1264 275.451 51.7887 276.55C58.2454 277.798 64.3378 278.975 69.4088 276.131C71.2663 275.092 72.891 273.533 74.6112 271.891C76.8749 269.729 79.2103 267.495 82.3162 266.216C88.5101 263.672 94.6981 265.9 100.677 268.056C102.761 268.809 104.733 269.52 106.692 270.027C112.569 271.562 119.36 270.696 128.069 267.304C133.408 265.225 139.823 260.763 140.056 251.308C140.086 250.03 141.137 249.026 142.422 249.056C143.694 249.086 144.703 250.149 144.673 251.422C144.44 260.781 139.136 267.949 129.741 271.61C123.667 273.975 114.54 276.848 105.527 274.495C103.365 273.933 101.203 273.151 99.112 272.398C93.7185 270.451 88.6176 268.618 84.0723 270.487C81.7727 271.431 79.8434 273.276 77.8007 275.23C75.9491 277.004 74.0318 278.831 71.6665 280.157C65.1202 283.831 57.893 282.433 50.9047 281.083C45.5052 280.038 40.4043 279.052 35.6857 280.253C32.329 281.113 29.3127 283.06 26.1172 285.121C23.5309 286.793 20.861 288.519 17.8865 289.714C14.2131 291.189 10.4562 291.751 6.66339 291.751H6.66937Z" fill="#BFA871"/>
<path d="M273.401 117.122C272.052 117.122 270.708 116.984 269.423 116.721C266.15 116.052 263.104 114.792 260.154 113.574C257.621 112.528 255.226 111.537 252.735 110.91C246.332 109.297 239.499 110.163 232.893 110.993C227.201 111.71 221.664 112.612 216.312 113.484C210.919 114.362 205.34 115.27 199.564 115.999C198.304 116.16 197.145 115.264 196.984 113.998C196.823 112.731 197.719 111.579 198.985 111.417C204.677 110.701 210.214 109.799 215.566 108.927C220.959 108.049 226.538 107.141 232.314 106.412C239.015 105.57 246.613 104.608 253.858 106.43C256.677 107.141 259.335 108.24 261.91 109.303C264.783 110.492 267.5 111.614 270.337 112.194C275.05 113.156 281.047 111.877 282.869 107.595C284.798 103.061 281.429 97.62 277.642 94.0422C276.633 93.0925 275.582 92.1787 274.471 91.217C270.773 88.0215 266.945 84.7185 264.998 79.8864C262.471 73.6328 264.066 66.0054 268.874 61.3405C273.706 56.6518 281.298 55.4095 287.336 58.3183C288.483 58.8737 288.967 60.2535 288.411 61.4003C287.856 62.5471 286.476 63.0309 285.329 62.4754C281.077 60.4207 275.51 61.3405 272.093 64.6495C268.653 67.9884 267.47 73.6686 269.28 78.1543C270.809 81.9471 274.052 84.7484 277.487 87.7169C278.592 88.6726 279.733 89.6581 280.814 90.6795C285.736 95.3264 289.97 102.685 287.121 109.399C284.852 114.738 279.052 117.116 273.39 117.116L273.401 117.122Z" fill="#BFA871"/>
<path d="M188.921 107.773C187.702 107.773 186.687 106.824 186.615 105.593C186.543 104.321 187.517 103.228 188.795 103.156C190.76 103.049 192.624 102.965 194.398 102.882C202.509 102.517 208.918 102.225 216.324 99.7936L218.236 99.1605C227.279 96.1621 236.632 93.0681 246.225 94.8481C249.241 95.4095 252.102 96.4309 254.867 97.4284C257.776 98.4736 260.53 99.4591 263.379 99.9131C266.574 100.421 271.317 99.9549 274.19 97.739C275.653 96.6101 276.448 95.1885 276.621 93.3847C276.746 92.1184 277.869 91.1867 279.147 91.3121C280.42 91.4375 281.345 92.5664 281.22 93.8386C280.921 96.8848 279.464 99.501 277.015 101.394C272.762 104.679 266.622 105.104 262.656 104.476C259.383 103.957 256.295 102.852 253.314 101.777C250.603 100.803 248.04 99.8832 245.388 99.3934C236.961 97.8285 228.186 100.737 219.693 103.551L217.77 104.184C209.76 106.812 203.076 107.116 194.607 107.493C192.845 107.57 190.999 107.654 189.052 107.761C189.01 107.761 188.962 107.761 188.921 107.761V107.773Z" fill="#BFA871"/>
<path d="M286.99 62.7079C286.625 62.7079 286.249 62.6183 285.909 62.4331C284.786 61.8358 284.356 60.4322 284.959 59.3093C289.277 51.2041 296.236 44.7473 304.556 41.1337C312.888 37.5142 322.284 36.8631 331.016 39.306C332.246 39.6525 332.963 40.9247 332.617 42.1551C332.27 43.3855 330.998 44.1023 329.768 43.7558C322.057 41.5996 313.754 42.173 306.396 45.3685C299.025 48.57 292.861 54.292 289.032 61.4834C288.614 62.2659 287.82 62.7079 286.99 62.7079V62.7079Z" fill="#BFA871"/>
<path d="M339.778 57.6849C339.402 57.6849 339.026 57.5953 338.673 57.3982C332.151 53.8264 329.499 46.6291 331.398 37.6458C333.172 29.2598 338.028 23.1914 345.076 20.5573C353.379 17.4514 360.421 19.9481 365.623 22.4687C366.77 23.0241 367.254 24.4039 366.692 25.5566C366.131 26.7094 364.757 27.1813 363.604 26.6258C357.016 23.4363 351.957 22.9166 346.689 24.8817C341.176 26.9424 337.347 31.8163 335.914 38.6015C335.06 42.6272 334.576 49.8903 340.889 53.3486C342.006 53.9638 342.418 55.3674 341.809 56.4844C341.391 57.2489 340.596 57.6849 339.778 57.6849Z" fill="#BFA871"/>
<path d="M436.282 26.9123C435.572 26.9123 434.873 26.5837 434.419 25.9685C426.642 15.3965 413.77 8.74864 400.833 8.62321C387.89 8.47986 374.899 14.8768 366.919 25.2876C366.142 26.303 364.691 26.4941 363.682 25.7177C362.672 24.9412 362.475 23.4898 363.252 22.4804C372.097 10.9347 386.504 3.85683 400.881 4.00018C415.246 4.14353 429.521 11.5141 438.14 23.227C438.898 24.2543 438.677 25.6998 437.65 26.4583C437.238 26.7629 436.76 26.9063 436.282 26.9063V26.9123Z" fill="#BFA871"/>
<path d="M465.526 63.4123C464.421 63.4123 463.447 62.6179 463.25 61.495C463.029 60.2407 463.871 59.0401 465.131 58.8251C470.208 57.9411 474.461 51.7591 475.1 46.7598C475.763 41.5813 473.547 35.919 469.318 31.9649C465.514 28.4111 460.072 26.1354 453.986 25.55C448.939 25.0603 443.402 25.6277 436.575 27.33C435.339 27.6406 434.084 26.888 433.774 25.6456C433.463 24.4092 434.222 23.1549 435.458 22.8443C442.817 21.0106 448.849 20.4074 454.434 20.9509C461.524 21.6378 467.933 24.3495 472.472 28.5902C477.77 33.5358 480.53 40.7212 479.681 47.3452C478.821 54.0587 473.32 62.0923 465.92 63.3765C465.788 63.4003 465.651 63.4123 465.52 63.4123H465.526Z" fill="#BFA871"/>
<path d="M307.775 92.6795C307.029 92.6795 306.3 92.3211 305.852 91.6521C301.337 84.8968 302.597 75.0534 308.671 69.7077C314.776 64.3321 324.559 64.4993 330.484 70.084C331.41 70.956 331.458 72.4194 330.58 73.3512C329.708 74.277 328.245 74.3247 327.313 73.4467C323.15 69.5225 316.012 69.4031 311.724 73.1779C307.399 76.9827 306.473 84.2696 309.693 89.0898C310.403 90.1529 310.117 91.5864 309.06 92.2912C308.665 92.5541 308.217 92.6795 307.775 92.6795Z" fill="#BFA871"/>
<path d="M329.69 74.6895C328.508 74.6895 327.498 73.7876 327.391 72.5871C326.662 64.5416 331.434 56.4124 338.733 53.2468C346.056 50.0752 355.141 52.2254 360.331 58.3716C361.156 59.3451 361.03 60.8025 360.056 61.6268C359.083 62.4511 357.626 62.3256 356.801 61.352C352.961 56.8007 345.984 55.1402 340.573 57.4816C335.138 59.8349 331.452 66.1543 331.996 72.169C332.109 73.4412 331.172 74.5641 329.905 74.6776C329.834 74.6836 329.762 74.6895 329.696 74.6895H329.69Z" fill="#BFA871"/>
<path d="M359.847 62.4805C358.7 62.4805 357.709 61.6323 357.56 60.4616C356.67 53.5092 359.895 46.1924 365.599 42.2622C371.321 38.3141 379.217 37.9796 385.244 41.4379C386.349 42.071 386.731 43.4866 386.098 44.5916C385.465 45.6966 384.049 46.0789 382.944 45.4457C378.429 42.8595 372.516 43.1044 368.221 46.0669C363.909 49.0474 361.466 54.5962 362.141 59.8763C362.302 61.1425 361.406 62.3013 360.146 62.4625C360.044 62.4745 359.949 62.4805 359.847 62.4805V62.4805Z" fill="#BFA871"/>
<path d="M443.665 61.8899C443.366 61.8899 443.067 61.8301 442.775 61.7107C441.598 61.2209 441.043 59.865 441.532 58.6884C442.888 55.4511 441.891 51.0789 439.167 48.2836C436.587 45.6376 432.627 44.1981 428.32 44.3415C424.235 44.4788 420.215 45.9721 417.008 48.5583C416.016 49.3587 414.559 49.2034 413.758 48.2059C412.958 47.2144 413.113 45.757 414.111 44.9567C418.095 41.7492 423.088 39.8857 428.171 39.7184C433.774 39.5392 438.994 41.4804 442.476 45.0522C446.502 49.1795 447.87 55.5168 445.797 60.4623C445.427 61.3463 444.567 61.8839 443.665 61.8839V61.8899Z" fill="#BFA871"/>
<path d="M472.156 77.3002C471.015 77.3002 470.017 76.452 469.868 75.2873C469.068 69.1233 464.714 63.5147 459.027 61.3346C453.359 59.1545 446.49 60.4327 441.927 64.5122C440.977 65.3603 439.514 65.2827 438.666 64.333C437.818 63.3833 437.895 61.9199 438.845 61.0718C444.662 55.8694 453.437 54.2448 460.676 57.0281C467.897 59.8055 473.434 66.9073 474.443 74.702C474.605 75.9682 473.715 77.127 472.448 77.2882C472.347 77.3002 472.245 77.3061 472.15 77.3061L472.156 77.3002Z" fill="#BFA871"/>
<path d="M499.822 86.2471C498.825 86.2471 497.905 85.596 497.606 84.5926C496.131 79.6351 492.058 75.4541 487.214 73.9369C482.387 72.4258 476.731 73.5427 472.807 76.792C471.821 77.6043 470.37 77.4669 469.558 76.4814C468.745 75.4959 468.883 74.0445 469.868 73.2321C475.047 68.9496 482.226 67.534 488.599 69.5289C494.96 71.5239 500.109 76.792 502.038 83.2786C502.403 84.503 501.704 85.7872 500.485 86.1515C500.264 86.2172 500.043 86.2471 499.828 86.2471H499.822Z" fill="#BFA871"/>
<path d="M514.892 67.4743C513.817 67.4743 512.861 66.7217 512.634 65.6347C511.039 57.9296 505.646 51.234 498.556 48.1639C491.4 45.064 484.854 45.5239 478.547 49.5616C477.471 50.2485 476.044 49.9379 475.357 48.8627C474.67 47.7876 474.981 46.3601 476.056 45.6732C483.647 40.8113 491.836 40.2199 500.39 43.9291C508.841 47.5845 515.268 55.5464 517.155 64.7029C517.412 65.9512 516.612 67.1757 515.364 67.4325C515.208 67.4624 515.047 67.4803 514.892 67.4803V67.4743Z" fill="#BFA871"/>
<path d="M530.404 127.228C530.004 127.228 529.609 127.216 529.209 127.192C522.806 126.833 515.382 122.455 514.241 115.049C513.435 109.823 515.896 104.232 521.367 98.8803C522.293 97.9724 523.26 97.0884 524.198 96.2343C527.184 93.5106 530.004 90.9363 531.622 87.6154C533.868 83.0043 533.348 77.1389 530.338 73.0116C527.34 68.9142 522.018 66.746 517.09 67.6181C515.836 67.8391 514.635 67.0029 514.414 65.7485C514.193 64.4942 515.029 63.2937 516.284 63.0727C522.908 61.896 530.051 64.7989 534.065 70.288C538.061 75.7532 538.748 83.5299 535.773 89.6402C533.772 93.7555 530.487 96.7479 527.316 99.6508C526.408 100.481 525.47 101.335 524.604 102.183C521.564 105.158 518.094 109.685 518.81 114.344C519.557 119.164 524.819 122.318 529.472 122.581C534.919 122.885 540.361 120.407 545.043 118.059C545.551 117.802 546.065 117.546 546.572 117.289C551.458 114.816 556.511 112.254 562.156 111.555C569.723 110.617 577.01 113.173 583.246 115.64C583.969 115.927 584.692 116.214 585.414 116.506C590.862 118.692 596.488 120.95 602.186 121.332C618.474 122.419 623.492 119.905 624.835 117.599C625.48 116.5 626.89 116.124 627.995 116.763C629.1 117.402 629.47 118.818 628.831 119.923C626.95 123.154 622.112 127.287 601.887 125.938C595.455 125.507 589.482 123.112 583.7 120.789C582.983 120.502 582.266 120.215 581.556 119.929C575.852 117.671 569.222 115.33 562.729 116.136C557.879 116.739 553.196 119.11 548.663 121.41C548.149 121.673 547.63 121.936 547.116 122.193C542.218 124.647 536.532 127.234 530.41 127.234L530.404 127.228Z" fill="#BFA871"/>
<path d="M609.592 115.461C604.593 115.461 600.782 115.031 600.681 115.019C594.427 114.248 588.645 111.74 583.06 109.321C581.645 108.705 580.188 108.072 578.754 107.487C572.901 105.08 565.279 102.565 558.237 104.459C555.322 105.241 552.623 106.734 549.756 108.311C548.268 109.135 546.727 109.984 545.139 110.736C540.742 112.821 534.322 114.684 528.719 111.734C523.546 109.016 521.563 102.727 524 96.7835C524.484 95.6009 525.834 95.0394 527.017 95.5232C528.199 96.007 528.761 97.3569 528.277 98.5395C527.017 101.61 527.292 105.767 530.869 107.648C534.788 109.709 539.715 108.192 543.162 106.561C544.619 105.868 546.028 105.092 547.522 104.268C550.502 102.625 553.578 100.923 557.037 99.9969C565.417 97.7451 573.982 100.534 580.51 103.216C581.985 103.82 583.467 104.465 584.9 105.086C590.431 107.487 595.657 109.751 601.248 110.438C610.751 111.608 625.988 110.688 628.682 105.958C629.315 104.847 630.724 104.465 631.829 105.092C632.94 105.725 633.322 107.135 632.695 108.24C629.243 114.302 617.811 115.461 609.592 115.461V115.461Z" fill="#BFA871"/>
</g>
<g clip-path="url(#clip1_213_4)">
<path d="M2023.78 232.913C2027.96 232.913 2031.96 231.749 2035.85 230.62C2037.22 230.226 2038.63 229.814 2039.99 229.473C2044.66 228.308 2051.06 227.693 2054.96 231.402C2055.89 232.28 2057.35 232.244 2058.23 231.319C2059.11 230.393 2059.07 228.93 2058.15 228.052C2052.72 222.897 2044.68 223.536 2038.88 224.987C2037.43 225.352 2035.97 225.77 2034.56 226.182C2030.22 227.442 2026.13 228.631 2022.04 228.201C2017.85 227.759 2013.95 225.644 2009.82 223.405C2004.84 220.705 1999.69 217.915 1993.76 218.065C1989 218.178 1984.8 220.167 1980.74 222.091C1977.66 223.548 1974.75 224.928 1971.69 225.489C1966.15 226.505 1959.86 224.874 1951.89 220.37C1950.36 219.504 1948.81 218.573 1947.31 217.677C1942.31 214.678 1937.14 211.578 1931.33 209.977C1927.71 208.98 1924.85 209.751 1922.32 210.431C1920.18 211.011 1918.32 211.507 1916 211.059C1910.7 210.031 1902.54 203.879 1900.13 199.095C1898.51 195.905 1898.6 191.832 1900.34 188.708C1902.06 185.608 1905.42 183.464 1908.89 183.243C1910.8 183.123 1913.11 183.733 1913.96 185.375C1914.28 185.996 1914.16 186.988 1913.69 187.687C1913.55 187.902 1913.25 188.254 1912.91 188.224C1911.64 188.111 1910.52 189.048 1910.41 190.315C1910.29 191.587 1911.23 192.71 1912.5 192.823C1914.44 192.997 1916.32 192.041 1917.52 190.267C1918.92 188.182 1919.14 185.363 1918.06 183.261C1916.48 180.179 1912.77 178.363 1908.6 178.626C1903.52 178.948 1898.8 181.953 1896.3 186.456C1893.8 190.942 1893.69 196.58 1896.01 201.167C1899.03 207.158 1908.49 214.296 1915.12 215.586C1918.49 216.243 1921.17 215.52 1923.52 214.887C1925.76 214.284 1927.7 213.764 1930.1 214.427C1935.31 215.861 1939.98 218.662 1944.93 221.631C1946.46 222.544 1948.04 223.494 1949.61 224.384C1955.25 227.574 1963.77 231.623 1972.52 230.023C1976.17 229.354 1979.5 227.777 1982.72 226.254C1986.51 224.456 1990.1 222.76 1993.87 222.67C1998.6 222.55 2002.97 224.934 2007.62 227.454C2011.97 229.808 2016.46 232.245 2021.56 232.782C2022.31 232.86 2023.05 232.896 2023.79 232.896L2023.78 232.913Z" fill="#BFA871"/>
<path d="M1920.01 208.389C1924.7 208.389 1929.42 206.221 1932.21 202.362C1932.96 201.329 1932.73 199.883 1931.69 199.137C1930.66 198.39 1929.21 198.623 1928.47 199.656C1925.63 203.592 1919.86 204.972 1915.62 202.726C1913.37 201.538 1911.79 199.483 1911.48 197.357C1911.17 195.26 1912.34 192.979 1914.03 192.369C1915.23 191.939 1915.85 190.613 1915.41 189.413C1914.98 188.212 1913.66 187.591 1912.45 188.027C1908.66 189.395 1906.27 193.695 1906.9 198.032C1907.43 201.639 1909.88 204.924 1913.46 206.818C1915.48 207.887 1917.74 208.395 1920.01 208.395V208.389Z" fill="#BFA871"/>
<path d="M1944.71 141.372C1944.88 141.372 1945.04 141.354 1945.2 141.319C1946.45 141.056 1947.24 139.825 1946.98 138.577C1945.62 132.192 1941.07 126.745 1935.1 124.362C1929.11 121.972 1922.12 122.821 1916.86 126.583C1915.82 127.324 1915.58 128.77 1916.32 129.803C1917.06 130.842 1918.51 131.081 1919.54 130.34C1923.47 127.527 1928.9 126.864 1933.38 128.65C1937.86 130.442 1941.43 134.713 1942.45 139.533C1942.68 140.62 1943.64 141.36 1944.71 141.36L1944.71 141.372Z" fill="#BFA871"/>
<path d="M1928.99 165.694C1930.26 165.694 1931.29 164.679 1931.31 163.412C1931.38 156.992 1926.32 150.798 1919.53 148.994C1914.1 147.548 1907.75 148.659 1901.66 152.112C1900.54 152.739 1900.16 154.149 1900.78 155.259C1901.41 156.37 1902.82 156.759 1903.93 156.132C1908.97 153.276 1914.09 152.327 1918.34 153.456C1922.48 154.555 1926.74 158.557 1926.68 163.359C1926.67 164.637 1927.69 165.682 1928.96 165.694H1928.99H1928.99Z" fill="#BFA871"/>
<path d="M1914.81 152.853C1915.95 152.853 1916.94 152.005 1917.1 150.84C1917.7 146.241 1915.41 141.379 1911.27 138.458C1907.04 135.478 1902.07 135.078 1898.65 135.263C1894.48 135.49 1890.52 136.625 1886.7 137.718C1885.47 138.07 1884.76 139.348 1885.12 140.573C1885.47 141.797 1886.75 142.508 1887.97 142.155C1891.55 141.134 1895.25 140.071 1898.9 139.874C1901.6 139.725 1905.47 140.017 1908.6 142.227C1911.32 144.144 1912.89 147.364 1912.52 150.243C1912.35 151.509 1913.24 152.668 1914.51 152.835C1914.61 152.847 1914.71 152.853 1914.81 152.853H1914.81Z" fill="#BFA871"/>
<path d="M1897.76 139.767C1898.82 139.767 1899.78 139.026 1900.01 137.939C1900.56 135.37 1899.48 132.653 1896.88 130.084C1889.84 123.108 1878.96 120.862 1869.81 124.5C1868.63 124.972 1868.05 126.316 1868.51 127.498C1868.98 128.681 1870.33 129.26 1871.51 128.794C1878.86 125.874 1887.96 127.755 1893.63 133.364C1895.01 134.731 1895.69 136.045 1895.49 136.971C1895.22 138.22 1896.02 139.444 1897.27 139.713C1897.43 139.749 1897.59 139.767 1897.75 139.767H1897.76Z" fill="#BFA871"/>
<path d="M1908.42 140.799C1908.62 140.799 1908.82 140.775 1909.01 140.722C1913.77 139.461 1917.87 135.848 1919.71 131.284C1921.6 126.608 1921.11 121.107 1918.42 116.925C1915.69 112.673 1910.74 109.997 1905.81 110.14C1904.54 110.176 1903.53 111.233 1903.57 112.511C1903.6 113.79 1904.67 114.793 1905.94 114.757C1909.28 114.692 1912.67 116.501 1914.55 119.422C1916.4 122.319 1916.76 126.297 1915.44 129.552C1914.13 132.795 1911.22 135.364 1907.84 136.254C1906.61 136.582 1905.87 137.843 1906.2 139.079C1906.47 140.112 1907.4 140.799 1908.43 140.799H1908.42Z" fill="#BFA871"/>
<path d="M1905.82 114.519C1905.82 114.519 1905.87 114.519 1905.89 114.519C1907.16 114.483 1908.17 113.42 1908.14 112.148C1907.92 104.275 1903.49 96.5704 1896.86 92.5148C1890.21 88.4473 1881.43 88.1008 1874.49 91.6308C1873.36 92.2102 1872.9 93.6019 1873.48 94.7367C1874.06 95.8716 1875.45 96.3255 1876.59 95.7462C1882.12 92.927 1889.14 93.2017 1894.45 96.451C1899.77 99.7122 1903.33 105.924 1903.51 112.273C1903.55 113.528 1904.58 114.519 1905.82 114.519H1905.82Z" fill="#BFA871"/>
<path d="M1875.2 96.3789C1875.51 96.3789 1875.83 96.3132 1876.15 96.1758C1877.31 95.6502 1877.82 94.2824 1877.3 93.1236C1873.85 85.4484 1865.96 79.9773 1857.68 79.5114C1849.39 79.0515 1840.97 83.6028 1836.69 90.848C1836.05 91.947 1836.41 93.3625 1837.51 94.0076C1838.61 94.6527 1840.03 94.2884 1840.67 93.1893C1844.08 87.3956 1850.81 83.7462 1857.41 84.1225C1864.02 84.4928 1870.32 88.8709 1873.09 95.017C1873.48 95.8712 1874.31 96.3789 1875.2 96.3789V96.3789Z" fill="#BFA871"/>
<path d="M1808.17 103.147C1809.23 103.147 1810.19 102.406 1810.42 101.325C1811.61 95.8417 1815.93 91.0394 1821.18 89.3909C1826.41 87.7424 1832.61 89.2058 1836.6 93.0344C1837.52 93.9184 1838.99 93.8825 1839.87 92.9627C1840.76 92.0429 1840.72 90.5795 1839.8 89.6955C1834.54 84.6604 1826.68 82.8088 1819.79 84.9829C1812.91 87.1511 1807.46 93.1837 1805.9 100.345C1805.64 101.594 1806.42 102.824 1807.67 103.093C1807.84 103.129 1808 103.147 1808.16 103.147H1808.17Z" fill="#BFA871"/>
<path d="M1790.18 125.353C1790.83 125.353 1791.46 125.084 1791.92 124.565C1792.76 123.603 1792.67 122.146 1791.71 121.304C1789.36 119.255 1788.46 115.367 1789.54 112.058C1790.6 108.868 1793.31 106.138 1796.81 104.753C1799.97 103.504 1803.78 103.277 1807.83 104.114C1809.09 104.37 1810.31 103.564 1810.56 102.316C1810.81 101.067 1810.01 99.843 1808.76 99.5921C1803.83 98.5767 1799.1 98.8813 1795.1 100.464C1790.35 102.346 1786.63 106.144 1785.15 110.618C1783.49 115.683 1784.93 121.507 1788.65 124.78C1789.09 125.162 1789.63 125.353 1790.18 125.353H1790.18Z" fill="#BFA871"/>
<path d="M1792.92 143.266C1794.1 143.266 1795.28 143.075 1796.4 142.68C1797.6 142.256 1798.23 140.936 1797.8 139.73C1797.38 138.529 1796.06 137.896 1794.85 138.32C1792.71 139.079 1790.15 138.511 1788.5 136.911C1786.86 135.31 1786.15 132.634 1786.78 130.4C1787.42 128.178 1789.4 126.321 1791.6 125.879C1792.85 125.628 1793.67 124.409 1793.41 123.161C1793.16 121.913 1791.95 121.1 1790.7 121.351C1786.8 122.134 1783.45 125.263 1782.34 129.14C1781.24 132.998 1782.42 137.454 1785.29 140.232C1787.31 142.197 1790.12 143.266 1792.91 143.266H1792.92Z" fill="#BFA871"/>
<path d="M1801.24 141.755C1802.37 141.755 1803.37 140.919 1803.53 139.76C1804.07 135.788 1805.77 133.525 1809.58 131.667C1814.33 129.356 1820.01 130.222 1826.42 131.488C1827.66 131.739 1828.88 130.92 1829.13 129.672C1829.37 128.424 1828.56 127.205 1827.31 126.96C1821.73 125.855 1814.09 124.344 1807.56 127.516C1802.36 130.042 1799.7 133.626 1798.95 139.133C1798.78 140.399 1799.66 141.564 1800.93 141.737C1801.04 141.749 1801.14 141.761 1801.25 141.761L1801.24 141.755Z" fill="#BFA871"/>
<path d="M1782.96 154.889C1784.08 154.889 1785.06 154.077 1785.24 152.942C1785.97 148.307 1789.55 144.114 1793.94 142.746C1798.38 141.36 1803.5 142.758 1806.68 146.222C1807.55 147.16 1809 147.22 1809.94 146.36C1810.88 145.494 1810.95 144.036 1810.08 143.099C1805.71 138.35 1798.68 136.439 1792.56 138.338C1786.47 140.238 1781.69 145.816 1780.67 152.219C1780.48 153.48 1781.33 154.662 1782.59 154.865C1782.72 154.883 1782.84 154.895 1782.96 154.895L1782.96 154.889Z" fill="#BFA871"/>
<path d="M1770 163.502C1770.78 163.502 1771.54 163.108 1771.98 162.392C1773.86 159.298 1777.06 156.974 1780.54 156.192C1784.01 155.409 1787.85 156.126 1790.83 158.115C1791.9 158.826 1793.33 158.539 1794.04 157.476C1794.75 156.413 1794.46 154.979 1793.4 154.274C1789.33 151.557 1784.27 150.613 1779.52 151.688C1774.77 152.763 1770.59 155.785 1768.03 159.996C1767.37 161.083 1767.71 162.505 1768.8 163.168C1769.18 163.395 1769.59 163.502 1769.99 163.502H1770Z" fill="#BFA871"/>
<path d="M1764.36 140.972C1765.28 140.972 1766.14 140.429 1766.5 139.533C1767.86 136.176 1770.47 133.327 1773.65 131.714C1776.82 130.108 1780.6 129.713 1784.03 130.627C1785.26 130.956 1786.52 130.227 1786.85 128.991C1787.18 127.76 1786.45 126.494 1785.21 126.166C1780.7 124.959 1775.73 125.479 1771.55 127.593C1767.39 129.702 1763.99 133.423 1762.21 137.795C1761.73 138.977 1762.3 140.321 1763.48 140.805C1763.77 140.919 1764.06 140.978 1764.35 140.978L1764.36 140.972Z" fill="#BFA871"/>
<path d="M1740.78 168.789C1741.35 168.789 1741.93 168.574 1742.38 168.138C1743.3 167.254 1743.33 165.79 1742.44 164.87C1739.49 161.824 1738.54 156.789 1740.06 152.345C1741.49 148.212 1745 144.574 1749.46 142.615C1753.47 140.853 1758.36 140.31 1763.59 141.032C1764.86 141.206 1766.02 140.328 1766.2 139.061C1766.37 137.795 1765.49 136.63 1764.23 136.457C1758.14 135.615 1752.4 136.284 1747.6 138.386C1741.89 140.889 1737.55 145.429 1735.69 150.846C1733.61 156.891 1734.99 163.813 1739.11 168.078C1739.56 168.55 1740.17 168.783 1740.77 168.783L1740.78 168.789Z" fill="#BFA871"/>
<path d="M1757.18 199.651C1759.27 199.651 1761.44 199.477 1763.69 199.125C1764.95 198.928 1765.81 197.745 1765.62 196.485C1765.43 195.225 1764.25 194.359 1762.98 194.556C1756.95 195.494 1751.68 195.028 1747.33 193.176C1742.36 191.056 1738.61 186.875 1737.54 182.258C1736.41 177.336 1738.64 171.907 1742.63 169.894C1743.77 169.32 1744.22 167.929 1743.64 166.788C1743.07 165.647 1741.68 165.193 1740.54 165.772C1734.65 168.753 1731.42 176.285 1733.04 183.297C1734.43 189.324 1739.21 194.741 1745.51 197.429C1748.98 198.91 1752.89 199.651 1757.18 199.651H1757.18Z" fill="#BFA871"/>
<path d="M1789.16 212.701C1793.41 212.701 1797.66 211.835 1801.62 210.127C1807.4 207.624 1811.48 203.611 1813.11 198.814C1814.97 193.325 1812.98 185.817 1807.04 183.398C1805.86 182.915 1804.52 183.482 1804.03 184.665C1803.55 185.847 1804.12 187.191 1805.3 187.675C1808.68 189.049 1809.89 193.905 1808.74 197.327C1807.11 202.105 1802.43 204.74 1799.78 205.886C1794.08 208.353 1787.41 208.741 1781.47 206.955C1775.53 205.164 1770.12 201.132 1766.64 195.894C1765.93 194.83 1764.5 194.544 1763.44 195.249C1762.37 195.953 1762.09 197.387 1762.79 198.45C1766.92 204.662 1773.08 209.255 1780.14 211.381C1783.09 212.265 1786.13 212.707 1789.16 212.707L1789.16 212.701Z" fill="#BFA871"/>
<path d="M1841.32 216.583C1842.51 216.583 1843.52 215.675 1843.62 214.469C1843.73 213.197 1842.79 212.08 1841.52 211.972C1839.45 211.793 1838 208.795 1838.09 206.232C1838.16 204.285 1838.73 202.332 1839.33 200.265C1839.74 198.879 1840.16 197.452 1840.44 195.959C1842.2 186.641 1837.86 176.702 1829.89 171.792C1822.02 166.942 1811.1 167.683 1803.93 173.548C1800.71 176.176 1799.17 179.438 1799.69 182.484C1800.19 185.345 1802.6 187.704 1805.44 188.098C1808.28 188.493 1811.24 186.868 1812.47 184.234C1813.01 183.075 1812.52 181.701 1811.36 181.164C1810.2 180.626 1808.82 181.122 1808.29 182.281C1807.91 183.081 1806.92 183.637 1806.07 183.523C1805.22 183.404 1804.39 182.585 1804.24 181.701C1803.9 179.718 1806.15 177.7 1806.85 177.126C1812.55 172.467 1821.22 171.882 1827.47 175.728C1833.75 179.593 1837.3 187.74 1835.91 195.105C1835.67 196.371 1835.3 197.631 1834.9 198.969C1834.24 201.227 1833.56 203.556 1833.48 206.089C1833.32 210.807 1836.2 216.165 1841.13 216.583C1841.2 216.583 1841.26 216.589 1841.33 216.589L1841.32 216.583Z" fill="#BFA871"/>
<path d="M1829.33 226.009C1830.41 226.009 1831.38 225.244 1831.59 224.145C1831.84 222.891 1831.03 221.679 1829.77 221.434C1828.81 221.243 1827.98 221.129 1827.25 221.028C1825.64 220.807 1824.49 220.645 1822.89 219.869C1820.32 218.632 1818.45 216.805 1817.64 214.732C1816.69 212.289 1816.99 209.153 1818.54 205.42C1819.08 204.124 1819.7 202.87 1820.36 201.544C1821.41 199.436 1822.49 197.255 1823.23 194.872C1824.77 189.885 1824.22 185.166 1821.72 181.917C1820.03 179.719 1817.19 178.375 1814.33 178.441C1811.88 178.489 1809.72 179.576 1808.41 181.415C1807.67 182.455 1807.91 183.894 1808.95 184.635C1809.99 185.375 1811.43 185.13 1812.17 184.091C1812.76 183.261 1813.71 183.07 1814.41 183.058C1815.81 183.028 1817.26 183.703 1818.06 184.736C1819.61 186.749 1819.89 190.028 1818.81 193.51C1818.18 195.535 1817.23 197.459 1816.23 199.495C1815.56 200.833 1814.88 202.213 1814.28 203.652C1812.25 208.526 1811.93 212.821 1813.33 216.417C1814.57 219.582 1817.25 222.288 1820.88 224.038C1823.14 225.125 1824.82 225.358 1826.61 225.609C1827.32 225.71 1828.05 225.812 1828.88 225.973C1829.03 226.003 1829.18 226.015 1829.33 226.015V226.009Z" fill="#BFA871"/>
<path d="M1840.79 251.382C1843.25 251.382 1845.56 250.33 1846.94 248.479C1847.7 247.451 1847.48 246.006 1846.45 245.247C1845.43 244.489 1843.98 244.704 1843.22 245.731C1842.49 246.723 1840.92 246.932 1839.74 246.627C1838.38 246.281 1836.99 245.349 1835.36 243.7C1833.3 241.622 1829.83 237.345 1829.74 232.113C1829.65 227.185 1833.21 220.484 1841.22 217.414C1847.66 214.947 1854.91 215.275 1862.39 215.867C1863.66 215.968 1864.77 215.018 1864.87 213.746C1864.98 212.474 1864.03 211.363 1862.75 211.262C1854.73 210.622 1846.91 210.282 1839.57 213.101C1832.5 215.813 1824.95 222.945 1825.11 232.197C1825.2 237.268 1827.68 242.512 1832.08 246.956C1833.49 248.383 1835.7 250.36 1838.58 251.107C1839.32 251.298 1840.06 251.388 1840.78 251.388L1840.79 251.382Z" fill="#BFA871"/>
<path d="M1986.55 273.344C1992.26 273.344 1998.04 272.006 2003.37 270.77L2004.83 270.435C2013.34 268.482 2022.98 267.138 2029.92 272.006C2030.97 272.735 2032.41 272.484 2033.14 271.439C2033.88 270.393 2033.62 268.954 2032.58 268.219C2024.15 262.312 2013.3 263.746 2003.79 265.926L2002.33 266.266C1993.96 268.207 1985.31 270.208 1977.84 267.168C1973.93 265.579 1970.32 262.569 1966.82 259.66C1961.14 254.93 1955.26 250.044 1947.55 250.45C1944.81 250.593 1942.24 251.429 1939.75 252.236C1936.54 253.281 1933.51 254.261 1930.74 253.502C1927.51 252.612 1925.27 249.554 1922.88 246.311C1920.61 243.223 1918.26 240.021 1914.74 238.134C1910.34 235.774 1904.65 235.834 1898.27 238.313C1896.35 239.06 1894.5 239.938 1892.71 240.792C1889.97 242.1 1887.38 243.33 1884.64 244.077C1880.89 245.098 1875.82 245.098 1872.84 242.022C1871.48 240.612 1870.89 238.223 1871.38 236.073C1871.58 235.189 1872.15 233.618 1873.7 233.039C1874.61 232.704 1875.76 232.692 1876.96 232.674C1878.13 232.663 1879.46 232.651 1880.79 232.328C1886.06 231.068 1889.63 225.19 1888.58 219.486C1887.65 214.469 1883.47 210.228 1878.17 208.944C1873.76 207.875 1866.65 208.227 1862.14 210.999C1861.05 211.668 1860.71 213.089 1861.38 214.176C1862.05 215.263 1863.47 215.604 1864.56 214.935C1867.73 212.988 1873.59 212.582 1877.08 213.43C1880.59 214.284 1883.44 217.115 1884.04 220.323C1884.63 223.572 1882.58 227.156 1879.72 227.836C1878.9 228.034 1877.94 228.045 1876.92 228.057C1875.43 228.075 1873.76 228.093 1872.1 228.708C1869.47 229.682 1867.57 231.994 1866.88 235.052C1866.05 238.719 1867.08 242.715 1869.53 245.241C1873.25 249.082 1879.36 250.312 1885.86 248.539C1889 247.684 1891.9 246.305 1894.7 244.967C1896.5 244.113 1898.19 243.306 1899.94 242.625C1903.48 241.252 1908.55 240.057 1912.56 242.213C1915.17 243.611 1917.11 246.257 1919.17 249.052C1921.92 252.785 1924.75 256.65 1929.53 257.958C1933.63 259.087 1937.47 257.838 1941.18 256.632C1943.49 255.885 1945.67 255.174 1947.8 255.061C1953.71 254.744 1958.64 258.86 1963.87 263.208C1967.64 266.344 1971.53 269.587 1976.1 271.445C1979.48 272.818 1983.01 273.338 1986.55 273.338V273.344Z" fill="#BFA871"/>
<path d="M1888.37 246.992C1889.4 246.992 1890.34 246.305 1890.61 245.266C1890.93 244.029 1890.19 242.769 1888.95 242.446C1886.28 241.748 1882.53 239.233 1882.12 237.393C1881.66 235.327 1881.82 232.573 1883.63 231.026C1884.6 230.196 1884.72 228.739 1883.89 227.771C1883.06 226.803 1881.6 226.684 1880.63 227.514C1877.81 229.921 1876.66 234.09 1877.61 238.397C1878.56 242.643 1884.24 245.988 1887.79 246.914C1887.98 246.968 1888.17 246.992 1888.37 246.992V246.992Z" fill="#BFA871"/>
<path d="M1980.33 287.751C1986.61 287.751 1992.98 286.21 1999.21 284.698C1999.96 284.519 2000.7 284.34 2001.44 284.161C2010.53 281.993 2021.97 280.296 2029.79 286.461C2030.8 287.249 2032.25 287.076 2033.04 286.078C2033.82 285.075 2033.65 283.623 2032.65 282.835C2023.28 275.446 2010.48 277.262 2000.37 279.669C1999.62 279.849 1998.88 280.028 1998.12 280.213C1988.82 282.465 1979.21 284.794 1970.83 281.431C1968.27 280.404 1965.9 278.869 1963.39 277.244C1960.02 275.07 1956.54 272.824 1952.45 271.779C1946.73 270.322 1940.87 271.451 1935.21 272.55C1928.75 273.798 1922.66 274.975 1917.59 272.131C1915.73 271.092 1914.11 269.533 1912.39 267.891C1910.13 265.729 1907.79 263.495 1904.68 262.216C1898.49 259.672 1892.3 261.9 1886.32 264.056C1884.24 264.809 1882.27 265.52 1880.31 266.027C1874.43 267.562 1867.64 266.696 1858.93 263.304C1853.59 261.225 1847.18 256.763 1846.94 247.308C1846.91 246.03 1845.86 245.026 1844.58 245.056C1843.31 245.086 1842.3 246.149 1842.33 247.422C1842.56 256.781 1847.86 263.949 1857.26 267.61C1863.33 269.975 1872.46 272.848 1881.47 270.495C1883.64 269.933 1885.8 269.151 1887.89 268.398C1893.28 266.451 1898.38 264.618 1902.93 266.487C1905.23 267.431 1907.16 269.276 1909.2 271.23C1911.05 273.004 1912.97 274.831 1915.33 276.157C1921.88 279.831 1929.11 278.433 1936.1 277.083C1941.49 276.038 1946.6 275.052 1951.31 276.253C1954.67 277.113 1957.69 279.06 1960.88 281.121C1963.47 282.793 1966.14 284.519 1969.11 285.714C1972.79 287.189 1976.54 287.751 1980.34 287.751H1980.33Z" fill="#BFA871"/>
<path d="M1713.6 113.122C1714.95 113.122 1716.29 112.984 1717.58 112.721C1720.85 112.052 1723.9 110.792 1726.85 109.574C1729.38 108.528 1731.77 107.537 1734.26 106.91C1740.67 105.297 1747.5 106.163 1754.11 106.993C1759.8 107.71 1765.34 108.612 1770.69 109.484C1776.08 110.362 1781.66 111.27 1787.44 111.999C1788.7 112.16 1789.85 111.264 1790.02 109.998C1790.18 108.731 1789.28 107.579 1788.01 107.417C1782.32 106.701 1776.79 105.799 1771.43 104.927C1766.04 104.049 1760.46 103.141 1754.69 102.412C1747.98 101.57 1740.39 100.608 1733.14 102.43C1730.32 103.141 1727.66 104.24 1725.09 105.303C1722.22 106.492 1719.5 107.614 1716.66 108.194C1711.95 109.156 1705.95 107.877 1704.13 103.595C1702.2 99.0613 1705.57 93.62 1709.36 90.0422C1710.37 89.0925 1711.42 88.1787 1712.53 87.217C1716.23 84.0215 1720.06 80.7185 1722 75.8864C1724.53 69.6328 1722.93 62.0054 1718.13 57.3405C1713.29 52.6518 1705.7 51.4095 1699.66 54.3183C1698.52 54.8737 1698.03 56.2535 1698.59 57.4003C1699.14 58.5471 1700.52 59.0309 1701.67 58.4754C1705.92 56.4207 1711.49 57.3405 1714.91 60.6495C1718.35 63.9884 1719.53 69.6686 1717.72 74.1543C1716.19 77.9471 1712.95 80.7484 1709.51 83.7169C1708.41 84.6726 1707.27 85.6581 1706.19 86.6795C1701.26 91.3264 1697.03 98.685 1699.88 105.399C1702.15 110.738 1707.95 113.116 1713.61 113.116L1713.6 113.122Z" fill="#BFA871"/>
<path d="M1798.08 103.773C1799.3 103.773 1800.31 102.824 1800.38 101.593C1800.46 100.321 1799.48 99.228 1798.2 99.1564C1796.24 99.0489 1794.38 98.9652 1792.6 98.8816C1784.49 98.5173 1778.08 98.2246 1770.68 95.7936L1768.76 95.1605C1759.72 92.1621 1750.37 89.0681 1740.78 90.8481C1737.76 91.4095 1734.9 92.4309 1732.13 93.4284C1729.22 94.4736 1726.47 95.4591 1723.62 95.9131C1720.43 96.4208 1715.68 95.9549 1712.81 93.739C1711.35 92.6101 1710.55 91.1885 1710.38 89.3847C1710.25 88.1184 1709.13 87.1867 1707.85 87.3121C1706.58 87.4375 1705.65 88.5664 1705.78 89.8386C1706.08 92.8848 1707.54 95.501 1709.99 97.3944C1714.24 100.679 1720.38 101.104 1724.34 100.476C1727.62 99.9567 1730.71 98.8518 1733.69 97.7766C1736.4 96.803 1738.96 95.8832 1741.61 95.3934C1750.04 93.8285 1758.81 96.7373 1767.31 99.5506L1769.23 100.184C1777.24 102.812 1783.92 103.116 1792.39 103.493C1794.16 103.57 1796 103.654 1797.95 103.761C1797.99 103.761 1798.04 103.761 1798.08 103.761V103.773Z" fill="#BFA871"/>
<path d="M1700.01 58.7079C1700.37 58.7079 1700.75 58.6183 1701.09 58.4331C1702.21 57.8358 1702.64 56.4322 1702.04 55.3093C1697.72 47.2041 1690.76 40.7473 1682.44 37.1337C1674.11 33.5142 1664.72 32.8631 1655.98 35.306C1654.75 35.6525 1654.04 36.9247 1654.38 38.1551C1654.73 39.3855 1656 40.1023 1657.23 39.7558C1664.94 37.5996 1673.25 38.173 1680.6 41.3685C1687.97 44.57 1694.14 50.292 1697.97 57.4834C1698.39 58.2659 1699.18 58.7079 1700.01 58.7079V58.7079Z" fill="#BFA871"/>
<path d="M1647.22 53.6849C1647.6 53.6849 1647.97 53.5953 1648.33 53.3982C1654.85 49.8264 1657.5 42.6291 1655.6 33.6458C1653.83 25.2598 1648.97 19.1914 1641.92 16.5573C1633.62 13.4514 1626.58 15.9481 1621.38 18.4687C1620.23 19.0241 1619.75 20.4039 1620.31 21.5566C1620.87 22.7094 1622.24 23.1813 1623.4 22.6258C1629.98 19.4363 1635.04 18.9166 1640.31 20.8817C1645.82 22.9424 1649.65 27.8163 1651.09 34.6015C1651.94 38.6272 1652.42 45.8903 1646.11 49.3486C1644.99 49.9638 1644.58 51.3674 1645.19 52.4844C1645.61 53.2489 1646.4 53.6849 1647.22 53.6849Z" fill="#BFA871"/>
<path d="M1550.72 22.9123C1551.43 22.9123 1552.13 22.5837 1552.58 21.9685C1560.36 11.3965 1573.23 4.74864 1586.17 4.62321C1599.11 4.47986 1612.1 10.8768 1620.08 21.2876C1620.86 22.303 1622.31 22.4941 1623.32 21.7177C1624.33 20.9412 1624.52 19.4898 1623.75 18.4804C1614.9 6.93473 1600.5 -0.143166 1586.12 0.000183814C1571.75 0.143534 1557.48 7.5141 1548.86 19.227C1548.1 20.2543 1548.32 21.6998 1549.35 22.4583C1549.76 22.7629 1550.24 22.9063 1550.72 22.9063V22.9123Z" fill="#BFA871"/>
<path d="M1521.47 59.4123C1522.58 59.4123 1523.55 58.6179 1523.75 57.495C1523.97 56.2407 1523.13 55.0401 1521.87 54.8251C1516.79 53.9411 1512.54 47.7591 1511.9 42.7598C1511.24 37.5813 1513.45 31.919 1517.68 27.9649C1521.49 24.4111 1526.93 22.1354 1533.01 21.55C1538.06 21.0603 1543.6 21.6277 1550.43 23.33C1551.66 23.6406 1552.92 22.888 1553.23 21.6456C1553.54 20.4092 1552.78 19.1549 1551.54 18.8443C1544.18 17.0106 1538.15 16.4074 1532.57 16.9509C1525.48 17.6378 1519.07 20.3495 1514.53 24.5902C1509.23 29.5358 1506.47 36.7212 1507.32 43.3452C1508.18 50.0587 1513.68 58.0923 1521.08 59.3765C1521.21 59.4003 1521.35 59.4123 1521.48 59.4123H1521.47Z" fill="#BFA871"/>
<path d="M1679.22 88.6795C1679.97 88.6795 1680.7 88.3211 1681.15 87.6521C1685.66 80.8968 1684.4 71.0534 1678.33 65.7077C1672.22 60.3321 1662.44 60.4993 1656.52 66.084C1655.59 66.956 1655.54 68.4194 1656.42 69.3512C1657.29 70.277 1658.76 70.3247 1659.69 69.4467C1663.85 65.5225 1670.99 65.4031 1675.28 69.1779C1679.6 72.9827 1680.53 80.2696 1677.31 85.0898C1676.6 86.1529 1676.88 87.5864 1677.94 88.2912C1678.33 88.5541 1678.78 88.6795 1679.22 88.6795Z" fill="#BFA871"/>
<path d="M1657.31 70.6895C1658.49 70.6895 1659.5 69.7876 1659.61 68.5871C1660.34 60.5416 1655.57 52.4124 1648.27 49.2468C1640.94 46.0752 1631.86 48.2254 1626.67 54.3716C1625.84 55.3451 1625.97 56.8025 1626.94 57.6268C1627.92 58.4511 1629.37 58.3256 1630.2 57.352C1634.04 52.8007 1641.02 51.1402 1646.43 53.4816C1651.86 55.8349 1655.55 62.1543 1655 68.169C1654.89 69.4412 1655.83 70.5641 1657.09 70.6776C1657.17 70.6836 1657.24 70.6895 1657.3 70.6895H1657.31Z" fill="#BFA871"/>
<path d="M1627.15 58.4805C1628.3 58.4805 1629.29 57.6323 1629.44 56.4616C1630.33 49.5092 1627.11 42.1924 1621.4 38.2622C1615.68 34.3141 1607.78 33.9796 1601.76 37.4379C1600.65 38.071 1600.27 39.4866 1600.9 40.5916C1601.53 41.6966 1602.95 42.0789 1604.06 41.4457C1608.57 38.8595 1614.48 39.1044 1618.78 42.0669C1623.09 45.0474 1625.53 50.5962 1624.86 55.8763C1624.7 57.1425 1625.59 58.3013 1626.85 58.4625C1626.96 58.4745 1627.05 58.4805 1627.15 58.4805V58.4805Z" fill="#BFA871"/>
<path d="M1543.34 57.8899C1543.63 57.8899 1543.93 57.8301 1544.23 57.7107C1545.4 57.2209 1545.96 55.865 1545.47 54.6884C1544.11 51.4511 1545.11 47.0789 1547.83 44.2836C1550.41 41.6376 1554.37 40.1981 1558.68 40.3415C1562.77 40.4788 1566.78 41.9721 1569.99 44.5583C1570.98 45.3587 1572.44 45.2034 1573.24 44.2059C1574.04 43.2144 1573.89 41.757 1572.89 40.9567C1568.91 37.7492 1563.91 35.8857 1558.83 35.7184C1553.23 35.5392 1548.01 37.4804 1544.52 41.0522C1540.5 45.1795 1539.13 51.5168 1541.2 56.4623C1541.57 57.3463 1542.43 57.8839 1543.34 57.8839V57.8899Z" fill="#BFA871"/>
<path d="M1514.84 73.3002C1515.99 73.3002 1516.98 72.452 1517.13 71.2873C1517.93 65.1233 1522.29 59.5147 1527.97 57.3346C1533.64 55.1545 1540.51 56.4327 1545.07 60.5122C1546.02 61.3603 1547.49 61.2827 1548.33 60.333C1549.18 59.3833 1549.1 57.9199 1548.16 57.0718C1542.34 51.8694 1533.56 50.2448 1526.32 53.0281C1519.1 55.8055 1513.57 62.9073 1512.56 70.702C1512.4 71.9682 1513.29 73.127 1514.55 73.2882C1514.65 73.3002 1514.75 73.3061 1514.85 73.3061L1514.84 73.3002Z" fill="#BFA871"/>
<path d="M1487.18 82.2471C1488.18 82.2471 1489.09 81.596 1489.39 80.5926C1490.87 75.6351 1494.94 71.4541 1499.79 69.9369C1504.61 68.4258 1510.27 69.5427 1514.19 72.792C1515.18 73.6043 1516.63 73.4669 1517.44 72.4814C1518.25 71.4959 1518.12 70.0445 1517.13 69.2321C1511.95 64.9496 1504.77 63.534 1498.4 65.5289C1492.04 67.5239 1486.89 72.792 1484.96 79.2786C1484.6 80.503 1485.3 81.7872 1486.51 82.1515C1486.74 82.2172 1486.96 82.2471 1487.17 82.2471H1487.18Z" fill="#BFA871"/>
<path d="M1472.11 63.4743C1473.18 63.4743 1474.14 62.7217 1474.37 61.6347C1475.96 53.9296 1481.35 47.234 1488.44 44.1639C1495.6 41.064 1502.15 41.5239 1508.45 45.5616C1509.53 46.2485 1510.96 45.9379 1511.64 44.8627C1512.33 43.7876 1512.02 42.3601 1510.94 41.6732C1503.35 36.8113 1495.16 36.2199 1486.61 39.9291C1478.16 43.5845 1471.73 51.5464 1469.84 60.7029C1469.59 61.9512 1470.39 63.1757 1471.64 63.4325C1471.79 63.4624 1471.95 63.4803 1472.11 63.4803V63.4743Z" fill="#BFA871"/>
<path d="M1456.6 123.228C1457 123.228 1457.39 123.216 1457.79 123.192C1464.19 122.833 1471.62 118.455 1472.76 111.049C1473.57 105.823 1471.1 100.232 1465.63 94.8803C1464.71 93.9724 1463.74 93.0884 1462.8 92.2343C1459.82 89.5106 1457 86.9363 1455.38 83.6154C1453.13 79.0043 1453.65 73.1389 1456.66 69.0116C1459.66 64.9142 1464.98 62.746 1469.91 63.6181C1471.16 63.8391 1472.36 63.0029 1472.59 61.7485C1472.81 60.4942 1471.97 59.2937 1470.72 59.0727C1464.09 57.896 1456.95 60.7989 1452.93 66.288C1448.94 71.7532 1448.25 79.5299 1451.23 85.6402C1453.23 89.7555 1456.51 92.7479 1459.68 95.6508C1460.59 96.481 1461.53 97.3351 1462.4 98.1833C1465.44 101.158 1468.91 105.685 1468.19 110.344C1467.44 115.164 1462.18 118.318 1457.53 118.581C1452.08 118.885 1446.64 116.407 1441.96 114.059C1441.45 113.802 1440.94 113.546 1440.43 113.289C1435.54 110.816 1430.49 108.254 1424.84 107.555C1417.28 106.617 1409.99 109.173 1403.75 111.64C1403.03 111.927 1402.31 112.214 1401.59 112.506C1396.14 114.692 1390.51 116.95 1384.81 117.332C1368.53 118.419 1363.51 115.905 1362.16 113.599C1361.52 112.5 1360.11 112.124 1359 112.763C1357.9 113.402 1357.53 114.818 1358.17 115.923C1360.05 119.154 1364.89 123.287 1385.11 121.938C1391.55 121.507 1397.52 119.112 1403.3 116.789C1404.02 116.502 1404.73 116.215 1405.44 115.929C1411.15 113.671 1417.78 111.33 1424.27 112.136C1429.12 112.739 1433.8 115.11 1438.34 117.41C1438.85 117.673 1439.37 117.936 1439.88 118.193C1444.78 120.647 1450.47 123.234 1456.59 123.234L1456.6 123.228Z" fill="#BFA871"/>
<path d="M1377.41 111.461C1382.41 111.461 1386.22 111.031 1386.32 111.019C1392.57 110.248 1398.35 107.74 1403.94 105.321C1405.36 104.705 1406.81 104.072 1408.25 103.487C1414.1 101.08 1421.72 98.5653 1428.76 100.459C1431.68 101.241 1434.38 102.734 1437.24 104.311C1438.73 105.135 1440.27 105.984 1441.86 106.736C1446.26 108.821 1452.68 110.684 1458.28 107.734C1463.45 105.016 1465.44 98.7265 1463 92.7835C1462.52 91.6009 1461.17 91.0394 1459.98 91.5232C1458.8 92.007 1458.24 93.3569 1458.72 94.5395C1459.98 97.6096 1459.71 101.767 1456.13 103.648C1452.21 105.709 1447.28 104.192 1443.84 102.561C1442.38 101.868 1440.97 101.092 1439.48 100.268C1436.5 98.625 1433.42 96.9227 1429.96 95.9969C1421.58 93.7451 1413.02 96.5345 1406.49 99.2163C1405.01 99.8196 1403.53 100.465 1402.1 101.086C1396.57 103.487 1391.34 105.751 1385.75 106.438C1376.25 107.608 1361.01 106.688 1358.32 101.958C1357.69 100.847 1356.28 100.465 1355.17 101.092C1354.06 101.725 1353.68 103.135 1354.3 104.24C1357.76 110.302 1369.19 111.461 1377.41 111.461V111.461Z" fill="#BFA871"/>
</g>
<defs>
<linearGradient id="paint0_linear_213_4" x1="1101.76" y1="56.3525" x2="1101.76" y2="105.735" gradientUnits="userSpaceOnUse">
<stop stop-color="#EEB14B"/>
<stop offset="1" stop-color="#B6630A"/>
</linearGradient>
<linearGradient id="paint1_linear_213_4" x1="1129.98" y1="49.8623" x2="1129.98" y2="105.735" gradientUnits="userSpaceOnUse">
<stop stop-color="#B6630A"/>
<stop offset="1" stop-color="#EEB14B"/>
</linearGradient>
<linearGradient id="paint2_linear_213_4" x1="1100.35" y1="51.4143" x2="1111.5" y2="64.536" gradientUnits="userSpaceOnUse">
<stop stop-color="#B76507"/>
<stop offset="1" stop-color="#EBA947"/>
</linearGradient>
<linearGradient id="paint3_linear_213_4" x1="1114.46" y1="111.251" x2="1110.25" y2="94.5579" gradientUnits="userSpaceOnUse">
<stop stop-color="#B76507"/>
<stop offset="1" stop-color="#EBA947"/>
</linearGradient>
<linearGradient id="paint4_linear_213_4" x1="1134.78" y1="49.373" x2="1134.78" y2="73.6412" gradientUnits="userSpaceOnUse">
<stop stop-color="#E7A843"/>
<stop offset="1" stop-color="#A65F11"/>
</linearGradient>
<linearGradient id="paint5_linear_213_4" x1="1136.19" y1="61.15" x2="1142.82" y2="69.1923" gradientUnits="userSpaceOnUse">
<stop stop-color="#E6A642"/>
<stop offset="1" stop-color="#C57819"/>
</linearGradient>
<linearGradient id="paint6_linear_213_4" x1="911.081" y1="26.1582" x2="911.081" y2="97.8338" gradientUnits="userSpaceOnUse">
<stop stop-color="#EFB34D"/>
<stop offset="1" stop-color="#B56109"/>
</linearGradient>
<linearGradient id="paint7_linear_213_4" x1="911.081" y1="97.834" x2="911.081" y2="169.51" gradientUnits="userSpaceOnUse">
<stop stop-color="#EFB34D"/>
<stop offset="1" stop-color="#B56109"/>
</linearGradient>
<linearGradient id="paint8_linear_213_4" x1="899.37" y1="89.6504" x2="899.37" y2="109.968" gradientUnits="userSpaceOnUse">
<stop stop-color="#B56109"/>
<stop offset="1" stop-color="#EAAC47"/>
</linearGradient>
<linearGradient id="paint9_linear_213_4" x1="899.37" y1="109.968" x2="899.37" y2="130.285" gradientUnits="userSpaceOnUse">
<stop stop-color="#B56109"/>
<stop offset="1" stop-color="#EAAC47"/>
</linearGradient>
<linearGradient id="paint10_linear_213_4" x1="888.224" y1="98.6807" x2="888.224" y2="106.582" gradientUnits="userSpaceOnUse">
<stop stop-color="#F0B04E"/>
<stop offset="1" stop-color="#B76507"/>
</linearGradient>
<linearGradient id="paint11_linear_213_4" x1="1083.88" y1="45.7021" x2="1083.88" y2="117.378" gradientUnits="userSpaceOnUse">
<stop stop-color="#EFB34D"/>
<stop offset="1" stop-color="#B56109"/>
</linearGradient>
<linearGradient id="paint12_linear_213_4" x1="1083.88" y1="117.378" x2="1083.88" y2="189.054" gradientUnits="userSpaceOnUse">
<stop stop-color="#EFB34D"/>
<stop offset="1" stop-color="#B56109"/>
</linearGradient>
<linearGradient id="paint13_linear_213_4" x1="989.106" y1="14.8711" x2="989.106" y2="109.122" gradientUnits="userSpaceOnUse">
<stop stop-color="#B9670D"/>
<stop offset="1" stop-color="#EAAD48"/>
</linearGradient>
<linearGradient id="paint14_linear_213_4" x1="994.891" y1="14.5889" x2="994.891" y2="108.839" gradientUnits="userSpaceOnUse">
<stop offset="0.00312487" stop-color="#EAAD48"/>
<stop offset="0.669792" stop-color="#B9670D"/>
</linearGradient>
<linearGradient id="paint15_linear_213_4" x1="1024.52" y1="13.7422" x2="1024.52" y2="107.993" gradientUnits="userSpaceOnUse">
<stop stop-color="#B9670D"/>
<stop offset="1" stop-color="#EAAD48"/>
</linearGradient>
<linearGradient id="paint16_linear_213_4" x1="1007.73" y1="19.8095" x2="1016.05" y2="36.0353" gradientUnits="userSpaceOnUse">
<stop stop-color="#BB6A10"/>
<stop offset="1" stop-color="#E09E3B"/>
</linearGradient>
<linearGradient id="paint17_linear_213_4" x1="997.854" y1="92.8965" x2="997.854" y2="108.981" gradientUnits="userSpaceOnUse">
<stop stop-color="#DE9B38"/>
<stop offset="1" stop-color="#B9670D"/>
</linearGradient>
<linearGradient id="paint18_linear_213_4" x1="1015.63" y1="94.1662" x2="1022.26" y2="103.337" gradientUnits="userSpaceOnUse">
<stop stop-color="#E7A843"/>
<stop offset="1" stop-color="#C07112"/>
</linearGradient>
<linearGradient id="paint19_linear_213_4" x1="979.37" y1="56.2122" x2="992.492" y2="106.865" gradientUnits="userSpaceOnUse">
<stop stop-color="#D89433"/>
<stop offset="1" stop-color="#B9670D"/>
</linearGradient>
<linearGradient id="paint20_linear_213_4" x1="926.319" y1="56.3525" x2="926.319" y2="105.735" gradientUnits="userSpaceOnUse">
<stop stop-color="#EEB14B"/>
<stop offset="1" stop-color="#B6630A"/>
</linearGradient>
<linearGradient id="paint21_linear_213_4" x1="954.538" y1="49.8623" x2="954.538" y2="105.735" gradientUnits="userSpaceOnUse">
<stop stop-color="#B6630A"/>
<stop offset="1" stop-color="#EEB14B"/>
</linearGradient>
<linearGradient id="paint22_linear_213_4" x1="924.908" y1="51.4143" x2="936.054" y2="64.536" gradientUnits="userSpaceOnUse">
<stop stop-color="#B76507"/>
<stop offset="1" stop-color="#EBA947"/>
</linearGradient>
<linearGradient id="paint23_linear_213_4" x1="939.016" y1="111.251" x2="934.803" y2="94.5579" gradientUnits="userSpaceOnUse">
<stop stop-color="#B76507"/>
<stop offset="1" stop-color="#EBA947"/>
</linearGradient>
<linearGradient id="paint24_linear_213_4" x1="959.335" y1="49.373" x2="959.335" y2="73.6412" gradientUnits="userSpaceOnUse">
<stop stop-color="#E7A843"/>
<stop offset="1" stop-color="#A65F11"/>
</linearGradient>
<linearGradient id="paint25_linear_213_4" x1="960.746" y1="61.15" x2="967.378" y2="69.1923" gradientUnits="userSpaceOnUse">
<stop stop-color="#E6A642"/>
<stop offset="1" stop-color="#C57819"/>
</linearGradient>
<linearGradient id="paint26_linear_213_4" x1="911.081" y1="26.1582" x2="911.081" y2="97.8338" gradientUnits="userSpaceOnUse">
<stop stop-color="#EFB34D"/>
<stop offset="1" stop-color="#B56109"/>
</linearGradient>
<linearGradient id="paint27_linear_213_4" x1="911.081" y1="97.834" x2="911.081" y2="169.51" gradientUnits="userSpaceOnUse">
<stop stop-color="#EFB34D"/>
<stop offset="1" stop-color="#B56109"/>
</linearGradient>
<linearGradient id="paint28_linear_213_4" x1="899.37" y1="89.6504" x2="899.37" y2="109.968" gradientUnits="userSpaceOnUse">
<stop stop-color="#B56109"/>
<stop offset="1" stop-color="#EAAC47"/>
</linearGradient>
<linearGradient id="paint29_linear_213_4" x1="899.37" y1="109.968" x2="899.37" y2="130.285" gradientUnits="userSpaceOnUse">
<stop stop-color="#B56109"/>
<stop offset="1" stop-color="#EAAC47"/>
</linearGradient>
<linearGradient id="paint30_linear_213_4" x1="888.224" y1="98.6807" x2="888.224" y2="106.582" gradientUnits="userSpaceOnUse">
<stop stop-color="#F0B04E"/>
<stop offset="1" stop-color="#B76507"/>
</linearGradient>
<linearGradient id="paint31_linear_213_4" x1="855.914" y1="21.0801" x2="855.914" y2="105.454" gradientUnits="userSpaceOnUse">
<stop stop-color="#F8BF57"/>
<stop offset="1" stop-color="#B05A03"/>
</linearGradient>
<linearGradient id="paint32_linear_213_4" x1="805.684" y1="21.0801" x2="805.684" y2="105.454" gradientUnits="userSpaceOnUse">
<stop stop-color="#B86508"/>
<stop offset="1" stop-color="#F9BC59"/>
</linearGradient>
<linearGradient id="paint33_linear_213_4" x1="784.266" y1="29.9438" x2="850.002" y2="26.6101" gradientUnits="userSpaceOnUse">
<stop stop-color="#E09B3A"/>
<stop offset="1" stop-color="#B76608"/>
</linearGradient>
<linearGradient id="paint34_linear_213_4" x1="843.638" y1="95.0127" x2="843.638" y2="105.595" gradientUnits="userSpaceOnUse">
<stop stop-color="#B76A0C"/>
<stop offset="1" stop-color="#B76406"/>
</linearGradient>
<linearGradient id="paint35_linear_213_4" x1="782.404" y1="97.5527" x2="782.404" y2="108.135" gradientUnits="userSpaceOnUse">
<stop stop-color="#B76A0C"/>
<stop offset="1" stop-color="#B76406"/>
</linearGradient>
<linearGradient id="paint36_linear_213_4" x1="843.356" y1="36.1768" x2="843.356" y2="25.5947" gradientUnits="userSpaceOnUse">
<stop stop-color="#B76A0C"/>
<stop offset="1" stop-color="#B76406"/>
</linearGradient>
<linearGradient id="paint37_linear_213_4" x1="779.723" y1="22.632" x2="786.072" y2="32.9318" gradientUnits="userSpaceOnUse">
<stop offset="0.203125" stop-color="#834A0D"/>
<stop offset="1" stop-color="#B76608"/>
</linearGradient>
<clipPath id="clip0_213_4">
<rect width="705" height="287.751" fill="white" transform="translate(-72 4)"/>
</clipPath>
<clipPath id="clip1_213_4">
<rect width="705" height="287.751" fill="white" transform="matrix(-1 0 0 1 2059 0)"/>
</clipPath>
</defs>
</svg>
