<svg width="157" height="124" viewBox="0 0 157 124" fill="none" xmlns="http://www.w3.org/2000/svg">
<g clip-path="url(#clip0_208_9516)">
<path d="M70.5402 95.1058C70.5402 102.608 67.521 109.15 61.4825 114.731C55.4441 120.358 48.3077 123.148 40.1192 123.148C27.2188 123.148 17.3377 118.894 10.3843 110.339C3.43094 101.785 0 89.9822 0 74.9318C0 60.8878 5.94697 46.7523 17.8409 32.4796C29.7348 18.2069 44.0991 7.36509 60.8421 0L68.5731 12.4429C55.3068 18.8931 44.9225 26.3497 37.4202 34.9041C29.9178 43.4586 25.572 53.7972 24.3826 65.9656H34.2637C41.5373 65.9656 47.4843 66.789 52.0589 68.4359C56.6334 70.0827 60.3389 72.37 63.1751 75.2978C65.8741 78.0883 67.7955 81.199 68.8934 84.5842C69.9913 87.9694 70.586 91.4918 70.586 95.1058H70.5402ZM157.046 95.1058C157.046 102.608 154.027 109.15 147.988 114.731C141.95 120.358 134.813 123.148 126.625 123.148C113.724 123.148 103.843 118.894 96.8899 110.339C89.9365 101.785 86.5055 89.9822 86.5055 74.8861C86.5055 60.8421 92.4525 46.7066 104.346 32.4339C116.24 18.1611 130.605 7.36509 147.348 0L155.079 12.4429C141.812 18.8931 131.428 26.3497 123.926 34.9041C116.423 43.4586 112.078 53.7972 110.888 65.9656H120.769C128.043 65.9656 133.99 66.789 138.564 68.4359C143.139 70.0827 146.844 72.37 149.681 75.2978C152.38 78.0883 154.301 81.199 155.399 84.5842C156.497 87.9694 157.091 91.4918 157.091 95.1058H157.046Z" fill="black"/>
</g>
<defs>
<clipPath id="clip0_208_9516">
<rect width="157" height="123.148" fill="white"/>
</clipPath>
</defs>
</svg>
