<svg width="407" height="604" viewBox="0 0 407 604" fill="none" xmlns="http://www.w3.org/2000/svg">
<g clip-path="url(#clip0_208_9156)">
<path d="M-22.4258 30.0353L340.575 520.245L337.426 522.577L-25.5751 32.3674L-22.4258 30.0353Z" fill="#BFA871"/>
<path d="M-136.065 -0.0258359L326.163 513.51L323.25 516.132L-138.977 2.59584L-136.065 -0.0258359Z" fill="#BFA871"/>
<path d="M-68.1178 168.194L326.333 523.235L323.711 526.148L-70.7395 171.107L-68.1178 168.194Z" fill="#BFA871"/>
<path d="M338.7 495.053L374.917 531.271L338.7 567.488L302.483 531.27L338.7 495.053Z" fill="#BFA871"/>
<path d="M336.741 458.891H340.66V603.631H336.741V458.891Z" fill="#BFA871"/>
<path d="M271.082 529.312H406.3V533.23H271.082V529.312Z" fill="#BFA871"/>
</g>
<defs>
<clipPath id="clip0_208_9156">
<rect width="545.3" height="603.651" fill="white" transform="matrix(-1 0 0 1 406.3 0)"/>
</clipPath>
</defs>
</svg>
